Formera-Light.ufo
<glyph name="parenleft" format="2">
  <advance width="233"/>
  <unicode hex="0028"/>
  <outline>
    <contour>
      <point x="178" y="-45" type="line" smooth="yes"/>
      <point x="172" y="-32"/>
      <point x="164" y="-19"/>
      <point x="159" y="-2" type="curve" smooth="yes"/>
      <point x="155" y="14"/>
      <point x="148" y="29"/>
      <point x="143" y="45" type="curve"/>
      <point x="128" y="72"/>
      <point x="113" y="158"/>
      <point x="105" y="196" type="curve"/>
      <point x="107" y="219"/>
      <point x="98" y="240"/>
      <point x="97" y="264" type="curve" smooth="yes"/>
      <point x="96" y="276"/>
      <point x="98" y="289"/>
      <point x="98" y="302" type="curve" smooth="yes"/>
      <point x="98" y="321"/>
      <point x="98" y="339"/>
      <point x="97" y="357" type="curve"/>
      <point x="100" y="374"/>
      <point x="103" y="397"/>
      <point x="101" y="414" type="curve"/>
      <point x="103" y="422"/>
      <point x="106" y="428"/>
      <point x="109" y="434" type="curve"/>
      <point x="105" y="446"/>
      <point x="110" y="456"/>
      <point x="112" y="466" type="curve"/>
      <point x="113" y="502"/>
      <point x="118" y="534"/>
      <point x="129" y="562" type="curve"/>
      <point x="129" y="570"/>
      <point x="126" y="574"/>
      <point x="127" y="583" type="curve"/>
      <point x="130" y="592"/>
      <point x="136" y="600"/>
      <point x="136" y="613" type="curve"/>
      <point x="139" y="624"/>
      <point x="143" y="635"/>
      <point x="150" y="641" type="curve"/>
      <point x="147" y="654"/>
      <point x="153" y="659"/>
      <point x="152" y="673" type="curve"/>
      <point x="159" y="690"/>
      <point x="157" y="682"/>
      <point x="161" y="698" type="curve" smooth="yes"/>
      <point x="163" y="703"/>
      <point x="166" y="709"/>
      <point x="166" y="716" type="curve"/>
      <point x="174" y="725"/>
      <point x="176" y="738"/>
      <point x="184" y="745" type="curve"/>
      <point x="183" y="763"/>
      <point x="196" y="776"/>
      <point x="193" y="793" type="curve" smooth="yes"/>
      <point x="191" y="804"/>
      <point x="181" y="810"/>
      <point x="174" y="812" type="curve" smooth="yes"/>
      <point x="167" y="815"/>
      <point x="163" y="815"/>
      <point x="157" y="815" type="curve"/>
      <point x="149" y="810"/>
      <point x="147" y="800"/>
      <point x="143" y="791" type="curve" smooth="yes"/>
      <point x="135" y="774"/>
      <point x="125" y="761"/>
      <point x="122" y="739" type="curve"/>
      <point x="110" y="714" type="line"/>
      <point x="106" y="687"/>
      <point x="102" y="686"/>
      <point x="97" y="665" type="curve" smooth="yes"/>
      <point x="94" y="648" type="line" smooth="yes"/>
      <point x="92" y="638"/>
      <point x="87" y="628"/>
      <point x="85" y="617" type="curve"/>
      <point x="80" y="604"/>
      <point x="80" y="586"/>
      <point x="73" y="575" type="curve"/>
      <point x="75" y="559"/>
      <point x="71" y="543"/>
      <point x="68" y="526" type="curve" smooth="yes"/>
      <point x="63" y="493"/>
      <point x="59" y="458"/>
      <point x="57" y="424" type="curve" smooth="yes"/>
      <point x="54" y="395"/>
      <point x="57" y="365"/>
      <point x="51" y="342" type="curve"/>
      <point x="58" y="313"/>
      <point x="50" y="285"/>
      <point x="50" y="259" type="curve" smooth="yes"/>
      <point x="50" y="245"/>
      <point x="52" y="231"/>
      <point x="53" y="217" type="curve" smooth="yes"/>
      <point x="54" y="204"/>
      <point x="54" y="189"/>
      <point x="57" y="175" type="curve" smooth="yes"/>
      <point x="59" y="162"/>
      <point x="64" y="149"/>
      <point x="62" y="136" type="curve"/>
      <point x="70" y="106" type="line"/>
      <point x="82" y="91"/>
      <point x="85" y="70"/>
      <point x="92" y="52" type="curve"/>
      <point x="98" y="17" type="line"/>
      <point x="104" y="3"/>
      <point x="113" y="-10"/>
      <point x="116" y="-28" type="curve"/>
      <point x="121" y="-37"/>
      <point x="126" y="-45"/>
      <point x="131" y="-55" type="curve" smooth="yes"/>
      <point x="136" y="-64"/>
      <point x="138" y="-76"/>
      <point x="148" y="-81" type="curve"/>
      <point x="159" y="-80"/>
      <point x="172" y="-80"/>
      <point x="183" y="-78" type="curve"/>
      <point x="187" y="-72"/>
      <point x="181" y="-62"/>
      <point x="181" y="-51" type="curve"/>
    </contour>
  </outline>
</glyph>
<glyph name="comma" format="2">
  <advance width="268"/>
  <unicode hex="002C"/>
  <outline>
    <contour>
      <point x="107" y="-38" type="line" smooth="yes"/>
      <point x="102" y="-49"/>
      <point x="100" y="-53"/>
      <point x="97" y="-64" type="curve"/>
      <point x="94" y="-69"/>
      <point x="95" y="-69"/>
      <point x="93" y="-75" type="curve" smooth="yes"/>
      <point x="84" y="-111"/>
      <point x="93" y="-110"/>
      <point x="123" y="-105" type="curve"/>
      <point x="126" y="-102"/>
      <point x="129" y="-98"/>
      <point x="133" y="-96" type="curve"/>
      <point x="136" y="-75"/>
      <point x="140" y="-75"/>
      <point x="147" y="-60" type="curve" smooth="yes"/>
      <point x="154" y="-45"/>
      <point x="163" y="-33"/>
      <point x="168" y="-14" type="curve" smooth="yes"/>
      <point x="170" y="-7"/>
      <point x="170" y="-2"/>
      <point x="171" y="5" type="curve"/>
      <point x="173" y="12"/>
      <point x="180" y="13"/>
      <point x="182" y="20" type="curve"/>
      <point x="189" y="31"/>
      <point x="190" y="45"/>
      <point x="194" y="57" type="curve" smooth="yes"/>
      <point x="198" y="66"/>
      <point x="207" y="72"/>
      <point x="210" y="80" type="curve" smooth="yes"/>
      <point x="213" y="89"/>
      <point x="221" y="94"/>
      <point x="221" y="106" type="curve"/>
      <point x="217" y="113"/>
      <point x="209" y="110"/>
      <point x="204" y="115" type="curve"/>
      <point x="181" y="118"/>
      <point x="197" y="117"/>
      <point x="171" y="115" type="curve"/>
      <point x="157" y="105"/>
      <point x="155" y="96"/>
      <point x="150" y="76" type="curve"/>
      <point x="136" y="51"/>
      <point x="130" y="22"/>
      <point x="120" y="-6" type="curve" smooth="yes"/>
      <point x="118" y="-13"/>
      <point x="115" y="-19"/>
      <point x="112" y="-26" type="curve" smooth="yes"/>
    </contour>
  </outline>
</glyph>
<glyph name="zero" format="2">
  <advance width="543"/>
  <unicode hex="0030"/>
  <outline>
    <contour>
      <point x="487" y="137"/>
      <point x="496" y="164"/>
      <point x="500" y="196" type="curve" smooth="yes"/>
      <point x="500" y="201"/>
      <point x="497" y="202"/>
      <point x="498" y="208" type="curve" smooth="yes"/>
      <point x="500" y="217"/>
      <point x="504" y="223"/>
      <point x="503" y="234" type="curve"/>
      <point x="499" y="238"/>
      <point x="500" y="247"/>
      <point x="500" y="256" type="curve"/>
      <point x="495" y="264"/>
      <point x="493" y="275"/>
      <point x="492" y="287" type="curve"/>
      <point x="485" y="297"/>
      <point x="484" y="310"/>
      <point x="479" y="322" type="curve" smooth="yes"/>
      <point x="475" y="334"/>
      <point x="469" y="345"/>
      <point x="465" y="356" type="curve"/>
      <point x="457" y="365"/>
      <point x="453" y="377"/>
      <point x="445" y="385" type="curve" smooth="yes"/>
      <point x="430" y="401"/>
      <point x="413" y="415"/>
      <point x="397" y="431" type="curve"/>
      <point x="388" y="431"/>
      <point x="385" y="439"/>
      <point x="377" y="442" type="curve" smooth="yes"/>
      <point x="361" y="448"/>
      <point x="344" y="453"/>
      <point x="330" y="461" type="curve"/>
      <point x="317" y="460"/>
      <point x="304" y="465"/>
      <point x="293" y="461" type="curve"/>
      <point x="282" y="467"/>
      <point x="257" y="461"/>
      <point x="240" y="465" type="curve"/>
      <point x="230" y="463"/>
      <point x="219" y="462"/>
      <point x="211" y="457" type="curve"/>
      <point x="176" y="453"/>
      <point x="155" y="435"/>
      <point x="130" y="421" type="curve"/>
      <point x="120" y="411"/>
      <point x="112" y="401"/>
      <point x="101" y="393" type="curve"/>
      <point x="99" y="389"/>
      <point x="95" y="386"/>
      <point x="93" y="382" type="curve"/>
      <point x="89" y="380"/>
      <point x="84" y="378"/>
      <point x="81" y="375" type="curve"/>
      <point x="81" y="368"/>
      <point x="76" y="366"/>
      <point x="76" y="358" type="curve"/>
      <point x="67" y="350"/>
      <point x="65" y="335"/>
      <point x="57" y="325" type="curve"/>
      <point x="54" y="311"/>
      <point x="49" y="298"/>
      <point x="46" y="284" type="curve"/>
      <point x="47" y="275"/>
      <point x="43" y="271"/>
      <point x="44" y="262" type="curve"/>
      <point x="42" y="257"/>
      <point x="41" y="252"/>
      <point x="40" y="246" type="curve"/>
      <point x="39" y="209"/>
      <point x="47" y="181"/>
      <point x="52" y="150" type="curve"/>
      <point x="63" y="133"/>
      <point x="73" y="114"/>
      <point x="81" y="93" type="curve"/>
      <point x="87" y="91"/>
      <point x="87" y="82"/>
      <point x="93" y="79" type="curve"/>
      <point x="97" y="73"/>
      <point x="103" y="70"/>
      <point x="104" y="62" type="curve"/>
      <point x="118" y="55"/>
      <point x="127" y="43"/>
      <point x="137" y="33" type="curve"/>
      <point x="161" y="28"/>
      <point x="175" y="8"/>
      <point x="202" y="5" type="curve" smooth="yes"/>
      <point x="214" y="4"/>
      <point x="226" y="6"/>
      <point x="238" y="7" type="curve" smooth="yes"/>
      <point x="242" y="7"/>
      <point x="247" y="5"/>
      <point x="251" y="5" type="curve" smooth="yes"/>
      <point x="261" y="5"/>
      <point x="279" y="-3"/>
      <point x="292" y="1" type="curve"/>
      <point x="299" y="7"/>
      <point x="328" y="10"/>
      <point x="350" y="10" type="curve"/>
      <point x="373" y="21"/>
      <point x="393" y="23"/>
      <point x="400" y="29" type="curve" smooth="yes"/>
      <point x="407" y="35"/>
      <point x="428" y="48"/>
      <point x="434" y="49" type="curve" smooth="yes"/>
      <point x="443" y="51"/>
      <point x="452" y="66"/>
      <point x="454" y="77" type="curve"/>
      <point x="461" y="90"/>
      <point x="474" y="105"/>
      <point x="475" y="114" type="curve"/>
    </contour>
    <contour>
      <point x="87" y="256" type="line"/>
      <point x="91" y="277"/>
      <point x="96" y="297"/>
      <point x="109" y="309" type="curve"/>
      <point x="109" y="317"/>
      <point x="113" y="321"/>
      <point x="114" y="328" type="curve"/>
      <point x="123" y="333"/>
      <point x="125" y="345"/>
      <point x="134" y="350" type="curve"/>
      <point x="139" y="360"/>
      <point x="148" y="364"/>
      <point x="153" y="374" type="curve"/>
      <point x="165" y="379"/>
      <point x="173" y="386"/>
      <point x="182" y="394" type="curve"/>
      <point x="192" y="397"/>
      <point x="198" y="403"/>
      <point x="207" y="407" type="curve"/>
      <point x="229" y="412"/>
      <point x="257" y="412"/>
      <point x="284" y="412" type="curve" smooth="yes"/>
      <point x="291" y="412"/>
      <point x="293" y="409"/>
      <point x="298" y="409" type="curve"/>
      <point x="313" y="413"/>
      <point x="324" y="405"/>
      <point x="341" y="407" type="curve"/>
      <point x="353" y="401"/>
      <point x="361" y="390"/>
      <point x="377" y="388" type="curve"/>
      <point x="393" y="371"/>
      <point x="407" y="353"/>
      <point x="423" y="336" type="curve"/>
      <point x="427" y="320"/>
      <point x="438" y="308"/>
      <point x="443" y="293" type="curve" smooth="yes"/>
      <point x="449" y="278"/>
      <point x="451" y="261"/>
      <point x="454" y="241" type="curve" smooth="yes"/>
      <point x="460" y="206"/>
      <point x="443" y="179"/>
      <point x="435" y="152" type="curve"/>
      <point x="429" y="144"/>
      <point x="421" y="138"/>
      <point x="416" y="128" type="curve" smooth="yes"/>
      <point x="411" y="120"/>
      <point x="401" y="116"/>
      <point x="397" y="106" type="curve"/>
      <point x="384" y="100"/>
      <point x="373" y="91"/>
      <point x="364" y="81" type="curve"/>
      <point x="349" y="75"/>
      <point x="336" y="67"/>
      <point x="323" y="59" type="curve"/>
      <point x="310" y="61"/>
      <point x="299" y="55"/>
      <point x="287" y="54" type="curve" smooth="yes"/>
      <point x="264" y="52"/>
      <point x="243" y="60"/>
      <point x="221" y="62" type="curve"/>
      <point x="212" y="65"/>
      <point x="205" y="71"/>
      <point x="193" y="71" type="curve"/>
      <point x="184" y="78"/>
      <point x="175" y="84"/>
      <point x="166" y="90" type="curve" smooth="yes"/>
      <point x="156" y="95"/>
      <point x="149" y="103"/>
      <point x="139" y="107" type="curve"/>
      <point x="133" y="118"/>
      <point x="125" y="126"/>
      <point x="117" y="134" type="curve"/>
      <point x="113" y="149"/>
      <point x="103" y="157"/>
      <point x="100" y="172" type="curve"/>
      <point x="93" y="184"/>
      <point x="91" y="200"/>
      <point x="87" y="215" type="curve"/>
    </contour>
  </outline>
</glyph>
<glyph name="greater" format="2">
  <advance width="500"/>
  <unicode hex="003E"/>
  <outline>
    <contour>
      <point x="33" y="138" type="curve" smooth="yes"/>
      <point x="33" y="124"/>
      <point x="41" y="118"/>
      <point x="53" y="124" type="curve"/>
      <point x="60" y="126" type="line" smooth="yes"/>
      <point x="64" y="127"/>
      <point x="69" y="130"/>
      <point x="79" y="137" type="curve"/>
      <point x="103" y="147" type="line"/>
      <point x="125" y="158" type="line"/>
      <point x="148" y="168" type="line"/>
      <point x="170" y="178" type="line"/>
      <point x="194" y="188" type="line"/>
      <point x="194" y="186"/>
      <point x="203" y="191"/>
      <point x="216" y="198" type="curve"/>
      <point x="216" y="196"/>
      <point x="224" y="199"/>
      <point x="236" y="205" type="curve"/>
      <point x="243" y="207" type="line" smooth="yes"/>
      <point x="247" y="208"/>
      <point x="252" y="211"/>
      <point x="261" y="218" type="curve" smooth="yes"/>
      <point x="260" y="217"/>
      <point x="274" y="222"/>
      <point x="281" y="225" type="curve" smooth="yes"/>
      <point x="291" y="229" type="line"/>
      <point x="307" y="238" type="line"/>
      <point x="353" y="258" type="line"/>
      <point x="373" y="266" type="line"/>
      <point x="398" y="279" type="line"/>
      <point x="457" y="305" type="line"/>
      <point x="467" y="311"/>
      <point x="469" y="309"/>
      <point x="468" y="328" type="curve"/>
      <point x="462" y="349" type="line"/>
      <point x="458" y="351"/>
      <point x="462" y="351"/>
      <point x="448" y="356" type="curve" smooth="yes"/>
      <point x="445" y="357" type="line"/>
      <point x="434" y="362" type="line"/>
      <point x="421" y="367" type="line"/>
      <point x="422" y="368"/>
      <point x="418" y="369"/>
      <point x="408" y="373" type="curve" smooth="yes"/>
      <point x="399" y="377" type="line"/>
      <point x="376" y="387" type="line"/>
      <point x="377" y="387"/>
      <point x="374" y="388"/>
      <point x="364" y="393" type="curve" smooth="yes"/>
      <point x="354" y="398" type="line"/>
      <point x="343" y="403" type="line"/>
      <point x="330" y="408" type="line"/>
      <point x="330" y="409"/>
      <point x="327" y="410"/>
      <point x="317" y="414" type="curve" smooth="yes"/>
      <point x="308" y="418" type="line"/>
      <point x="297" y="423" type="line"/>
      <point x="284" y="428" type="line"/>
      <point x="261" y="439" type="line"/>
      <point x="239" y="448" type="line"/>
      <point x="239" y="449"/>
      <point x="236" y="451"/>
      <point x="226" y="455" type="curve" smooth="yes"/>
      <point x="193" y="468" type="line"/>
      <point x="178" y="475" type="line"/>
      <point x="163" y="481" type="line"/>
      <point x="147" y="488" type="line"/>
      <point x="124" y="500" type="line"/>
      <point x="125" y="501"/>
      <point x="121" y="503"/>
      <point x="111" y="506" type="curve" smooth="yes"/>
      <point x="102" y="509" type="line"/>
      <point x="97" y="513" type="line" smooth="yes"/>
      <point x="94" y="516"/>
      <point x="89" y="517"/>
      <point x="79" y="520" type="curve"/>
      <point x="80" y="520"/>
      <point x="77" y="521"/>
      <point x="66" y="525" type="curve" smooth="yes"/>
      <point x="56" y="529" type="line"/>
      <point x="46" y="534" type="line" smooth="yes"/>
      <point x="38" y="537"/>
      <point x="33" y="535"/>
      <point x="32" y="528" type="curve" smooth="yes"/>
      <point x="30" y="519"/>
      <point x="31" y="514"/>
      <point x="32" y="507" type="curve" smooth="yes"/>
      <point x="33" y="501"/>
      <point x="36" y="493"/>
      <point x="48" y="490" type="curve" smooth="yes"/>
      <point x="52" y="489" type="line"/>
      <point x="57" y="487" type="line" smooth="yes"/>
      <point x="60" y="486"/>
      <point x="64" y="479"/>
      <point x="75" y="479" type="curve" smooth="yes"/>
      <point x="76" y="479" type="line"/>
      <point x="75" y="479"/>
      <point x="88" y="473"/>
      <point x="95" y="470" type="curve" smooth="yes"/>
      <point x="102" y="466" type="line" smooth="yes"/>
      <point x="106" y="464"/>
      <point x="111" y="461"/>
      <point x="120" y="460" type="curve"/>
      <point x="120" y="459" type="line" smooth="yes"/>
      <point x="120" y="457"/>
      <point x="127" y="455"/>
      <point x="139" y="449" type="curve" smooth="yes"/>
      <point x="141" y="448" type="line"/>
      <point x="148" y="446" type="line"/>
      <point x="173" y="435" type="line"/>
      <point x="182" y="429" type="line"/>
      <point x="180" y="427"/>
      <point x="185" y="426"/>
      <point x="192" y="426" type="curve"/>
      <point x="192" y="425" type="line" smooth="yes"/>
      <point x="192" y="423"/>
      <point x="199" y="423"/>
      <point x="214" y="418" type="curve" smooth="yes"/>
      <point x="220" y="416" type="line"/>
      <point x="220" y="414"/>
      <point x="222" y="413"/>
      <point x="225" y="413" type="curve"/>
      <point x="250" y="404" type="line"/>
      <point x="261" y="398" type="line" smooth="yes"/>
      <point x="269" y="394"/>
      <point x="276" y="390"/>
      <point x="286" y="387" type="curve" smooth="yes"/>
      <point x="293" y="385" type="line"/>
      <point x="297" y="382" type="line" smooth="yes"/>
      <point x="300" y="380"/>
      <point x="303" y="378"/>
      <point x="308" y="376" type="curve" smooth="yes"/>
      <point x="313" y="373"/>
      <point x="319" y="371"/>
      <point x="329" y="368" type="curve" smooth="yes"/>
      <point x="336" y="366" type="line"/>
      <point x="380" y="347" type="line"/>
      <point x="413" y="329" type="line"/>
      <point x="401" y="321" type="line"/>
      <point x="380" y="309" type="line"/>
      <point x="359" y="301" type="line" smooth="yes"/>
      <point x="351" y="298"/>
      <point x="345" y="295"/>
      <point x="336" y="290" type="curve"/>
      <point x="330" y="289" type="line" smooth="yes"/>
      <point x="326" y="288"/>
      <point x="321" y="285"/>
      <point x="312" y="281" type="curve"/>
      <point x="313" y="282"/>
      <point x="310" y="281"/>
      <point x="300" y="275" type="curve" smooth="yes"/>
      <point x="293" y="271" type="line"/>
      <point x="294" y="272"/>
      <point x="291" y="270"/>
      <point x="280" y="266" type="curve" smooth="yes"/>
      <point x="272" y="263" type="line"/>
      <point x="273" y="264"/>
      <point x="270" y="262"/>
      <point x="260" y="257" type="curve" smooth="yes"/>
      <point x="250" y="252" type="line"/>
      <point x="228" y="244" type="line"/>
      <point x="206" y="234" type="line"/>
      <point x="207" y="235"/>
      <point x="204" y="234"/>
      <point x="194" y="229" type="curve" smooth="yes"/>
      <point x="186" y="225" type="line"/>
      <point x="176" y="221" type="line"/>
      <point x="163" y="215" type="line"/>
      <point x="163" y="216"/>
      <point x="160" y="214"/>
      <point x="150" y="210" type="curve" smooth="yes"/>
      <point x="141" y="206" type="line"/>
      <point x="141" y="207"/>
      <point x="138" y="205"/>
      <point x="128" y="200" type="curve" smooth="yes"/>
      <point x="120" y="196" type="line"/>
      <point x="119" y="196" type="line" smooth="yes"/>
      <point x="117" y="196"/>
      <point x="112" y="196"/>
      <point x="102" y="189" type="curve" smooth="yes"/>
      <point x="99" y="187" type="line"/>
      <point x="88" y="183" type="line"/>
      <point x="76" y="177" type="line"/>
      <point x="75" y="177" type="line" smooth="yes"/>
      <point x="64" y="177"/>
      <point x="59" y="171"/>
      <point x="52" y="167" type="curve"/>
      <point x="52" y="168"/>
      <point x="50" y="167"/>
      <point x="43" y="163" type="curve" smooth="yes"/>
      <point x="36" y="160"/>
      <point x="33" y="152"/>
    </contour>
  </outline>
</glyph>
<glyph name="A" format="1">
  <advance width="588"/>
  <unicode hex="0041"/>
  <outline>
    <contour>
      <point x="568" y="16" type="line"/>
      <point x="562" y="29"/>
      <point x="559" y="46"/>
      <point x="551" y="58" type="curve"/>
      <point x="548" y="75"/>
      <point x="541" y="89"/>
      <point x="534" y="101" type="curve"/>
      <point x="529" y="116"/>
      <point x="522" y="129"/>
      <point x="516" y="143" type="curve"/>
      <point x="517" y="156"/>
      <point x="511" y="162"/>
      <point x="510" y="172" type="curve"/>
      <point x="501" y="182"/>
      <point x="492" y="191"/>
      <point x="488" y="205" type="curve" smooth="yes"/>
      <point x="487" y="210"/>
      <point x="489" y="215"/>
      <point x="486" y="222" type="curve" smooth="yes"/>
      <point x="483" y="229"/>
      <point x="479" y="235"/>
      <point x="478" y="244" type="curve"/>
      <point x="471" y="252"/>
      <point x="467" y="264"/>
      <point x="461" y="273" type="curve"/>
      <point x="457" y="290"/>
      <point x="450" y="303"/>
      <point x="442" y="317" type="curve"/>
      <point x="433" y="340"/>
      <point x="422" y="361"/>
      <point x="414" y="386" type="curve" smooth="yes"/>
      <point x="412" y="392"/>
      <point x="409" y="397"/>
      <point x="408" y="403" type="curve"/>
      <point x="405" y="409"/>
      <point x="400" y="412"/>
      <point x="400" y="421" type="curve"/>
      <point x="393" y="430"/>
      <point x="389" y="444"/>
      <point x="382" y="454" type="curve"/>
      <point x="382" y="467"/>
      <point x="376" y="474"/>
      <point x="371" y="482" type="curve" smooth="yes"/>
      <point x="369" y="486"/>
      <point x="367" y="491"/>
      <point x="363" y="493" type="curve"/>
      <point x="361" y="498"/>
      <point x="355" y="512"/>
      <point x="356" y="519" type="curve"/>
      <point x="353" y="533"/>
      <point x="346" y="544"/>
      <point x="337" y="552" type="curve"/>
      <point x="339" y="554"/>
      <point x="338" y="561"/>
      <point x="338" y="566" type="curve"/>
      <point x="333" y="574"/>
      <point x="330" y="584"/>
      <point x="326" y="593" type="curve" smooth="yes"/>
      <point x="325" y="596"/>
      <point x="323" y="599"/>
      <point x="324" y="604" type="curve"/>
      <point x="313" y="621"/>
      <point x="307" y="644"/>
      <point x="302" y="667" type="curve"/>
      <point x="294" y="673"/>
      <point x="297" y="691"/>
      <point x="283" y="692" type="curve"/>
      <point x="270" y="687"/>
      <point x="269" y="670"/>
      <point x="266" y="657" type="curve" smooth="yes"/>
      <point x="262" y="644"/>
      <point x="256" y="630"/>
      <point x="255" y="616" type="curve"/>
      <point x="251" y="613"/>
      <point x="229" y="552"/>
      <point x="225" y="547" type="curve"/>
      <point x="225" y="539"/>
      <point x="220" y="536"/>
      <point x="220" y="528" type="curve"/>
      <point x="206" y="510"/>
      <point x="185" y="459"/>
      <point x="183" y="449" type="curve" smooth="yes"/>
      <point x="180" y="439"/>
      <point x="162" y="383"/>
      <point x="155" y="377" type="curve"/>
      <point x="154" y="369"/>
      <point x="151" y="356"/>
      <point x="149" y="353" type="curve" smooth="yes"/>
      <point x="147" y="350"/>
      <point x="141" y="351"/>
      <point x="141" y="345" type="curve"/>
      <point x="140" y="344"/>
      <point x="143" y="335"/>
      <point x="140" y="331" type="curve" smooth="yes"/>
      <point x="136" y="324"/>
      <point x="126" y="301"/>
      <point x="122" y="298" type="curve"/>
      <point x="123" y="290"/>
      <point x="110" y="264"/>
      <point x="106" y="255" type="curve"/>
      <point x="103" y="239"/>
      <point x="92" y="230"/>
      <point x="91" y="211" type="curve"/>
      <point x="82" y="202"/>
      <point x="81" y="186"/>
      <point x="72" y="176" type="curve"/>
      <point x="69" y="160"/>
      <point x="64" y="146"/>
      <point x="58" y="134" type="curve"/>
      <point x="55" y="132"/>
      <point x="56" y="126"/>
      <point x="56" y="121" type="curve"/>
      <point x="40" y="106"/>
      <point x="38" y="77"/>
      <point x="25" y="58" type="curve"/>
      <point x="24" y="47"/>
      <point x="22" y="36"/>
      <point x="20" y="25" type="curve"/>
      <point x="26" y="15"/>
      <point x="41" y="7"/>
      <point x="58" y="13" type="curve"/>
      <point x="68" y="40"/>
      <point x="78" y="66"/>
      <point x="91" y="91" type="curve"/>
      <point x="90" y="97"/>
      <point x="91" y="103"/>
      <point x="92" y="107" type="curve" smooth="yes"/>
      <point x="98" y="122"/>
      <point x="108" y="133"/>
      <point x="111" y="151" type="curve"/>
      <point x="118" y="166"/>
      <point x="123" y="182"/>
      <point x="125" y="200" type="curve"/>
      <point x="133" y="207"/>
      <point x="135" y="218"/>
      <point x="138" y="228" type="curve"/>
      <point x="144" y="231"/>
      <point x="150" y="234"/>
      <point x="157" y="236" type="curve"/>
      <point x="178" y="227"/>
      <point x="208" y="236"/>
      <point x="231" y="228" type="curve"/>
      <point x="286" y="231"/>
      <point x="350" y="228"/>
      <point x="403" y="230" type="curve" smooth="yes"/>
      <point x="410" y="230"/>
      <point x="411" y="234"/>
      <point x="419" y="233" type="curve"/>
      <point x="423" y="230"/>
      <point x="429" y="229"/>
      <point x="433" y="225" type="curve"/>
      <point x="435" y="216"/>
      <point x="439" y="208"/>
      <point x="439" y="197" type="curve"/>
      <point x="449" y="189"/>
      <point x="453" y="175"/>
      <point x="456" y="161" type="curve"/>
      <point x="461" y="156"/>
      <point x="464" y="150"/>
      <point x="467" y="143" type="curve" smooth="yes"/>
      <point x="474" y="122"/>
      <point x="480" y="99"/>
      <point x="491" y="82" type="curve"/>
      <point x="493" y="67"/>
      <point x="501" y="59"/>
      <point x="502" y="44" type="curve"/>
      <point x="512" y="34"/>
      <point x="514" y="16"/>
      <point x="523" y="5" type="curve"/>
      <point x="527" y="5"/>
      <point x="530" y="0"/>
      <point x="535" y="-2" type="curve"/>
      <point x="548" y="-4"/>
      <point x="567" y="1"/>
      <point x="568" y="13" type="curve" smooth="yes"/>
    </contour>
    <contour>
      <point x="403" y="301"/>
      <point x="413" y="289"/>
      <point x="404" y="277" type="curve"/>
      <point x="398" y="277"/>
      <point x="393" y="277"/>
      <point x="389" y="279" type="curve"/>
      <point x="367" y="267"/>
      <point x="331" y="279"/>
      <point x="305" y="271" type="curve"/>
      <point x="270" y="272"/>
      <point x="225" y="270"/>
      <point x="190" y="269" type="curve"/>
      <point x="181" y="273"/>
      <point x="165" y="271"/>
      <point x="157" y="276" type="curve"/>
      <point x="155" y="289"/>
      <point x="161" y="294"/>
      <point x="165" y="303" type="curve"/>
      <point x="164" y="312"/>
      <point x="179" y="348"/>
      <point x="187" y="353" type="curve"/>
      <point x="187" y="360"/>
      <point x="190" y="364"/>
      <point x="192" y="370" type="curve"/>
      <point x="193" y="378"/>
      <point x="209" y="411"/>
      <point x="212" y="418" type="curve"/>
      <point x="211" y="426"/>
      <point x="216" y="430"/>
      <point x="215" y="438" type="curve"/>
      <point x="216" y="444"/>
      <point x="222" y="444"/>
      <point x="222" y="451" type="curve"/>
      <point x="224" y="455"/>
      <point x="225" y="460"/>
      <point x="228" y="463" type="curve"/>
      <point x="228" y="468"/>
      <point x="234" y="483"/>
      <point x="236" y="487" type="curve"/>
      <point x="237" y="494"/>
      <point x="241" y="498"/>
      <point x="244" y="501" type="curve"/>
      <point x="240" y="521"/>
      <point x="259" y="550"/>
      <point x="261" y="553" type="curve"/>
      <point x="262" y="556"/>
      <point x="274" y="577"/>
      <point x="273" y="583" type="curve" smooth="yes"/>
      <point x="272" y="589"/>
      <point x="279" y="590"/>
      <point x="281" y="596" type="curve"/>
      <point x="294" y="591"/>
      <point x="296" y="576"/>
      <point x="299" y="561" type="curve"/>
      <point x="301" y="556"/>
      <point x="307" y="555"/>
      <point x="310" y="550" type="curve"/>
      <point x="311" y="536"/>
      <point x="314" y="524"/>
      <point x="319" y="514" type="curve" smooth="yes"/>
      <point x="321" y="508"/>
      <point x="326" y="491"/>
      <point x="327" y="482" type="curve"/>
      <point x="332" y="472"/>
      <point x="337" y="461"/>
      <point x="343" y="452" type="curve"/>
      <point x="343" y="437"/>
      <point x="352" y="430"/>
      <point x="354" y="416" type="curve"/>
      <point x="363" y="402"/>
      <point x="367" y="383"/>
      <point x="378" y="370" type="curve"/>
      <point x="376" y="366"/>
      <point x="379" y="365"/>
      <point x="379" y="361" type="curve"/>
      <point x="388" y="345"/>
      <point x="392" y="327"/>
      <point x="400" y="309" type="curve" smooth="yes"/>
    </contour>
    <contour>
      <point x="294" y="0" type="move" name="bottom"/>
    </contour>
    <contour>
      <point x="541" y="11" type="move" name="ogonek"/>
    </contour>
    <contour>
      <point x="288" y="695" type="move" name="top"/>
    </contour>
  </outline>
</glyph>
<glyph name="B" format="1">
  <advance width="488"/>
  <unicode hex="0042"/>
  <outline>
    <contour>
      <point x="315" y="5" type="line"/>
      <point x="349" y="14" type="line"/>
      <point x="362" y="15"/>
      <point x="368" y="23"/>
      <point x="382" y="24" type="curve"/>
      <point x="387" y="28"/>
      <point x="389" y="36"/>
      <point x="396" y="39" type="curve"/>
      <point x="400" y="46"/>
      <point x="410" y="46"/>
      <point x="412" y="55" type="curve"/>
      <point x="422" y="65"/>
      <point x="430" y="78"/>
      <point x="440" y="88" type="curve"/>
      <point x="443" y="105"/>
      <point x="453" y="114"/>
      <point x="459" y="128" type="curve" smooth="yes"/>
      <point x="466" y="145"/>
      <point x="466" y="169"/>
      <point x="468" y="191" type="curve"/>
      <point x="464" y="211"/>
      <point x="460" y="232"/>
      <point x="457" y="254" type="curve"/>
      <point x="453" y="259"/>
      <point x="450" y="265"/>
      <point x="449" y="274" type="curve"/>
      <point x="444" y="280"/>
      <point x="440" y="286"/>
      <point x="437" y="293" type="curve" smooth="yes"/>
      <point x="427" y="315"/>
      <point x="407" y="325"/>
      <point x="393" y="342" type="curve"/>
      <point x="375" y="348"/>
      <point x="365" y="360"/>
      <point x="344" y="362" type="curve"/>
      <point x="340" y="367"/>
      <point x="329" y="364"/>
      <point x="326" y="370" type="curve"/>
      <point x="328" y="379"/>
      <point x="337" y="379"/>
      <point x="342" y="383" type="curve" smooth="yes"/>
      <point x="347" y="388"/>
      <point x="354" y="391"/>
      <point x="360" y="396" type="curve"/>
      <point x="378" y="424" type="line" smooth="yes"/>
      <point x="384" y="435"/>
      <point x="389" y="446"/>
      <point x="396" y="455" type="curve"/>
      <point x="397" y="466"/>
      <point x="399" y="476"/>
      <point x="402" y="484" type="curve"/>
      <point x="400" y="506"/>
      <point x="399" y="525"/>
      <point x="396" y="542" type="curve" smooth="yes"/>
      <point x="390" y="569" type="line"/>
      <point x="380" y="586" type="line"/>
      <point x="372" y="605" type="line"/>
      <point x="367" y="609"/>
      <point x="364" y="615"/>
      <point x="361" y="621" type="curve"/>
      <point x="345" y="634"/>
      <point x="331" y="649"/>
      <point x="315" y="662" type="curve"/>
      <point x="303" y="665"/>
      <point x="295" y="672"/>
      <point x="282" y="675" type="curve" smooth="yes"/>
      <point x="266" y="678"/>
      <point x="252" y="684"/>
      <point x="232" y="684" type="curve" smooth="yes"/>
      <point x="219" y="684" type="line" smooth="yes"/>
      <point x="210" y="684"/>
      <point x="200" y="686"/>
      <point x="191" y="686" type="curve" smooth="yes"/>
      <point x="179" y="686"/>
      <point x="168" y="682"/>
      <point x="156" y="682" type="curve" smooth="yes"/>
      <point x="127" y="682"/>
      <point x="97" y="689"/>
      <point x="71" y="679" type="curve"/>
      <point x="67" y="669"/>
      <point x="62" y="658"/>
      <point x="68" y="646" type="curve"/>
      <point x="66" y="641"/>
      <point x="64" y="636"/>
      <point x="65" y="629" type="curve" smooth="yes"/>
      <point x="71" y="595"/>
      <point x="66" y="555"/>
      <point x="68" y="525" type="curve" smooth="yes"/>
      <point x="68" y="522"/>
      <point x="66" y="520"/>
      <point x="66" y="519" type="curve" smooth="yes"/>
      <point x="67" y="511"/>
      <point x="71" y="503"/>
      <point x="71" y="495" type="curve" smooth="yes"/>
      <point x="72" y="483"/>
      <point x="67" y="470"/>
      <point x="71" y="459" type="curve"/>
      <point x="68" y="447"/>
      <point x="69" y="435"/>
      <point x="70" y="426" type="curve" smooth="yes"/>
      <point x="71" y="395"/>
      <point x="70" y="368"/>
      <point x="70" y="339" type="curve" smooth="yes"/>
      <point x="70" y="333"/>
      <point x="71" y="326"/>
      <point x="71" y="320" type="curve" smooth="yes"/>
      <point x="71" y="282"/>
      <point x="68" y="238"/>
      <point x="74" y="206" type="curve"/>
      <point x="72" y="178"/>
      <point x="74" y="142"/>
      <point x="71" y="112" type="curve"/>
      <point x="76" y="90"/>
      <point x="70" y="76"/>
      <point x="73" y="54" type="curve"/>
      <point x="70" y="42"/>
      <point x="68" y="24"/>
      <point x="70" y="13" type="curve"/>
      <point x="77" y="-6"/>
      <point x="107" y="1"/>
      <point x="126" y="-3" type="curve"/>
      <point x="153" y="4"/>
      <point x="185" y="-4"/>
      <point x="215" y="0" type="curve"/>
      <point x="223" y="0"/>
      <point x="228" y="-5"/>
      <point x="238" y="-3" type="curve" smooth="yes"/>
      <point x="256" y="0"/>
      <point x="277" y="0"/>
      <point x="293" y="5" type="curve"/>
    </contour>
    <contour>
      <point x="112" y="454" type="line" smooth="yes"/>
      <point x="112" y="462"/>
      <point x="114" y="471"/>
      <point x="114" y="479" type="curve" smooth="yes"/>
      <point x="113" y="494"/>
      <point x="108" y="511"/>
      <point x="114" y="528" type="curve"/>
      <point x="114" y="582" type="line" smooth="yes"/>
      <point x="114" y="591"/>
      <point x="113" y="600"/>
      <point x="114" y="610" type="curve" smooth="yes"/>
      <point x="114" y="618"/>
      <point x="112" y="628"/>
      <point x="117" y="635" type="curve"/>
      <point x="126" y="639"/>
      <point x="140" y="636"/>
      <point x="147" y="632" type="curve"/>
      <point x="162" y="634"/>
      <point x="180" y="632"/>
      <point x="196" y="637" type="curve"/>
      <point x="220" y="633"/>
      <point x="249" y="634"/>
      <point x="271" y="629" type="curve"/>
      <point x="280" y="624"/>
      <point x="287" y="618"/>
      <point x="296" y="615" type="curve"/>
      <point x="300" y="607"/>
      <point x="308" y="605"/>
      <point x="314" y="599" type="curve" smooth="yes"/>
      <point x="318" y="595"/>
      <point x="320" y="589"/>
      <point x="323" y="585" type="curve" smooth="yes"/>
      <point x="327" y="580"/>
      <point x="332" y="578"/>
      <point x="334" y="574" type="curve" smooth="yes"/>
      <point x="338" y="568"/>
      <point x="340" y="560"/>
      <point x="342" y="553" type="curve" smooth="yes"/>
      <point x="345" y="547"/>
      <point x="346" y="540"/>
      <point x="350" y="534" type="curve"/>
      <point x="350" y="526"/>
      <point x="351" y="519"/>
      <point x="353" y="512" type="curve"/>
      <point x="349" y="473" type="line"/>
      <point x="344" y="465"/>
      <point x="340" y="458"/>
      <point x="339" y="448" type="curve"/>
      <point x="330" y="440"/>
      <point x="325" y="427"/>
      <point x="319" y="416" type="curve"/>
      <point x="309" y="407"/>
      <point x="297" y="401"/>
      <point x="287" y="392" type="curve"/>
      <point x="275" y="390"/>
      <point x="263" y="386"/>
      <point x="254" y="380" type="curve"/>
      <point x="236" y="378"/>
      <point x="224" y="377"/>
      <point x="208" y="377" type="curve"/>
      <point x="195" y="391"/>
      <point x="188" y="377"/>
      <point x="175" y="377" type="curve" smooth="yes"/>
      <point x="154" y="376"/>
      <point x="134" y="377"/>
      <point x="117" y="380" type="curve"/>
      <point x="111" y="391"/>
      <point x="114" y="404"/>
      <point x="114" y="419" type="curve" smooth="yes"/>
      <point x="114" y="420"/>
      <point x="112" y="422"/>
      <point x="112" y="424" type="curve" smooth="yes"/>
    </contour>
    <contour>
      <point x="298" y="333" type="line"/>
      <point x="317" y="331"/>
      <point x="330" y="322"/>
      <point x="347" y="318" type="curve"/>
      <point x="352" y="312"/>
      <point x="362" y="309"/>
      <point x="367" y="303" type="curve"/>
      <point x="386" y="287" type="line"/>
      <point x="394" y="274"/>
      <point x="401" y="262"/>
      <point x="410" y="251" type="curve"/>
      <point x="410" y="240"/>
      <point x="415" y="233"/>
      <point x="418" y="225" type="curve"/>
      <point x="417" y="217"/>
      <point x="418" y="211"/>
      <point x="421" y="206" type="curve"/>
      <point x="421" y="164" type="line"/>
      <point x="419" y="155"/>
      <point x="414" y="149"/>
      <point x="410" y="140" type="curve" smooth="yes"/>
      <point x="406" y="132"/>
      <point x="405" y="122"/>
      <point x="401" y="115" type="curve" smooth="yes"/>
      <point x="396" y="108"/>
      <point x="388" y="103"/>
      <point x="385" y="96" type="curve"/>
      <point x="377" y="92"/>
      <point x="374" y="85"/>
      <point x="366" y="82" type="curve"/>
      <point x="362" y="75"/>
      <point x="353" y="73"/>
      <point x="345" y="69" type="curve"/>
      <point x="342" y="62"/>
      <point x="331" y="62"/>
      <point x="325" y="57" type="curve"/>
      <point x="299" y="53"/>
      <point x="278" y="54"/>
      <point x="252" y="49" type="curve"/>
      <point x="246" y="52"/>
      <point x="233" y="48"/>
      <point x="227" y="52" type="curve"/>
      <point x="202" y="46"/>
      <point x="172" y="54"/>
      <point x="147" y="47" type="curve"/>
      <point x="137" y="50"/>
      <point x="131" y="50"/>
      <point x="120" y="49" type="curve"/>
      <point x="112" y="63"/>
      <point x="117" y="80"/>
      <point x="117" y="96" type="curve" smooth="yes"/>
      <point x="117" y="102"/>
      <point x="115" y="106"/>
      <point x="115" y="112" type="curve" smooth="yes"/>
      <point x="116" y="135"/>
      <point x="119" y="158"/>
      <point x="114" y="178" type="curve"/>
      <point x="116" y="191"/>
      <point x="113" y="205"/>
      <point x="114" y="219" type="curve" smooth="yes"/>
      <point x="114" y="247"/>
      <point x="121" y="278"/>
      <point x="114" y="299" type="curve"/>
      <point x="116" y="307"/>
      <point x="115" y="317"/>
      <point x="115" y="326" type="curve"/>
      <point x="128" y="333"/>
      <point x="154" y="335"/>
      <point x="170" y="329" type="curve"/>
    </contour>
  </outline>
</glyph>
<glyph name="D" format="2">
  <advance width="594"/>
  <unicode hex="0044"/>
  <anchor x="264" y="0" name="bottom"/>
  <anchor x="304" y="348" name="center"/>
  <anchor x="264" y="695" name="top"/>
  <outline>
    <contour>
      <point x="540" y="236" type="line" smooth="yes"/>
      <point x="541" y="239"/>
      <point x="544" y="240"/>
      <point x="545" y="243" type="curve"/>
      <point x="545" y="245"/>
      <point x="546" y="248"/>
      <point x="546" y="251" type="curve" smooth="yes"/>
      <point x="547" y="255"/>
      <point x="549" y="257"/>
      <point x="549" y="258" type="curve" smooth="yes"/>
      <point x="552" y="269"/>
      <point x="555" y="282"/>
      <point x="556" y="293" type="curve" smooth="yes"/>
      <point x="556" y="305"/>
      <point x="553" y="329"/>
      <point x="559" y="334" type="curve" smooth="yes"/>
      <point x="560" y="335"/>
      <point x="557" y="336"/>
      <point x="557" y="336" type="curve"/>
      <point x="559" y="356"/>
      <point x="556" y="375"/>
      <point x="559" y="396" type="curve" smooth="yes"/>
      <point x="559" y="398"/>
      <point x="557" y="398"/>
      <point x="557" y="400" type="curve" smooth="yes"/>
      <point x="556" y="404"/>
      <point x="554" y="407"/>
      <point x="552" y="410" type="curve"/>
      <point x="553" y="442"/>
      <point x="540" y="460"/>
      <point x="535" y="487" type="curve"/>
      <point x="518" y="508"/>
      <point x="511" y="540"/>
      <point x="489" y="556" type="curve"/>
      <point x="478" y="583"/>
      <point x="453" y="596"/>
      <point x="436" y="618" type="curve"/>
      <point x="427" y="621"/>
      <point x="421" y="628"/>
      <point x="414" y="632" type="curve"/>
      <point x="404" y="635"/>
      <point x="400" y="642"/>
      <point x="392" y="646" type="curve" smooth="yes"/>
      <point x="376" y="655"/>
      <point x="359" y="662"/>
      <point x="343" y="670" type="curve"/>
      <point x="331" y="671"/>
      <point x="321" y="676"/>
      <point x="310" y="679" type="curve" smooth="yes"/>
      <point x="299" y="683"/>
      <point x="286" y="683"/>
      <point x="277" y="689" type="curve"/>
      <point x="265" y="687"/>
      <point x="253" y="689"/>
      <point x="243" y="690" type="curve" smooth="yes"/>
      <point x="227" y="692"/>
      <point x="204" y="689"/>
      <point x="184" y="694" type="curve"/>
      <point x="165" y="690"/>
      <point x="139" y="689"/>
      <point x="117" y="690" type="curve" smooth="yes"/>
      <point x="104" y="691"/>
      <point x="93" y="695"/>
      <point x="83" y="690" type="curve" smooth="yes"/>
      <point x="77" y="686"/>
      <point x="71" y="682"/>
      <point x="67" y="676" type="curve"/>
      <point x="63" y="662"/>
      <point x="70" y="648"/>
      <point x="70" y="632" type="curve" smooth="yes"/>
      <point x="70" y="622"/>
      <point x="67" y="612"/>
      <point x="67" y="602" type="curve" smooth="yes"/>
      <point x="67" y="590"/>
      <point x="69" y="578"/>
      <point x="68" y="566" type="curve" smooth="yes"/>
      <point x="68" y="555"/>
      <point x="68" y="543"/>
      <point x="70" y="533" type="curve"/>
      <point x="65" y="513"/>
      <point x="68" y="492"/>
      <point x="68" y="471" type="curve" smooth="yes"/>
      <point x="69" y="453"/>
      <point x="67" y="435"/>
      <point x="68" y="418" type="curve" smooth="yes"/>
      <point x="69" y="390"/>
      <point x="68" y="354"/>
      <point x="70" y="325" type="curve" smooth="yes"/>
      <point x="71" y="317"/>
      <point x="66" y="314"/>
      <point x="65" y="307" type="curve"/>
      <point x="73" y="281"/>
      <point x="70" y="252"/>
      <point x="70" y="224" type="curve" smooth="yes"/>
      <point x="70" y="217"/>
      <point x="72" y="210"/>
      <point x="72" y="203" type="curve" smooth="yes"/>
      <point x="72" y="194"/>
      <point x="70" y="186"/>
      <point x="70" y="176" type="curve" smooth="yes"/>
      <point x="70" y="147"/>
      <point x="73" y="116"/>
      <point x="73" y="87" type="curve" smooth="yes"/>
      <point x="74" y="62"/>
      <point x="69" y="38"/>
      <point x="72" y="14" type="curve"/>
      <point x="81" y="3"/>
      <point x="108" y="10"/>
      <point x="124" y="6" type="curve"/>
      <point x="143" y="12"/>
      <point x="164" y="7"/>
      <point x="187" y="8" type="curve" smooth="yes"/>
      <point x="196" y="8"/>
      <point x="207" y="11"/>
      <point x="217" y="11" type="curve" smooth="yes"/>
      <point x="253" y="12"/>
      <point x="285" y="12"/>
      <point x="314" y="17" type="curve"/>
      <point x="335" y="24"/>
      <point x="355" y="31"/>
      <point x="371" y="39" type="curve" smooth="yes"/>
      <point x="383" y="45"/>
      <point x="393" y="50"/>
      <point x="404" y="54" type="curve"/>
      <point x="409" y="59"/>
      <point x="416" y="63"/>
      <point x="422" y="68" type="curve" smooth="yes"/>
      <point x="427" y="73"/>
      <point x="432" y="80"/>
      <point x="441" y="82" type="curve"/>
      <point x="444" y="89"/>
      <point x="453" y="90"/>
      <point x="458" y="96" type="curve"/>
      <point x="461" y="104"/>
      <point x="468" y="108"/>
      <point x="475" y="112" type="curve"/>
      <point x="479" y="124"/>
      <point x="486" y="134"/>
      <point x="494" y="142" type="curve"/>
      <point x="499" y="153"/>
      <point x="507" y="161"/>
      <point x="515" y="170" type="curve"/>
      <point x="520" y="190"/>
      <point x="530" y="208"/>
      <point x="538" y="228" type="curve"/>
    </contour>
    <contour>
      <point x="117" y="183" type="line" smooth="yes"/>
      <point x="117" y="203"/>
      <point x="116" y="223"/>
      <point x="116" y="243" type="curve" smooth="yes"/>
      <point x="116" y="253"/>
      <point x="117" y="264"/>
      <point x="117" y="274" type="curve" smooth="yes"/>
      <point x="118" y="284"/>
      <point x="117" y="295"/>
      <point x="121" y="304" type="curve"/>
      <point x="115" y="321"/>
      <point x="117" y="337"/>
      <point x="117" y="356" type="curve" smooth="yes"/>
      <point x="117" y="363"/>
      <point x="116" y="369"/>
      <point x="116" y="375" type="curve" smooth="yes"/>
      <point x="116" y="400"/>
      <point x="117" y="425"/>
      <point x="116" y="451" type="curve" smooth="yes"/>
      <point x="115" y="463"/>
      <point x="116" y="475"/>
      <point x="116" y="487" type="curve" smooth="yes"/>
      <point x="114" y="537"/>
      <point x="113" y="588"/>
      <point x="114" y="635" type="curve"/>
      <point x="133" y="646"/>
      <point x="162" y="641"/>
      <point x="191" y="641" type="curve" smooth="yes"/>
      <point x="203" y="642"/>
      <point x="214" y="645"/>
      <point x="225" y="645" type="curve" smooth="yes"/>
      <point x="246" y="645"/>
      <point x="265" y="638"/>
      <point x="284" y="638" type="curve"/>
      <point x="305" y="631"/>
      <point x="326" y="624"/>
      <point x="347" y="618" type="curve"/>
      <point x="357" y="611"/>
      <point x="369" y="605"/>
      <point x="379" y="599" type="curve" smooth="yes"/>
      <point x="387" y="595"/>
      <point x="392" y="589"/>
      <point x="398" y="583" type="curve"/>
      <point x="406" y="580"/>
      <point x="411" y="573"/>
      <point x="418" y="569" type="curve"/>
      <point x="430" y="558"/>
      <point x="442" y="547"/>
      <point x="452" y="534" type="curve" smooth="yes"/>
      <point x="462" y="522"/>
      <point x="471" y="508"/>
      <point x="478" y="493" type="curve"/>
      <point x="489" y="482"/>
      <point x="494" y="464"/>
      <point x="502" y="449" type="curve"/>
      <point x="505" y="435"/>
      <point x="507" y="422"/>
      <point x="511" y="410" type="curve" smooth="yes"/>
      <point x="519" y="377"/>
      <point x="524" y="338"/>
      <point x="516" y="303" type="curve" smooth="yes"/>
      <point x="509" y="281"/>
      <point x="504" y="256"/>
      <point x="494" y="236" type="curve"/>
      <point x="487" y="215"/>
      <point x="473" y="200"/>
      <point x="464" y="180" type="curve"/>
      <point x="451" y="167"/>
      <point x="440" y="153"/>
      <point x="428" y="140" type="curve" smooth="yes"/>
      <point x="411" y="125"/>
      <point x="395" y="108"/>
      <point x="373" y="98" type="curve"/>
      <point x="366" y="96"/>
      <point x="361" y="94"/>
      <point x="357" y="90" type="curve"/>
      <point x="346" y="86"/>
      <point x="336" y="80"/>
      <point x="327" y="74" type="curve"/>
      <point x="313" y="70"/>
      <point x="297" y="67"/>
      <point x="280" y="63" type="curve" smooth="yes"/>
      <point x="246" y="56"/>
      <point x="199" y="56"/>
      <point x="158" y="58" type="curve" smooth="yes"/>
      <point x="147" y="59"/>
      <point x="133" y="53"/>
      <point x="121" y="60" type="curve"/>
      <point x="116" y="69"/>
      <point x="119" y="80"/>
      <point x="119" y="90" type="curve" smooth="yes"/>
      <point x="119" y="95"/>
      <point x="117" y="100"/>
      <point x="117" y="106" type="curve" smooth="yes"/>
      <point x="117" y="119"/>
      <point x="117" y="136"/>
      <point x="117" y="153" type="curve" smooth="yes"/>
    </contour>
  </outline>
</glyph>
<glyph name="E" format="1">
  <advance width="452"/>
  <unicode hex="0045"/>
  <outline>
    <contour>
      <point x="121" y="202" type="line" smooth="yes"/>
      <point x="121" y="226"/>
      <point x="119" y="251"/>
      <point x="120" y="276" type="curve" smooth="yes"/>
      <point x="120" y="286"/>
      <point x="122" y="295"/>
      <point x="121" y="306" type="curve"/>
      <point x="117" y="322"/>
      <point x="118" y="341"/>
      <point x="121" y="358" type="curve"/>
      <point x="138" y="365"/>
      <point x="161" y="356"/>
      <point x="179" y="361" type="curve"/>
      <point x="213" y="354"/>
      <point x="258" y="360"/>
      <point x="290" y="355" type="curve"/>
      <point x="321" y="359"/>
      <point x="351" y="356"/>
      <point x="378" y="359" type="curve"/>
      <point x="394" y="370" type="line"/>
      <point x="400" y="381"/>
      <point x="400" y="399"/>
      <point x="394" y="410" type="curve"/>
      <point x="366" y="430"/>
      <point x="321" y="418"/>
      <point x="283" y="421" type="curve"/>
      <point x="273" y="416"/>
      <point x="257" y="418"/>
      <point x="242" y="418" type="curve"/>
      <point x="225" y="423"/>
      <point x="204" y="419"/>
      <point x="189" y="415" type="curve"/>
      <point x="169" y="423"/>
      <point x="136" y="411"/>
      <point x="121" y="421" type="curve"/>
      <point x="116" y="432"/>
      <point x="124" y="444"/>
      <point x="124" y="455" type="curve"/>
      <point x="126" y="465"/>
      <point x="117" y="465"/>
      <point x="118" y="474" type="curve" smooth="yes"/>
      <point x="122" y="491"/>
      <point x="118" y="507"/>
      <point x="118" y="523" type="curve" smooth="yes"/>
      <point x="118" y="531"/>
      <point x="120" y="539"/>
      <point x="120" y="547" type="curve" smooth="yes"/>
      <point x="119" y="555"/>
      <point x="118" y="562"/>
      <point x="118" y="569" type="curve" smooth="yes"/>
      <point x="118" y="579"/>
      <point x="123" y="588"/>
      <point x="123" y="597" type="curve" smooth="yes"/>
      <point x="123" y="608"/>
      <point x="118" y="618"/>
      <point x="120" y="629" type="curve"/>
      <point x="123" y="633"/>
      <point x="130" y="635"/>
      <point x="135" y="637" type="curve"/>
      <point x="142" y="638"/>
      <point x="146" y="642"/>
      <point x="154" y="641" type="curve" smooth="yes"/>
      <point x="164" y="641"/>
      <point x="171" y="638"/>
      <point x="179" y="637" type="curve"/>
      <point x="189" y="641"/>
      <point x="204" y="639"/>
      <point x="214" y="643" type="curve"/>
      <point x="243" y="643"/>
      <point x="273" y="642"/>
      <point x="296" y="645" type="curve"/>
      <point x="300" y="641"/>
      <point x="308" y="642"/>
      <point x="313" y="640" type="curve"/>
      <point x="332" y="646"/>
      <point x="350" y="641"/>
      <point x="372" y="641" type="curve"/>
      <point x="380" y="647"/>
      <point x="391" y="648"/>
      <point x="395" y="659" type="curve" smooth="yes"/>
      <point x="400" y="670"/>
      <point x="394" y="681"/>
      <point x="391" y="694" type="curve"/>
      <point x="383" y="695"/>
      <point x="379" y="701"/>
      <point x="369" y="700" type="curve" smooth="yes"/>
      <point x="338" y="698"/>
      <point x="307" y="699"/>
      <point x="276" y="698" type="curve" smooth="yes"/>
      <point x="259" y="698"/>
      <point x="243" y="701"/>
      <point x="227" y="700" type="curve" smooth="yes"/>
      <point x="210" y="699"/>
      <point x="194" y="696"/>
      <point x="178" y="697" type="curve" smooth="yes"/>
      <point x="160" y="698"/>
      <point x="142" y="701"/>
      <point x="124" y="701" type="curve"/>
      <point x="110" y="694"/>
      <point x="87" y="704"/>
      <point x="74" y="697" type="curve"/>
      <point x="70" y="693"/>
      <point x="71" y="689"/>
      <point x="71" y="684" type="curve" smooth="yes"/>
      <point x="68" y="662"/>
      <point x="69" y="637"/>
      <point x="69" y="618" type="curve" smooth="yes"/>
      <point x="69" y="612"/>
      <point x="68" y="606"/>
      <point x="67" y="601" type="curve"/>
      <point x="67" y="588"/>
      <point x="69" y="575"/>
      <point x="69" y="563" type="curve" smooth="yes"/>
      <point x="69" y="541"/>
      <point x="66" y="519"/>
      <point x="69" y="501" type="curve"/>
      <point x="63" y="482"/>
      <point x="68" y="453"/>
      <point x="67" y="435" type="curve" smooth="yes"/>
      <point x="67" y="430"/>
      <point x="66" y="426"/>
      <point x="66" y="421" type="curve" smooth="yes"/>
      <point x="66" y="413"/>
      <point x="68" y="405"/>
      <point x="69" y="397" type="curve" smooth="yes"/>
      <point x="70" y="382"/>
      <point x="69" y="368"/>
      <point x="69" y="356" type="curve" smooth="yes"/>
      <point x="69" y="349"/>
      <point x="71" y="343"/>
      <point x="71" y="336" type="curve" smooth="yes"/>
      <point x="70" y="323"/>
      <point x="69" y="310"/>
      <point x="69" y="298" type="curve" smooth="yes"/>
      <point x="70" y="278"/>
      <point x="73" y="258"/>
      <point x="67" y="244" type="curve"/>
      <point x="67" y="232"/>
      <point x="75" y="211"/>
      <point x="67" y="197" type="curve"/>
      <point x="73" y="187"/>
      <point x="68" y="175"/>
      <point x="69" y="161" type="curve"/>
      <point x="68" y="153"/>
      <point x="74" y="150"/>
      <point x="72" y="142" type="curve"/>
      <point x="70" y="100"/>
      <point x="62" y="60"/>
      <point x="66" y="20" type="curve"/>
      <point x="73" y="7"/>
      <point x="93" y="7"/>
      <point x="108" y="2" type="curve"/>
      <point x="119" y="3"/>
      <point x="131" y="7"/>
      <point x="142" y="8" type="curve" smooth="yes"/>
      <point x="158" y="9"/>
      <point x="177" y="6"/>
      <point x="195" y="6" type="curve" smooth="yes"/>
      <point x="217" y="7"/>
      <point x="238" y="8"/>
      <point x="260" y="5" type="curve"/>
      <point x="303" y="12"/>
      <point x="351" y="1"/>
      <point x="391" y="14" type="curve"/>
      <point x="397" y="20"/>
      <point x="402" y="30"/>
      <point x="402" y="41" type="curve" smooth="yes"/>
      <point x="401" y="53"/>
      <point x="395" y="64"/>
      <point x="387" y="69" type="curve"/>
      <point x="378" y="71"/>
      <point x="369" y="69"/>
      <point x="359" y="69" type="curve" smooth="yes"/>
      <point x="350" y="70"/>
      <point x="340" y="72"/>
      <point x="331" y="72" type="curve" smooth="yes"/>
      <point x="322" y="72"/>
      <point x="313" y="71"/>
      <point x="304" y="71" type="curve" smooth="yes"/>
      <point x="297" y="71"/>
      <point x="291" y="74"/>
      <point x="283" y="74" type="curve" smooth="yes"/>
      <point x="276" y="74"/>
      <point x="267" y="72"/>
      <point x="260" y="72" type="curve" smooth="yes"/>
      <point x="241" y="73"/>
      <point x="226" y="75"/>
      <point x="211" y="71" type="curve"/>
      <point x="187" y="81"/>
      <point x="164" y="62"/>
      <point x="142" y="72" type="curve"/>
      <point x="134" y="73"/>
      <point x="126" y="68"/>
      <point x="121" y="74" type="curve"/>
    </contour>
    <contour>
      <point x="245" y="0" type="move" name="bottom"/>
    </contour>
    <contour>
      <point x="344" y="10" type="move" name="ogonek"/>
    </contour>
    <contour>
      <point x="225" y="695" type="move" name="top"/>
    </contour>
    <contour>
      <point x="22" y="695" type="move" name="topleft"/>
    </contour>
  </outline>
</glyph>
<glyph name="G" format="1">
  <advance width="781"/>
  <unicode hex="0047"/>
  <outline>
    <contour>
      <point x="347" y="701" type="line" smooth="yes"/>
      <point x="331" y="699"/>
      <point x="316" y="692"/>
      <point x="301" y="692" type="curve"/>
      <point x="290" y="685"/>
      <point x="273" y="684"/>
      <point x="262" y="676" type="curve"/>
      <point x="248" y="671"/>
      <point x="237" y="664"/>
      <point x="224" y="659" type="curve"/>
      <point x="212" y="647"/>
      <point x="196" y="639"/>
      <point x="183" y="629" type="curve" smooth="yes"/>
      <point x="169" y="618"/>
      <point x="159" y="604"/>
      <point x="145" y="594" type="curve"/>
      <point x="133" y="576"/>
      <point x="119" y="560"/>
      <point x="106" y="544" type="curve"/>
      <point x="101" y="536"/>
      <point x="98" y="527"/>
      <point x="93" y="520" type="curve"/>
      <point x="86" y="515"/>
      <point x="87" y="502"/>
      <point x="79" y="498" type="curve"/>
      <point x="74" y="476"/>
      <point x="67" y="455"/>
      <point x="60" y="435" type="curve" smooth="yes"/>
      <point x="58" y="427"/>
      <point x="58" y="418"/>
      <point x="55" y="411" type="curve"/>
      <point x="55" y="397"/>
      <point x="54" y="381"/>
      <point x="54" y="366" type="curve" smooth="yes"/>
      <point x="53" y="349"/>
      <point x="50" y="333"/>
      <point x="50" y="317" type="curve" smooth="yes"/>
      <point x="51" y="299"/>
      <point x="58" y="283"/>
      <point x="55" y="268" type="curve"/>
      <point x="65" y="260"/>
      <point x="62" y="241"/>
      <point x="71" y="232" type="curve"/>
      <point x="72" y="215"/>
      <point x="80" y="206"/>
      <point x="82" y="191" type="curve"/>
      <point x="88" y="184"/>
      <point x="91" y="174"/>
      <point x="98" y="167" type="curve"/>
      <point x="105" y="153"/>
      <point x="112" y="138"/>
      <point x="124" y="129" type="curve"/>
      <point x="128" y="124"/>
      <point x="132" y="118"/>
      <point x="137" y="115" type="curve" smooth="yes"/>
      <point x="142" y="111"/>
      <point x="146" y="106"/>
      <point x="148" y="99" type="curve"/>
      <point x="152" y="94"/>
      <point x="158" y="91"/>
      <point x="161" y="85" type="curve"/>
      <point x="181" y="72"/>
      <point x="202" y="59"/>
      <point x="219" y="42" type="curve"/>
      <point x="226" y="41"/>
      <point x="231" y="39"/>
      <point x="236" y="36" type="curve"/>
      <point x="240" y="32"/>
      <point x="248" y="32"/>
      <point x="251" y="27" type="curve"/>
      <point x="266" y="23"/>
      <point x="280" y="18"/>
      <point x="292" y="11" type="curve"/>
      <point x="320" y="5"/>
      <point x="349" y="1"/>
      <point x="377" y="-5" type="curve"/>
      <point x="406" y="-1"/>
      <point x="449" y="-5"/>
      <point x="474" y="-2" type="curve"/>
      <point x="483" y="1"/>
      <point x="488" y="6"/>
      <point x="496" y="8" type="curve"/>
      <point x="499" y="11"/>
      <point x="507" y="9"/>
      <point x="512" y="9" type="curve"/>
      <point x="520" y="16"/>
      <point x="531" y="18"/>
      <point x="541" y="22" type="curve" smooth="yes"/>
      <point x="550" y="26"/>
      <point x="559" y="32"/>
      <point x="569" y="35" type="curve"/>
      <point x="583" y="48"/>
      <point x="605" y="54"/>
      <point x="619" y="68" type="curve"/>
      <point x="626" y="68"/>
      <point x="626" y="75"/>
      <point x="630" y="77" type="curve"/>
      <point x="632" y="82"/>
      <point x="640" y="82"/>
      <point x="642" y="87" type="curve" smooth="yes"/>
      <point x="646" y="96"/>
      <point x="655" y="101"/>
      <point x="660" y="109" type="curve" smooth="yes"/>
      <point x="665" y="118"/>
      <point x="673" y="123"/>
      <point x="678" y="132" type="curve"/>
      <point x="686" y="138"/>
      <point x="692" y="147"/>
      <point x="698" y="154" type="curve"/>
      <point x="698" y="157"/>
      <point x="699" y="158"/>
      <point x="701" y="159" type="curve"/>
      <point x="707" y="176"/>
      <point x="715" y="190"/>
      <point x="723" y="205" type="curve"/>
      <point x="728" y="226"/>
      <point x="730" y="250"/>
      <point x="731" y="274" type="curve"/>
      <point x="726" y="294"/>
      <point x="736" y="330"/>
      <point x="723" y="344" type="curve"/>
      <point x="709" y="347"/>
      <point x="697" y="344"/>
      <point x="682" y="342" type="curve"/>
      <point x="667" y="343"/>
      <point x="647" y="345"/>
      <point x="632" y="342" type="curve"/>
      <point x="614" y="346"/>
      <point x="596" y="343"/>
      <point x="578" y="347" type="curve"/>
      <point x="571" y="347"/>
      <point x="569" y="342"/>
      <point x="561" y="342" type="curve"/>
      <point x="532" y="351"/>
      <point x="498" y="340"/>
      <point x="467" y="347" type="curve"/>
      <point x="460" y="342"/>
      <point x="449" y="342"/>
      <point x="443" y="337" type="curve"/>
      <point x="441" y="325"/>
      <point x="435" y="308"/>
      <point x="441" y="296" type="curve"/>
      <point x="456" y="286"/>
      <point x="488" y="284"/>
      <point x="508" y="292" type="curve"/>
      <point x="530" y="287"/>
      <point x="563" y="293"/>
      <point x="586" y="288" type="curve"/>
      <point x="613" y="295"/>
      <point x="655" y="295"/>
      <point x="684" y="293" type="curve"/>
      <point x="686" y="283"/>
      <point x="682" y="265"/>
      <point x="686" y="254" type="curve"/>
      <point x="681" y="246"/>
      <point x="681" y="233"/>
      <point x="676" y="225" type="curve"/>
      <point x="674" y="215"/>
      <point x="668" y="208"/>
      <point x="667" y="197" type="curve"/>
      <point x="660" y="189"/>
      <point x="656" y="179"/>
      <point x="648" y="172" type="curve"/>
      <point x="642" y="163"/>
      <point x="633" y="157"/>
      <point x="627" y="148" type="curve" smooth="yes"/>
      <point x="624" y="144"/>
      <point x="621" y="140"/>
      <point x="616" y="137" type="curve" smooth="yes"/>
      <point x="612" y="134"/>
      <point x="610" y="128"/>
      <point x="605" y="126" type="curve"/>
      <point x="597" y="118" type="line" smooth="yes"/>
      <point x="596" y="117"/>
      <point x="594" y="118"/>
      <point x="593" y="117" type="curve" smooth="yes"/>
      <point x="582" y="106" type="line"/>
      <point x="572" y="106"/>
      <point x="567" y="101"/>
      <point x="561" y="98" type="curve" smooth="yes"/>
      <point x="555" y="94"/>
      <point x="546" y="93"/>
      <point x="544" y="87" type="curve"/>
      <point x="527" y="84"/>
      <point x="518" y="74"/>
      <point x="503" y="69" type="curve"/>
      <point x="488" y="67"/>
      <point x="475" y="63"/>
      <point x="462" y="58" type="curve"/>
      <point x="438" y="56"/>
      <point x="419" y="51"/>
      <point x="392" y="52" type="curve"/>
      <point x="383" y="54"/>
      <point x="374" y="56"/>
      <point x="361" y="55" type="curve"/>
      <point x="342" y="61"/>
      <point x="322" y="64"/>
      <point x="303" y="69" type="curve" smooth="yes"/>
      <point x="283" y="75"/>
      <point x="266" y="83"/>
      <point x="249" y="90" type="curve"/>
      <point x="244" y="93" type="line"/>
      <point x="241" y="99" type="line"/>
      <point x="241" y="100"/>
      <point x="239" y="99"/>
      <point x="238" y="99" type="curve" smooth="yes"/>
      <point x="237" y="99"/>
      <point x="237" y="102"/>
      <point x="236" y="102" type="curve"/>
      <point x="235" y="103"/>
      <point x="232" y="104"/>
      <point x="230" y="106" type="curve" smooth="yes"/>
      <point x="223" y="111"/>
      <point x="217" y="117"/>
      <point x="208" y="120" type="curve"/>
      <point x="200" y="130"/>
      <point x="190" y="137"/>
      <point x="181" y="147" type="curve" smooth="yes"/>
      <point x="174" y="157"/>
      <point x="161" y="163"/>
      <point x="156" y="176" type="curve"/>
      <point x="151" y="180"/>
      <point x="147" y="185"/>
      <point x="145" y="192" type="curve" smooth="yes"/>
      <point x="142" y="198"/>
      <point x="136" y="202"/>
      <point x="134" y="210" type="curve"/>
      <point x="113" y="244" type="line"/>
      <point x="113" y="255"/>
      <point x="108" y="262"/>
      <point x="106" y="271" type="curve"/>
      <point x="107" y="284"/>
      <point x="100" y="289"/>
      <point x="99" y="299" type="curve"/>
      <point x="100" y="316"/>
      <point x="95" y="322"/>
      <point x="98" y="337" type="curve"/>
      <point x="94" y="348"/>
      <point x="97" y="365"/>
      <point x="96" y="378" type="curve"/>
      <point x="101" y="389"/>
      <point x="101" y="404"/>
      <point x="102" y="418" type="curve"/>
      <point x="109" y="428"/>
      <point x="110" y="444"/>
      <point x="120" y="451" type="curve"/>
      <point x="120" y="457"/>
      <point x="119" y="464"/>
      <point x="121" y="468" type="curve"/>
      <point x="131" y="480"/>
      <point x="138" y="494"/>
      <point x="145" y="509" type="curve"/>
      <point x="156" y="518"/>
      <point x="161" y="534"/>
      <point x="173" y="542" type="curve"/>
      <point x="178" y="547"/>
      <point x="181" y="554"/>
      <point x="188" y="558" type="curve"/>
      <point x="191" y="565"/>
      <point x="195" y="572"/>
      <point x="200" y="577" type="curve" smooth="yes"/>
      <point x="202" y="579"/>
      <point x="205" y="579"/>
      <point x="208" y="582" type="curve" smooth="yes"/>
      <point x="214" y="588" type="line"/>
      <point x="217" y="590"/>
      <point x="221" y="589"/>
      <point x="224" y="591" type="curve" smooth="yes"/>
      <point x="226" y="592"/>
      <point x="228" y="596"/>
      <point x="230" y="597" type="curve" smooth="yes"/>
      <point x="235" y="599" type="line"/>
      <point x="238" y="602" type="line"/>
      <point x="247" y="608"/>
      <point x="254" y="611"/>
      <point x="260" y="618" type="curve"/>
      <point x="267" y="618"/>
      <point x="270" y="622"/>
      <point x="276" y="623" type="curve" smooth="yes"/>
      <point x="283" y="623"/>
      <point x="282" y="631"/>
      <point x="290" y="630" type="curve"/>
      <point x="297" y="633"/>
      <point x="303" y="634"/>
      <point x="310" y="637" type="curve" smooth="yes"/>
      <point x="317" y="639"/>
      <point x="323" y="643"/>
      <point x="331" y="645" type="curve" smooth="yes"/>
      <point x="339" y="646"/>
      <point x="347" y="645"/>
      <point x="355" y="646" type="curve" smooth="yes"/>
      <point x="360" y="647"/>
      <point x="366" y="650"/>
      <point x="370" y="651" type="curve" smooth="yes"/>
      <point x="388" y="656" type="line"/>
      <point x="402" y="653"/>
      <point x="418" y="654"/>
      <point x="433" y="653" type="curve"/>
      <point x="447" y="646"/>
      <point x="465" y="646"/>
      <point x="482" y="643" type="curve"/>
      <point x="502" y="633"/>
      <point x="521" y="623"/>
      <point x="544" y="616" type="curve"/>
      <point x="549" y="612"/>
      <point x="553" y="608"/>
      <point x="560" y="605" type="curve" smooth="yes"/>
      <point x="566" y="603"/>
      <point x="568" y="596"/>
      <point x="575" y="594" type="curve" smooth="yes"/>
      <point x="582" y="592"/>
      <point x="585" y="586"/>
      <point x="589" y="582" type="curve" smooth="yes"/>
      <point x="594" y="577"/>
      <point x="601" y="574"/>
      <point x="607" y="571" type="curve"/>
      <point x="608" y="562"/>
      <point x="618" y="563"/>
      <point x="619" y="555" type="curve"/>
      <point x="634" y="541" type="line" smooth="yes"/>
      <point x="644" y="532"/>
      <point x="649" y="518"/>
      <point x="664" y="514" type="curve"/>
      <point x="683" y="514"/>
      <point x="693" y="523"/>
      <point x="701" y="534" type="curve"/>
      <point x="699" y="549"/>
      <point x="687" y="554"/>
      <point x="679" y="564" type="curve" smooth="yes"/>
      <point x="674" y="572"/>
      <point x="669" y="580"/>
      <point x="665" y="588" type="curve"/>
      <point x="655" y="595"/>
      <point x="646" y="604"/>
      <point x="640" y="615" type="curve"/>
      <point x="623" y="625"/>
      <point x="609" y="637"/>
      <point x="594" y="649" type="curve"/>
      <point x="585" y="652"/>
      <point x="579" y="657"/>
      <point x="571" y="660" type="curve"/>
      <point x="566" y="668"/>
      <point x="554" y="668"/>
      <point x="549" y="675" type="curve"/>
      <point x="532" y="676"/>
      <point x="522" y="684"/>
      <point x="511" y="690" type="curve"/>
      <point x="496" y="690"/>
      <point x="488" y="696"/>
      <point x="476" y="698" type="curve" smooth="yes"/>
      <point x="464" y="701"/>
      <point x="450" y="702"/>
      <point x="438" y="705" type="curve"/>
      <point x="414" y="707"/>
      <point x="391" y="705"/>
      <point x="372" y="703" type="curve" smooth="yes"/>
    </contour>
    <contour>
      <point x="401" y="0" type="move" name="bottom"/>
    </contour>
    <contour>
      <point x="401" y="695" type="move" name="top"/>
    </contour>
  </outline>
</glyph>
<glyph name="H" format="2">
  <advance width="636"/>
  <unicode hex="0048"/>
  <anchor x="320" y="0" name="bottom"/>
  <anchor x="320" y="348" name="center"/>
  <anchor x="320" y="695" name="top"/>
  <anchor x="42" y="695" name="topleft"/>
  <outline>
    <contour>
      <point x="114" y="627" type="line" smooth="yes"/>
      <point x="114" y="631"/>
      <point x="112" y="636"/>
      <point x="112" y="640" type="curve" smooth="yes"/>
      <point x="113" y="659"/>
      <point x="121" y="680"/>
      <point x="108" y="694" type="curve"/>
      <point x="99" y="698"/>
      <point x="78" y="699"/>
      <point x="70" y="694" type="curve"/>
      <point x="64" y="666"/>
      <point x="66" y="622"/>
      <point x="68" y="591" type="curve" smooth="yes"/>
      <point x="68" y="584"/>
      <point x="65" y="581"/>
      <point x="65" y="574" type="curve"/>
      <point x="70" y="553"/>
      <point x="68" y="528"/>
      <point x="68" y="505" type="curve" smooth="yes"/>
      <point x="68" y="469"/>
      <point x="69" y="433"/>
      <point x="68" y="402" type="curve" smooth="yes"/>
      <point x="68" y="397"/>
      <point x="70" y="392"/>
      <point x="70" y="386" type="curve"/>
      <point x="70" y="386"/>
      <point x="68" y="382"/>
      <point x="68" y="380" type="curve" smooth="yes"/>
      <point x="68" y="367"/>
      <point x="70" y="349"/>
      <point x="70" y="339" type="curve" smooth="yes"/>
      <point x="69" y="322"/>
      <point x="67" y="307"/>
      <point x="68" y="289" type="curve" smooth="yes"/>
      <point x="69" y="280"/>
      <point x="71" y="272"/>
      <point x="71" y="263" type="curve" smooth="yes"/>
      <point x="73" y="233"/>
      <point x="67" y="205"/>
      <point x="71" y="180" type="curve"/>
      <point x="70" y="174"/>
      <point x="70" y="168"/>
      <point x="68" y="162" type="curve"/>
      <point x="71" y="139"/>
      <point x="70" y="111"/>
      <point x="70" y="88" type="curve" smooth="yes"/>
      <point x="70" y="65" type="line" smooth="yes"/>
      <point x="69" y="50"/>
      <point x="63" y="37"/>
      <point x="67" y="25" type="curve" smooth="yes"/>
      <point x="68" y="20"/>
      <point x="73" y="17"/>
      <point x="75" y="13" type="curve"/>
      <point x="88" y="10"/>
      <point x="107" y="7"/>
      <point x="116" y="16" type="curve"/>
      <point x="121" y="31"/>
      <point x="115" y="52"/>
      <point x="117" y="73" type="curve"/>
      <point x="108" y="96"/>
      <point x="116" y="123"/>
      <point x="117" y="150" type="curve" smooth="yes"/>
      <point x="118" y="165"/>
      <point x="114" y="180"/>
      <point x="117" y="194" type="curve"/>
      <point x="116" y="200"/>
      <point x="113" y="202"/>
      <point x="114" y="210" type="curve" smooth="yes"/>
      <point x="116" y="233"/>
      <point x="112" y="257"/>
      <point x="112" y="282" type="curve" smooth="yes"/>
      <point x="112" y="296"/>
      <point x="115" y="312"/>
      <point x="116" y="325" type="curve" smooth="yes"/>
      <point x="116" y="338"/>
      <point x="111" y="353"/>
      <point x="122" y="361" type="curve"/>
      <point x="132" y="362"/>
      <point x="142" y="359"/>
      <point x="152" y="358" type="curve" smooth="yes"/>
      <point x="169" y="357"/>
      <point x="185" y="360"/>
      <point x="202" y="359" type="curve" smooth="yes"/>
      <point x="325" y="359" type="line"/>
      <point x="332" y="360"/>
      <point x="338" y="357"/>
      <point x="344" y="358" type="curve" smooth="yes"/>
      <point x="350" y="358"/>
      <point x="356" y="361"/>
      <point x="363" y="361" type="curve" smooth="yes"/>
      <point x="377" y="361"/>
      <point x="393" y="359"/>
      <point x="407" y="359" type="curve" smooth="yes"/>
      <point x="422" y="359"/>
      <point x="436" y="361"/>
      <point x="450" y="358" type="curve"/>
      <point x="459" y="362"/>
      <point x="472" y="361"/>
      <point x="484" y="361" type="curve" smooth="yes"/>
      <point x="490" y="361"/>
      <point x="496" y="363"/>
      <point x="502" y="363" type="curve" smooth="yes"/>
      <point x="507" y="362"/>
      <point x="511" y="359"/>
      <point x="516" y="358" type="curve"/>
      <point x="523" y="346"/>
      <point x="519" y="333"/>
      <point x="519" y="320" type="curve" smooth="yes"/>
      <point x="519" y="315"/>
      <point x="521" y="309"/>
      <point x="521" y="303" type="curve" smooth="yes"/>
      <point x="521" y="279" type="line"/>
      <point x="517" y="269"/>
      <point x="519" y="253"/>
      <point x="516" y="241" type="curve"/>
      <point x="517" y="233"/>
      <point x="522" y="226"/>
      <point x="522" y="216" type="curve"/>
      <point x="523" y="210"/>
      <point x="521" y="202"/>
      <point x="521" y="196" type="curve" smooth="yes"/>
      <point x="520" y="180"/>
      <point x="519" y="169"/>
      <point x="522" y="158" type="curve"/>
      <point x="517" y="140"/>
      <point x="522" y="126"/>
      <point x="519" y="106" type="curve" smooth="yes"/>
      <point x="518" y="98"/>
      <point x="523" y="97"/>
      <point x="522" y="90" type="curve" smooth="yes"/>
      <point x="520" y="79"/>
      <point x="522" y="67"/>
      <point x="521" y="54" type="curve" smooth="yes"/>
      <point x="520" y="41"/>
      <point x="514" y="28"/>
      <point x="519" y="19" type="curve"/>
      <point x="523" y="15"/>
      <point x="532" y="10"/>
      <point x="540" y="14" type="curve"/>
      <point x="550" y="14"/>
      <point x="561" y="13"/>
      <point x="566" y="17" type="curve"/>
      <point x="576" y="31"/>
      <point x="569" y="55"/>
      <point x="566" y="71" type="curve" smooth="yes"/>
      <point x="563" y="98"/>
      <point x="567" y="125"/>
      <point x="566" y="151" type="curve" smooth="yes"/>
      <point x="566" y="162"/>
      <point x="565" y="172"/>
      <point x="565" y="181" type="curve" smooth="yes"/>
      <point x="565" y="194"/>
      <point x="568" y="213"/>
      <point x="568" y="229" type="curve" smooth="yes"/>
      <point x="568" y="242"/>
      <point x="565" y="255"/>
      <point x="565" y="268" type="curve" smooth="yes"/>
      <point x="564" y="278"/>
      <point x="566" y="288"/>
      <point x="566" y="298" type="curve" smooth="yes"/>
      <point x="566" y="320"/>
      <point x="564" y="343"/>
      <point x="563" y="366" type="curve"/>
      <point x="566" y="377"/>
      <point x="572" y="385"/>
      <point x="571" y="400" type="curve"/>
      <point x="569" y="405"/>
      <point x="566" y="409"/>
      <point x="563" y="413" type="curve"/>
      <point x="562" y="421"/>
      <point x="568" y="423"/>
      <point x="566" y="432" type="curve" smooth="yes"/>
      <point x="562" y="447"/>
      <point x="566" y="464"/>
      <point x="565" y="481" type="curve" smooth="yes"/>
      <point x="563" y="521"/>
      <point x="565" y="567"/>
      <point x="566" y="609" type="curve"/>
      <point x="559" y="634"/>
      <point x="570" y="669"/>
      <point x="559" y="694" type="curve"/>
      <point x="550" y="700"/>
      <point x="532" y="701"/>
      <point x="522" y="695" type="curve"/>
      <point x="515" y="685"/>
      <point x="516" y="670"/>
      <point x="516" y="656" type="curve" smooth="yes"/>
      <point x="516" y="624"/>
      <point x="515" y="590"/>
      <point x="516" y="560" type="curve"/>
      <point x="521" y="540"/>
      <point x="518" y="514"/>
      <point x="518" y="492" type="curve" smooth="yes"/>
      <point x="518" y="482"/>
      <point x="519" y="473"/>
      <point x="519" y="464" type="curve" smooth="yes"/>
      <point x="519" y="442"/>
      <point x="521" y="422"/>
      <point x="513" y="410" type="curve"/>
      <point x="483" y="404"/>
      <point x="448" y="408"/>
      <point x="417" y="408" type="curve"/>
      <point x="409" y="409"/>
      <point x="406" y="414"/>
      <point x="398" y="415" type="curve"/>
      <point x="392" y="414"/>
      <point x="390" y="409"/>
      <point x="384" y="410" type="curve"/>
      <point x="377" y="413"/>
      <point x="363" y="412"/>
      <point x="357" y="410" type="curve"/>
      <point x="345" y="416"/>
      <point x="327" y="412"/>
      <point x="316" y="408" type="curve"/>
      <point x="308" y="410"/>
      <point x="303" y="414"/>
      <point x="292" y="413" type="curve" smooth="yes"/>
      <point x="274" y="410"/>
      <point x="253" y="409"/>
      <point x="234" y="412" type="curve"/>
      <point x="225" y="409"/>
      <point x="213" y="408"/>
      <point x="202" y="407" type="curve"/>
      <point x="194" y="405"/>
      <point x="194" y="412"/>
      <point x="187" y="412" type="curve"/>
      <point x="171" y="409"/>
      <point x="154" y="402"/>
      <point x="136" y="407" type="curve"/>
      <point x="133" y="409"/>
      <point x="125" y="403"/>
      <point x="120" y="407" type="curve"/>
      <point x="111" y="420"/>
      <point x="112" y="450"/>
      <point x="116" y="468" type="curve"/>
      <point x="110" y="486"/>
      <point x="114" y="502"/>
      <point x="114" y="519" type="curve" smooth="yes"/>
      <point x="114" y="528"/>
      <point x="111" y="538"/>
      <point x="116" y="547" type="curve"/>
      <point x="111" y="561"/>
      <point x="115" y="576"/>
      <point x="114" y="593" type="curve" smooth="yes"/>
    </contour>
  </outline>
</glyph>
<glyph name="M" format="2">
  <advance width="787"/>
  <unicode hex="004D"/>
  <anchor x="404" y="0" name="bottom"/>
  <anchor x="404" y="695" name="top"/>
  <outline>
    <contour>
      <point x="762" y="30" type="line"/>
      <point x="760" y="37"/>
      <point x="759" y="46"/>
      <point x="757" y="54" type="curve"/>
      <point x="759" y="64"/>
      <point x="758" y="68"/>
      <point x="759" y="80" type="curve"/>
      <point x="756" y="99"/>
      <point x="753" y="120"/>
      <point x="754" y="139" type="curve"/>
      <point x="752" y="156"/>
      <point x="747" y="179"/>
      <point x="749" y="197" type="curve"/>
      <point x="741" y="216"/>
      <point x="746" y="249"/>
      <point x="738" y="268" type="curve"/>
      <point x="737" y="293"/>
      <point x="734" y="318"/>
      <point x="732" y="342" type="curve" smooth="yes"/>
      <point x="730" y="367"/>
      <point x="726" y="391"/>
      <point x="726" y="415" type="curve"/>
      <point x="723" y="419"/>
      <point x="723" y="425"/>
      <point x="721" y="430" type="curve"/>
      <point x="723" y="446"/>
      <point x="718" y="463"/>
      <point x="716" y="481" type="curve" smooth="yes"/>
      <point x="715" y="499"/>
      <point x="714" y="517"/>
      <point x="710" y="533" type="curve"/>
      <point x="710" y="552" type="line"/>
      <point x="705" y="573"/>
      <point x="703" y="596"/>
      <point x="701" y="620" type="curve" smooth="yes"/>
      <point x="698" y="650"/>
      <point x="694" y="677"/>
      <point x="693" y="706" type="curve"/>
      <point x="692" y="711"/>
      <point x="692" y="717"/>
      <point x="686" y="717" type="curve"/>
      <point x="676" y="719"/>
      <point x="676" y="709"/>
      <point x="671" y="706" type="curve"/>
      <point x="669" y="701"/>
      <point x="665" y="698"/>
      <point x="664" y="695" type="curve" smooth="yes"/>
      <point x="662" y="688"/>
      <point x="663" y="685"/>
      <point x="661" y="679" type="curve"/>
      <point x="656" y="672" type="line"/>
      <point x="654" y="666"/>
      <point x="653" y="660"/>
      <point x="650" y="654" type="curve" smooth="yes"/>
      <point x="642" y="637" type="line"/>
      <point x="642" y="636"/>
      <point x="643" y="634"/>
      <point x="642" y="632" type="curve"/>
      <point x="642" y="632"/>
      <point x="639" y="630"/>
      <point x="639" y="629" type="curve"/>
      <point x="636" y="620" type="line" smooth="yes"/>
      <point x="628" y="601"/>
      <point x="619" y="585"/>
      <point x="611" y="569" type="curve"/>
      <point x="607" y="544"/>
      <point x="593" y="530"/>
      <point x="586" y="509" type="curve"/>
      <point x="585" y="503"/>
      <point x="581" y="500"/>
      <point x="579" y="495" type="curve" smooth="yes"/>
      <point x="577" y="490"/>
      <point x="579" y="481"/>
      <point x="573" y="479" type="curve"/>
      <point x="570" y="468"/>
      <point x="565" y="459"/>
      <point x="559" y="451" type="curve"/>
      <point x="555" y="436"/>
      <point x="550" y="423"/>
      <point x="541" y="413" type="curve"/>
      <point x="536" y="389"/>
      <point x="521" y="375"/>
      <point x="518" y="348" type="curve"/>
      <point x="509" y="340"/>
      <point x="505" y="327"/>
      <point x="499" y="315" type="curve" smooth="yes"/>
      <point x="491" y="299"/>
      <point x="486" y="274"/>
      <point x="474" y="263" type="curve"/>
      <point x="473" y="246"/>
      <point x="462" y="239"/>
      <point x="461" y="222" type="curve"/>
      <point x="446" y="203"/>
      <point x="440" y="175"/>
      <point x="425" y="156" type="curve"/>
      <point x="425" y="144" type="line"/>
      <point x="412" y="134"/>
      <point x="417" y="107"/>
      <point x="400" y="103" type="curve"/>
      <point x="390" y="112"/>
      <point x="388" y="128"/>
      <point x="379" y="137" type="curve"/>
      <point x="378" y="148"/>
      <point x="373" y="157"/>
      <point x="370" y="164" type="curve" smooth="yes"/>
      <point x="366" y="173"/>
      <point x="364" y="182"/>
      <point x="357" y="189" type="curve"/>
      <point x="350" y="208"/>
      <point x="341" y="223"/>
      <point x="332" y="240" type="curve" smooth="yes"/>
      <point x="330" y="245"/>
      <point x="329" y="252"/>
      <point x="327" y="257" type="curve"/>
      <point x="317" y="273"/>
      <point x="308" y="290"/>
      <point x="303" y="311" type="curve"/>
      <point x="295" y="320"/>
      <point x="290" y="334"/>
      <point x="283" y="345" type="curve"/>
      <point x="276" y="368"/>
      <point x="265" y="385"/>
      <point x="256" y="405" type="curve" smooth="yes"/>
      <point x="246" y="425"/>
      <point x="238" y="446"/>
      <point x="226" y="464" type="curve"/>
      <point x="224" y="473"/>
      <point x="219" y="481"/>
      <point x="215" y="489" type="curve"/>
      <point x="213" y="498"/>
      <point x="206" y="504"/>
      <point x="204" y="514" type="curve"/>
      <point x="194" y="529"/>
      <point x="187" y="546"/>
      <point x="179" y="563" type="curve"/>
      <point x="175" y="580"/>
      <point x="169" y="594"/>
      <point x="160" y="605" type="curve"/>
      <point x="157" y="617"/>
      <point x="152" y="626"/>
      <point x="147" y="635" type="curve"/>
      <point x="143" y="646"/>
      <point x="135" y="652"/>
      <point x="133" y="665" type="curve"/>
      <point x="127" y="674"/>
      <point x="123" y="685"/>
      <point x="117" y="694" type="curve"/>
      <point x="113" y="704"/>
      <point x="114" y="719"/>
      <point x="100" y="720" type="curve"/>
      <point x="94" y="718"/>
      <point x="96" y="708"/>
      <point x="94" y="702" type="curve" smooth="yes"/>
      <point x="89" y="680"/>
      <point x="91" y="652"/>
      <point x="86" y="631" type="curve"/>
      <point x="87" y="594"/>
      <point x="80" y="566"/>
      <point x="76" y="534" type="curve" smooth="yes"/>
      <point x="75" y="528"/>
      <point x="79" y="526"/>
      <point x="78" y="519" type="curve" smooth="yes"/>
      <point x="71" y="478"/>
      <point x="71" y="430"/>
      <point x="61" y="393" type="curve"/>
      <point x="61" y="387"/>
      <point x="63" y="382"/>
      <point x="62" y="375" type="curve" smooth="yes"/>
      <point x="57" y="356"/>
      <point x="60" y="328"/>
      <point x="54" y="309" type="curve"/>
      <point x="55" y="304"/>
      <point x="57" y="300"/>
      <point x="56" y="293" type="curve" smooth="yes"/>
      <point x="54" y="286"/>
      <point x="51" y="280"/>
      <point x="50" y="273" type="curve"/>
      <point x="52" y="229"/>
      <point x="41" y="201"/>
      <point x="42" y="156" type="curve"/>
      <point x="36" y="122"/>
      <point x="36" y="82"/>
      <point x="32" y="46" type="curve"/>
      <point x="30" y="37"/>
      <point x="23" y="28"/>
      <point x="26" y="19" type="curve"/>
      <point x="32" y="7"/>
      <point x="54" y="7"/>
      <point x="70" y="10" type="curve"/>
      <point x="73" y="15"/>
      <point x="77" y="19"/>
      <point x="80" y="25" type="curve"/>
      <point x="78" y="61"/>
      <point x="87" y="85"/>
      <point x="86" y="120" type="curve" smooth="yes"/>
      <point x="86" y="125"/>
      <point x="89" y="127"/>
      <point x="89" y="132" type="curve" smooth="yes"/>
      <point x="88" y="146"/>
      <point x="91" y="160"/>
      <point x="92" y="173" type="curve" smooth="yes"/>
      <point x="92" y="177"/>
      <point x="90" y="180"/>
      <point x="91" y="183" type="curve"/>
      <point x="91" y="186"/>
      <point x="94" y="188"/>
      <point x="94" y="191" type="curve" smooth="yes"/>
      <point x="94" y="198"/>
      <point x="93" y="206"/>
      <point x="94" y="213" type="curve" smooth="yes"/>
      <point x="94" y="219"/>
      <point x="96" y="225"/>
      <point x="97" y="232" type="curve" smooth="yes"/>
      <point x="101" y="263"/>
      <point x="98" y="299"/>
      <point x="105" y="325" type="curve"/>
      <point x="101" y="362"/>
      <point x="114" y="397"/>
      <point x="113" y="438" type="curve" smooth="yes"/>
      <point x="113" y="443"/>
      <point x="116" y="445"/>
      <point x="116" y="451" type="curve" smooth="yes"/>
      <point x="115" y="485"/>
      <point x="120" y="513"/>
      <point x="121" y="549" type="curve" smooth="yes"/>
      <point x="121" y="555"/>
      <point x="120" y="562"/>
      <point x="127" y="563" type="curve"/>
      <point x="133" y="562"/>
      <point x="135" y="553"/>
      <point x="136" y="549" type="curve" smooth="yes"/>
      <point x="140" y="539"/>
      <point x="146" y="530"/>
      <point x="149" y="520" type="curve"/>
      <point x="156" y="506"/>
      <point x="164" y="491"/>
      <point x="168" y="473" type="curve"/>
      <point x="180" y="464"/>
      <point x="179" y="442"/>
      <point x="191" y="432" type="curve"/>
      <point x="191" y="419" type="line"/>
      <point x="200" y="413"/>
      <point x="201" y="399"/>
      <point x="209" y="391" type="curve"/>
      <point x="208" y="385"/>
      <point x="209" y="381"/>
      <point x="210" y="377" type="curve"/>
      <point x="215" y="371"/>
      <point x="219" y="365"/>
      <point x="223" y="358" type="curve" smooth="yes"/>
      <point x="234" y="336" type="line"/>
      <point x="235" y="326"/>
      <point x="242" y="323"/>
      <point x="243" y="314" type="curve"/>
      <point x="250" y="307"/>
      <point x="249" y="298"/>
      <point x="253" y="290" type="curve" smooth="yes"/>
      <point x="256" y="283"/>
      <point x="262" y="278"/>
      <point x="264" y="271" type="curve" smooth="yes"/>
      <point x="266" y="266"/>
      <point x="267" y="259"/>
      <point x="269" y="254" type="curve"/>
      <point x="275" y="246"/>
      <point x="281" y="237"/>
      <point x="286" y="227" type="curve" smooth="yes"/>
      <point x="291" y="217"/>
      <point x="294" y="205"/>
      <point x="300" y="196" type="curve"/>
      <point x="300" y="178"/>
      <point x="310" y="169"/>
      <point x="316" y="159" type="curve" smooth="yes"/>
      <point x="318" y="156"/>
      <point x="317" y="153"/>
      <point x="319" y="150" type="curve" smooth="yes"/>
      <point x="321" y="146"/>
      <point x="323" y="146"/>
      <point x="325" y="142" type="curve"/>
      <point x="326" y="131"/>
      <point x="332" y="125"/>
      <point x="336" y="117" type="curve"/>
      <point x="344" y="111"/>
      <point x="345" y="100"/>
      <point x="351" y="93" type="curve"/>
      <point x="351" y="87"/>
      <point x="354" y="84"/>
      <point x="354" y="77" type="curve"/>
      <point x="362" y="69"/>
      <point x="367" y="55"/>
      <point x="371" y="44" type="curve"/>
      <point x="372" y="43"/>
      <point x="371" y="41"/>
      <point x="371" y="39" type="curve"/>
      <point x="371" y="39"/>
      <point x="374" y="37"/>
      <point x="374" y="36" type="curve"/>
      <point x="381" y="24"/>
      <point x="389" y="5"/>
      <point x="401" y="5" type="curve" smooth="yes"/>
      <point x="408" y="5"/>
      <point x="414" y="12"/>
      <point x="418" y="17" type="curve" smooth="yes"/>
      <point x="423" y="23"/>
      <point x="426" y="31"/>
      <point x="431" y="36" type="curve"/>
      <point x="433" y="49"/>
      <point x="438" y="60"/>
      <point x="441" y="73" type="curve"/>
      <point x="454" y="87"/>
      <point x="457" y="111"/>
      <point x="469" y="126" type="curve"/>
      <point x="468" y="136"/>
      <point x="475" y="138"/>
      <point x="474" y="148" type="curve"/>
      <point x="479" y="154"/>
      <point x="481" y="162"/>
      <point x="485" y="169" type="curve"/>
      <point x="487" y="177"/>
      <point x="492" y="182"/>
      <point x="496" y="189" type="curve"/>
      <point x="496" y="195"/>
      <point x="498" y="198"/>
      <point x="497" y="205" type="curve"/>
      <point x="506" y="217"/>
      <point x="513" y="231"/>
      <point x="519" y="246" type="curve" smooth="yes"/>
      <point x="525" y="262"/>
      <point x="536" y="272"/>
      <point x="538" y="292" type="curve"/>
      <point x="551" y="306" type="line"/>
      <point x="551" y="327"/>
      <point x="563" y="337"/>
      <point x="567" y="355" type="curve"/>
      <point x="573" y="363" type="line" smooth="yes"/>
      <point x="575" y="366"/>
      <point x="577" y="368"/>
      <point x="579" y="372" type="curve" smooth="yes"/>
      <point x="584" y="381"/>
      <point x="586" y="391"/>
      <point x="589" y="402" type="curve"/>
      <point x="596" y="415"/>
      <point x="601" y="429"/>
      <point x="608" y="443" type="curve" smooth="yes"/>
      <point x="613" y="457"/>
      <point x="616" y="474"/>
      <point x="627" y="484" type="curve"/>
      <point x="627" y="494"/>
      <point x="633" y="499"/>
      <point x="634" y="509" type="curve"/>
      <point x="646" y="522"/>
      <point x="649" y="543"/>
      <point x="660" y="557" type="curve"/>
      <point x="669" y="539"/>
      <point x="665" y="517"/>
      <point x="669" y="495" type="curve" smooth="yes"/>
      <point x="674" y="470"/>
      <point x="679" y="437"/>
      <point x="675" y="408" type="curve"/>
      <point x="677" y="400"/>
      <point x="680" y="394"/>
      <point x="682" y="386" type="curve"/>
      <point x="682" y="371"/>
      <point x="683" y="356"/>
      <point x="685" y="342" type="curve"/>
      <point x="685" y="327"/>
      <point x="686" y="316"/>
      <point x="690" y="301" type="curve"/>
      <point x="690" y="295"/>
      <point x="687" y="293"/>
      <point x="688" y="287" type="curve"/>
      <point x="692" y="277"/>
      <point x="695" y="263"/>
      <point x="691" y="251" type="curve"/>
      <point x="697" y="237"/>
      <point x="697" y="220"/>
      <point x="699" y="203" type="curve" smooth="yes"/>
      <point x="701" y="178"/>
      <point x="703" y="156"/>
      <point x="704" y="131" type="curve"/>
      <point x="710" y="112" type="line"/>
      <point x="704" y="101"/>
      <point x="713" y="92"/>
      <point x="708" y="79" type="curve"/>
      <point x="719" y="64"/>
      <point x="710" y="29"/>
      <point x="723" y="17" type="curve"/>
      <point x="734" y="12"/>
      <point x="756" y="14"/>
      <point x="762" y="22" type="curve"/>
    </contour>
  </outline>
</glyph>
<glyph name="R" format="2">
  <advance width="437"/>
  <unicode hex="0052"/>
  <anchor x="210" y="0" name="bottom"/>
  <anchor x="210" y="695" name="top"/>
  <outline>
    <contour>
      <point x="375" y="62" type="line"/>
      <point x="370" y="73"/>
      <point x="363" y="81"/>
      <point x="355" y="89" type="curve"/>
      <point x="354" y="96"/>
      <point x="348" y="98"/>
      <point x="349" y="106" type="curve"/>
      <point x="340" y="112"/>
      <point x="335" y="121"/>
      <point x="328" y="129" type="curve"/>
      <point x="325" y="143"/>
      <point x="316" y="153"/>
      <point x="306" y="163" type="curve"/>
      <point x="300" y="177"/>
      <point x="289" y="186"/>
      <point x="283" y="199" type="curve"/>
      <point x="271" y="217"/>
      <point x="256" y="232"/>
      <point x="247" y="253" type="curve"/>
      <point x="236" y="262"/>
      <point x="229" y="274"/>
      <point x="224" y="289" type="curve"/>
      <point x="221" y="294"/>
      <point x="215" y="297"/>
      <point x="215" y="305" type="curve"/>
      <point x="210" y="308"/>
      <point x="207" y="316"/>
      <point x="207" y="324" type="curve"/>
      <point x="209" y="329"/>
      <point x="214" y="333"/>
      <point x="218" y="338" type="curve"/>
      <point x="234" y="341"/>
      <point x="251" y="342"/>
      <point x="267" y="344" type="curve"/>
      <point x="277" y="350"/>
      <point x="287" y="356"/>
      <point x="299" y="360" type="curve"/>
      <point x="309" y="371"/>
      <point x="322" y="380"/>
      <point x="333" y="390" type="curve"/>
      <point x="336" y="398"/>
      <point x="344" y="400"/>
      <point x="346" y="409" type="curve"/>
      <point x="352" y="414"/>
      <point x="355" y="421"/>
      <point x="361" y="426" type="curve"/>
      <point x="368" y="442"/>
      <point x="374" y="457"/>
      <point x="379" y="474" type="curve"/>
      <point x="381" y="496"/>
      <point x="380" y="511"/>
      <point x="379" y="534" type="curve"/>
      <point x="375" y="545"/>
      <point x="373" y="558"/>
      <point x="371" y="571" type="curve"/>
      <point x="366" y="583"/>
      <point x="360" y="595"/>
      <point x="356" y="609" type="curve"/>
      <point x="347" y="615"/>
      <point x="344" y="626"/>
      <point x="337" y="633" type="curve" smooth="yes"/>
      <point x="330" y="641"/>
      <point x="321" y="647"/>
      <point x="315" y="655" type="curve"/>
      <point x="300" y="662"/>
      <point x="287" y="670"/>
      <point x="275" y="680" type="curve"/>
      <point x="266" y="682"/>
      <point x="259" y="686"/>
      <point x="252" y="690" type="curve"/>
      <point x="218" y="690"/>
      <point x="182" y="697"/>
      <point x="151" y="692" type="curve"/>
      <point x="144" y="692"/>
      <point x="139" y="695"/>
      <point x="132" y="695" type="curve" smooth="yes"/>
      <point x="114" y="693"/>
      <point x="86" y="699"/>
      <point x="72" y="689" type="curve"/>
      <point x="59" y="667"/>
      <point x="70" y="616"/>
      <point x="66" y="592" type="curve" smooth="yes"/>
      <point x="65" y="589"/>
      <point x="64" y="587"/>
      <point x="64" y="583" type="curve" smooth="yes"/>
      <point x="64" y="565"/>
      <point x="67" y="550"/>
      <point x="61" y="536" type="curve"/>
      <point x="63" y="526"/>
      <point x="64" y="521"/>
      <point x="63" y="512" type="curve"/>
      <point x="66" y="501"/>
      <point x="68" y="487"/>
      <point x="69" y="474" type="curve" smooth="yes"/>
      <point x="70" y="460"/>
      <point x="71" y="445"/>
      <point x="70" y="432" type="curve" smooth="yes"/>
      <point x="68" y="411"/>
      <point x="60" y="392"/>
      <point x="61" y="373" type="curve" smooth="yes"/>
      <point x="62" y="357"/>
      <point x="65" y="341"/>
      <point x="64" y="321" type="curve"/>
      <point x="68" y="301" type="line"/>
      <point x="66" y="293"/>
      <point x="65" y="282"/>
      <point x="65" y="271" type="curve" smooth="yes"/>
      <point x="65" y="263"/>
      <point x="69" y="260"/>
      <point x="68" y="252" type="curve"/>
      <point x="70" y="231"/>
      <point x="64" y="211"/>
      <point x="68" y="192" type="curve"/>
      <point x="64" y="174"/>
      <point x="64" y="146"/>
      <point x="65" y="126" type="curve"/>
      <point x="59" y="105"/>
      <point x="63" y="83"/>
      <point x="63" y="61" type="curve" smooth="yes"/>
      <point x="63" y="52"/>
      <point x="59" y="46"/>
      <point x="60" y="36" type="curve"/>
      <point x="65" y="26"/>
      <point x="75" y="14"/>
      <point x="88" y="14" type="curve" smooth="yes"/>
      <point x="97" y="14"/>
      <point x="102" y="20"/>
      <point x="109" y="23" type="curve"/>
      <point x="119" y="39"/>
      <point x="107" y="65"/>
      <point x="112" y="85" type="curve"/>
      <point x="109" y="92"/>
      <point x="107" y="99"/>
      <point x="106" y="108" type="curve" smooth="yes"/>
      <point x="105" y="118"/>
      <point x="110" y="120"/>
      <point x="109" y="129" type="curve" smooth="yes"/>
      <point x="108" y="154"/>
      <point x="113" y="184"/>
      <point x="109" y="205" type="curve" smooth="yes"/>
      <point x="106" y="224"/>
      <point x="110" y="244"/>
      <point x="108" y="266" type="curve" smooth="yes"/>
      <point x="108" y="273"/>
      <point x="112" y="277"/>
      <point x="113" y="283" type="curve"/>
      <point x="112" y="296"/>
      <point x="113" y="306"/>
      <point x="116" y="315" type="curve" smooth="yes"/>
      <point x="118" y="325"/>
      <point x="119" y="335"/>
      <point x="130" y="335" type="curve"/>
      <point x="135" y="333"/>
      <point x="138" y="328"/>
      <point x="141" y="323" type="curve"/>
      <point x="146" y="320"/>
      <point x="148" y="314"/>
      <point x="152" y="310" type="curve"/>
      <point x="157" y="299"/>
      <point x="168" y="294"/>
      <point x="169" y="279" type="curve"/>
      <point x="182" y="273"/>
      <point x="184" y="257"/>
      <point x="193" y="247" type="curve"/>
      <point x="199" y="244"/>
      <point x="199" y="236"/>
      <point x="204" y="231" type="curve" smooth="yes"/>
      <point x="210" y="226"/>
      <point x="212" y="218"/>
      <point x="217" y="214" type="curve"/>
      <point x="220" y="207"/>
      <point x="225" y="199"/>
      <point x="228" y="195" type="curve" smooth="yes"/>
      <point x="233" y="186"/>
      <point x="236" y="180"/>
      <point x="242" y="174" type="curve"/>
      <point x="247" y="171" type="line" smooth="yes"/>
      <point x="248" y="170"/>
      <point x="248" y="167"/>
      <point x="250" y="165" type="curve" smooth="yes"/>
      <point x="255" y="159"/>
      <point x="260" y="152"/>
      <point x="264" y="144" type="curve" smooth="yes"/>
      <point x="271" y="131"/>
      <point x="281" y="118"/>
      <point x="290" y="105" type="curve"/>
      <point x="296" y="100"/>
      <point x="298" y="91"/>
      <point x="303" y="84" type="curve"/>
      <point x="310" y="80"/>
      <point x="311" y="69"/>
      <point x="319" y="65" type="curve"/>
      <point x="321" y="56"/>
      <point x="328" y="52"/>
      <point x="333" y="45" type="curve" smooth="yes"/>
      <point x="337" y="38"/>
      <point x="342" y="31"/>
      <point x="347" y="24" type="curve"/>
      <point x="356" y="23"/>
      <point x="365" y="11"/>
      <point x="377" y="12" type="curve" smooth="yes"/>
      <point x="387" y="12"/>
      <point x="395" y="19"/>
      <point x="397" y="31" type="curve" smooth="yes"/>
      <point x="397" y="33"/>
      <point x="395" y="33"/>
      <point x="396" y="36" type="curve"/>
    </contour>
    <contour>
      <point x="128" y="385"/>
      <point x="122" y="383"/>
      <point x="116" y="387" type="curve"/>
      <point x="110" y="396"/>
      <point x="114" y="415"/>
      <point x="112" y="427" type="curve"/>
      <point x="115" y="437"/>
      <point x="116" y="448"/>
      <point x="119" y="457" type="curve"/>
      <point x="117" y="465"/>
      <point x="117" y="476"/>
      <point x="119" y="484" type="curve"/>
      <point x="112" y="503"/>
      <point x="120" y="523"/>
      <point x="119" y="542" type="curve" smooth="yes"/>
      <point x="119" y="552"/>
      <point x="116" y="560"/>
      <point x="116" y="573" type="curve" smooth="yes"/>
      <point x="116" y="576"/>
      <point x="114" y="582"/>
      <point x="115" y="583" type="curve"/>
      <point x="115" y="583"/>
      <point x="116" y="583"/>
      <point x="116" y="585" type="curve" smooth="yes"/>
      <point x="115" y="593"/>
      <point x="112" y="601"/>
      <point x="111" y="608" type="curve"/>
      <point x="111" y="622"/>
      <point x="115" y="634"/>
      <point x="118" y="648" type="curve"/>
      <point x="125" y="652"/>
      <point x="137" y="651"/>
      <point x="146" y="649" type="curve" smooth="yes"/>
      <point x="152" y="648"/>
      <point x="165" y="650"/>
      <point x="171" y="646" type="curve"/>
      <point x="188" y="650"/>
      <point x="199" y="643"/>
      <point x="217" y="644" type="curve"/>
      <point x="230" y="642"/>
      <point x="239" y="634"/>
      <point x="253" y="638" type="curve"/>
      <point x="268" y="628"/>
      <point x="283" y="622"/>
      <point x="294" y="609" type="curve" smooth="yes"/>
      <point x="304" y="599"/>
      <point x="308" y="585"/>
      <point x="318" y="575" type="curve"/>
      <point x="320" y="561"/>
      <point x="322" y="552"/>
      <point x="323" y="540" type="curve"/>
      <point x="328" y="529"/>
      <point x="332" y="520"/>
      <point x="330" y="507" type="curve" smooth="yes"/>
      <point x="329" y="493"/>
      <point x="318" y="482"/>
      <point x="318" y="471" type="curve" smooth="yes"/>
      <point x="317" y="462"/>
      <point x="320" y="458"/>
      <point x="319" y="450" type="curve" smooth="yes"/>
      <point x="316" y="439"/>
      <point x="308" y="431"/>
      <point x="299" y="423" type="curve"/>
      <point x="297" y="418"/>
      <point x="288" y="419"/>
      <point x="288" y="412" type="curve"/>
      <point x="283" y="409"/>
      <point x="281" y="404"/>
      <point x="276" y="401" type="curve"/>
      <point x="270" y="399"/>
      <point x="264" y="398"/>
      <point x="258" y="397" type="curve"/>
      <point x="252" y="394"/>
      <point x="247" y="390"/>
      <point x="239" y="390" type="curve"/>
      <point x="237" y="383"/>
      <point x="227" y="385"/>
      <point x="223" y="381" type="curve"/>
      <point x="192" y="384"/>
      <point x="161" y="374"/>
      <point x="136" y="386" type="curve"/>
    </contour>
  </outline>
</glyph>
<glyph name="S" format="2">
  <advance width="467"/>
  <unicode hex="0053"/>
  <anchor x="233" y="0" name="bottom"/>
  <anchor x="233" y="695" name="top"/>
  <outline>
    <contour>
      <point x="415" y="288" type="line"/>
      <point x="401" y="306"/>
      <point x="384" y="322"/>
      <point x="368" y="337" type="curve"/>
      <point x="340" y="348"/>
      <point x="329" y="374"/>
      <point x="293" y="374" type="curve"/>
      <point x="288" y="379"/>
      <point x="282" y="384"/>
      <point x="276" y="388" type="curve"/>
      <point x="254" y="394"/>
      <point x="237" y="405"/>
      <point x="213" y="409" type="curve"/>
      <point x="193" y="421"/>
      <point x="176" y="433"/>
      <point x="154" y="443" type="curve"/>
      <point x="141" y="458"/>
      <point x="124" y="467"/>
      <point x="114" y="484" type="curve"/>
      <point x="115" y="501"/>
      <point x="111" y="512"/>
      <point x="108" y="525" type="curve" smooth="yes"/>
      <point x="107" y="535"/>
      <point x="109" y="548"/>
      <point x="106" y="555" type="curve"/>
      <point x="111" y="563"/>
      <point x="113" y="572"/>
      <point x="116" y="581" type="curve"/>
      <point x="121" y="586"/>
      <point x="126" y="594"/>
      <point x="128" y="603" type="curve"/>
      <point x="142" y="614"/>
      <point x="152" y="630"/>
      <point x="168" y="639" type="curve" smooth="yes"/>
      <point x="180" y="645"/>
      <point x="196" y="652"/>
      <point x="213" y="656" type="curve" smooth="yes"/>
      <point x="237" y="662"/>
      <point x="261" y="654"/>
      <point x="283" y="648" type="curve"/>
      <point x="296" y="640"/>
      <point x="308" y="631"/>
      <point x="322" y="623" type="curve"/>
      <point x="327" y="613"/>
      <point x="338" y="609"/>
      <point x="341" y="598" type="curve"/>
      <point x="351" y="593"/>
      <point x="353" y="580"/>
      <point x="365" y="575" type="curve"/>
      <point x="372" y="577"/>
      <point x="377" y="581"/>
      <point x="382" y="585" type="curve"/>
      <point x="385" y="591"/>
      <point x="393" y="592"/>
      <point x="392" y="602" type="curve" smooth="yes"/>
      <point x="392" y="613"/>
      <point x="386" y="617"/>
      <point x="382" y="623" type="curve"/>
      <point x="379" y="630"/>
      <point x="375" y="636"/>
      <point x="371" y="643" type="curve"/>
      <point x="357" y="654"/>
      <point x="343" y="666"/>
      <point x="330" y="678" type="curve"/>
      <point x="320" y="683"/>
      <point x="309" y="688"/>
      <point x="302" y="696" type="curve"/>
      <point x="289" y="696"/>
      <point x="281" y="701"/>
      <point x="270" y="703" type="curve" smooth="yes"/>
      <point x="257" y="704"/>
      <point x="244" y="705"/>
      <point x="232" y="707" type="curve"/>
      <point x="221" y="704"/>
      <point x="209" y="701"/>
      <point x="195" y="702" type="curve"/>
      <point x="187" y="697"/>
      <point x="176" y="696"/>
      <point x="166" y="692" type="curve" smooth="yes"/>
      <point x="157" y="688"/>
      <point x="149" y="683"/>
      <point x="139" y="680" type="curve"/>
      <point x="130" y="673"/>
      <point x="124" y="665"/>
      <point x="113" y="661" type="curve"/>
      <point x="103" y="647"/>
      <point x="89" y="636"/>
      <point x="78" y="623" type="curve"/>
      <point x="69" y="603"/>
      <point x="63" y="581"/>
      <point x="56" y="559" type="curve"/>
      <point x="59" y="543"/>
      <point x="57" y="522"/>
      <point x="57" y="504" type="curve"/>
      <point x="59" y="499"/>
      <point x="61" y="495"/>
      <point x="61" y="490" type="curve"/>
      <point x="71" y="472"/>
      <point x="74" y="448"/>
      <point x="87" y="435" type="curve"/>
      <point x="90" y="426"/>
      <point x="101" y="424"/>
      <point x="104" y="415" type="curve"/>
      <point x="108" y="413"/>
      <point x="109" y="407"/>
      <point x="115" y="407" type="curve"/>
      <point x="118" y="403"/>
      <point x="121" y="399"/>
      <point x="126" y="398" type="curve"/>
      <point x="130" y="395"/>
      <point x="135" y="393"/>
      <point x="139" y="391" type="curve" smooth="yes"/>
      <point x="144" y="389"/>
      <point x="147" y="386"/>
      <point x="152" y="383" type="curve" smooth="yes"/>
      <point x="154" y="382"/>
      <point x="156" y="383"/>
      <point x="159" y="382" type="curve" smooth="yes"/>
      <point x="162" y="381"/>
      <point x="164" y="378"/>
      <point x="166" y="377" type="curve" smooth="yes"/>
      <point x="171" y="375"/>
      <point x="176" y="375"/>
      <point x="182" y="372" type="curve"/>
      <point x="186" y="371"/>
      <point x="190" y="368"/>
      <point x="194" y="366" type="curve" smooth="yes"/>
      <point x="209" y="360"/>
      <point x="223" y="352"/>
      <point x="238" y="349" type="curve"/>
      <point x="249" y="342"/>
      <point x="262" y="337"/>
      <point x="276" y="333" type="curve"/>
      <point x="286" y="322"/>
      <point x="302" y="318"/>
      <point x="317" y="313" type="curve"/>
      <point x="326" y="305"/>
      <point x="335" y="298"/>
      <point x="345" y="292" type="curve"/>
      <point x="355" y="283"/>
      <point x="363" y="275"/>
      <point x="371" y="266" type="curve"/>
      <point x="377" y="253"/>
      <point x="387" y="242"/>
      <point x="391" y="227" type="curve"/>
      <point x="390" y="211"/>
      <point x="393" y="199"/>
      <point x="393" y="183" type="curve"/>
      <point x="389" y="171"/>
      <point x="386" y="158"/>
      <point x="380" y="148" type="curve"/>
      <point x="376" y="136"/>
      <point x="365" y="130"/>
      <point x="362" y="117" type="curve"/>
      <point x="356" y="112"/>
      <point x="349" y="106"/>
      <point x="345" y="101" type="curve" smooth="yes"/>
      <point x="341" y="97"/>
      <point x="340" y="92"/>
      <point x="336" y="89" type="curve"/>
      <point x="325" y="86"/>
      <point x="319" y="79"/>
      <point x="312" y="73" type="curve"/>
      <point x="305" y="73"/>
      <point x="302" y="69"/>
      <point x="298" y="67" type="curve"/>
      <point x="285" y="65"/>
      <point x="277" y="60"/>
      <point x="268" y="56" type="curve"/>
      <point x="255" y="57"/>
      <point x="249" y="51"/>
      <point x="239" y="49" type="curve"/>
      <point x="230" y="51"/>
      <point x="218" y="51"/>
      <point x="208" y="49" type="curve" smooth="yes"/>
      <point x="201" y="48"/>
      <point x="201" y="54"/>
      <point x="195" y="54" type="curve" smooth="yes"/>
      <point x="189" y="55"/>
      <point x="188" y="51"/>
      <point x="181" y="52" type="curve"/>
      <point x="172" y="58"/>
      <point x="162" y="63"/>
      <point x="150" y="65" type="curve"/>
      <point x="142" y="72"/>
      <point x="136" y="80"/>
      <point x="124" y="82" type="curve"/>
      <point x="116" y="89"/>
      <point x="108" y="95"/>
      <point x="99" y="101" type="curve"/>
      <point x="95" y="110"/>
      <point x="89" y="117"/>
      <point x="83" y="123" type="curve"/>
      <point x="81" y="133"/>
      <point x="75" y="137"/>
      <point x="74" y="145" type="curve"/>
      <point x="71" y="154"/>
      <point x="67" y="163"/>
      <point x="59" y="166" type="curve"/>
      <point x="50" y="166"/>
      <point x="47" y="160"/>
      <point x="41" y="157" type="curve"/>
      <point x="38" y="151"/>
      <point x="31" y="149"/>
      <point x="30" y="141" type="curve" smooth="yes"/>
      <point x="29" y="131"/>
      <point x="32" y="124"/>
      <point x="31" y="113" type="curve"/>
      <point x="38" y="105"/>
      <point x="44" y="98"/>
      <point x="47" y="88" type="curve"/>
      <point x="65" y="73"/>
      <point x="80" y="54"/>
      <point x="96" y="38" type="curve"/>
      <point x="113" y="31"/>
      <point x="129" y="23"/>
      <point x="143" y="13" type="curve"/>
      <point x="172" y="6"/>
      <point x="207" y="0"/>
      <point x="241" y="0" type="curve" smooth="yes"/>
      <point x="246" y="0"/>
      <point x="256" y="3"/>
      <point x="258" y="4" type="curve"/>
      <point x="261" y="4"/>
      <point x="261" y="2"/>
      <point x="265" y="2" type="curve" smooth="yes"/>
      <point x="274" y="3"/>
      <point x="282" y="7"/>
      <point x="290" y="7" type="curve"/>
      <point x="300" y="12"/>
      <point x="311" y="17"/>
      <point x="323" y="21" type="curve"/>
      <point x="325" y="26"/>
      <point x="334" y="26"/>
      <point x="337" y="30" type="curve"/>
      <point x="344" y="32"/>
      <point x="346" y="38"/>
      <point x="354" y="36" type="curve"/>
      <point x="365" y="50"/>
      <point x="376" y="63"/>
      <point x="391" y="73" type="curve"/>
      <point x="395" y="82"/>
      <point x="400" y="91"/>
      <point x="407" y="99" type="curve"/>
      <point x="412" y="108"/>
      <point x="414" y="120"/>
      <point x="422" y="126" type="curve"/>
      <point x="424" y="138"/>
      <point x="430" y="149"/>
      <point x="432" y="161" type="curve" smooth="yes"/>
      <point x="435" y="173"/>
      <point x="437" y="189"/>
      <point x="437" y="202" type="curve"/>
      <point x="432" y="206"/>
      <point x="435" y="219"/>
      <point x="432" y="225" type="curve"/>
      <point x="430" y="233"/>
      <point x="428" y="240"/>
      <point x="429" y="251" type="curve"/>
    </contour>
  </outline>
</glyph>
<glyph name="T" format="2">
  <advance width="455"/>
  <unicode hex="0054"/>
  <anchor x="233" y="0" name="bottom"/>
  <anchor x="233" y="348" name="center"/>
  <anchor x="233" y="695" name="top"/>
  <outline>
    <contour>
      <point x="285" y="692" type="line"/>
      <point x="273" y="692"/>
      <point x="262" y="690"/>
      <point x="250" y="690" type="curve" smooth="yes"/>
      <point x="238" y="690"/>
      <point x="225" y="691"/>
      <point x="212" y="688" type="curve"/>
      <point x="200" y="691"/>
      <point x="186" y="692"/>
      <point x="171" y="694" type="curve"/>
      <point x="141" y="690" type="line"/>
      <point x="108" y="689"/>
      <point x="72" y="693"/>
      <point x="44" y="690" type="curve"/>
      <point x="33" y="682"/>
      <point x="25" y="663"/>
      <point x="34" y="648" type="curve"/>
      <point x="40" y="646"/>
      <point x="44" y="642"/>
      <point x="53" y="643" type="curve" smooth="yes"/>
      <point x="60" y="644"/>
      <point x="67" y="646"/>
      <point x="75" y="646" type="curve" smooth="yes"/>
      <point x="83" y="647"/>
      <point x="93" y="644"/>
      <point x="102" y="645" type="curve" smooth="yes"/>
      <point x="109" y="645"/>
      <point x="115" y="648"/>
      <point x="122" y="648" type="curve" smooth="yes"/>
      <point x="129" y="648"/>
      <point x="137" y="646"/>
      <point x="144" y="646" type="curve" smooth="yes"/>
      <point x="153" y="646"/>
      <point x="160" y="647"/>
      <point x="168" y="646" type="curve" smooth="yes"/>
      <point x="182" y="644"/>
      <point x="200" y="645"/>
      <point x="206" y="633" type="curve"/>
      <point x="207" y="624"/>
      <point x="201" y="622"/>
      <point x="203" y="613" type="curve"/>
      <point x="212" y="587"/>
      <point x="200" y="551"/>
      <point x="206" y="523" type="curve"/>
      <point x="201" y="497"/>
      <point x="202" y="461"/>
      <point x="206" y="435" type="curve"/>
      <point x="206" y="427"/>
      <point x="202" y="424"/>
      <point x="199" y="419" type="curve"/>
      <point x="204" y="415"/>
      <point x="202" y="408"/>
      <point x="202" y="403" type="curve" smooth="yes"/>
      <point x="204" y="375"/>
      <point x="197" y="351"/>
      <point x="199" y="326" type="curve" smooth="yes"/>
      <point x="200" y="316"/>
      <point x="203" y="307"/>
      <point x="204" y="298" type="curve" smooth="yes"/>
      <point x="204" y="289"/>
      <point x="202" y="282"/>
      <point x="202" y="274" type="curve" smooth="yes"/>
      <point x="202" y="269"/>
      <point x="204" y="262"/>
      <point x="204" y="257" type="curve" smooth="yes"/>
      <point x="204" y="244"/>
      <point x="202" y="234"/>
      <point x="205" y="225" type="curve"/>
      <point x="205" y="220"/>
      <point x="202" y="216"/>
      <point x="202" y="211" type="curve"/>
      <point x="208" y="200"/>
      <point x="204" y="189"/>
      <point x="204" y="178" type="curve" smooth="yes"/>
      <point x="204" y="146"/>
      <point x="204" y="110"/>
      <point x="199" y="80" type="curve" smooth="yes"/>
      <point x="197" y="73"/>
      <point x="201" y="72"/>
      <point x="200" y="66" type="curve" smooth="yes"/>
      <point x="196" y="53"/>
      <point x="196" y="30"/>
      <point x="197" y="17" type="curve"/>
      <point x="201" y="13"/>
      <point x="205" y="9"/>
      <point x="210" y="6" type="curve"/>
      <point x="219" y="5"/>
      <point x="225" y="7"/>
      <point x="232" y="9" type="curve"/>
      <point x="243" y="7"/>
      <point x="245" y="13"/>
      <point x="251" y="17" type="curve"/>
      <point x="254" y="29"/>
      <point x="249" y="43"/>
      <point x="249" y="56" type="curve" smooth="yes"/>
      <point x="249" y="59"/>
      <point x="251" y="63"/>
      <point x="251" y="66" type="curve" smooth="yes"/>
      <point x="251" y="69"/>
      <point x="249" y="72"/>
      <point x="249" y="75" type="curve" smooth="yes"/>
      <point x="249" y="83"/>
      <point x="251" y="90"/>
      <point x="251" y="97" type="curve" smooth="yes"/>
      <point x="251" y="115"/>
      <point x="248" y="133"/>
      <point x="250" y="151" type="curve" smooth="yes"/>
      <point x="250" y="157"/>
      <point x="251" y="164"/>
      <point x="251" y="170" type="curve" smooth="yes"/>
      <point x="252" y="188"/>
      <point x="247" y="207"/>
      <point x="253" y="223" type="curve"/>
      <point x="251" y="228"/>
      <point x="249" y="232"/>
      <point x="250" y="239" type="curve" smooth="yes"/>
      <point x="251" y="247"/>
      <point x="254" y="253"/>
      <point x="254" y="261" type="curve" smooth="yes"/>
      <point x="255" y="271"/>
      <point x="253" y="281"/>
      <point x="253" y="291" type="curve" smooth="yes"/>
      <point x="252" y="305"/>
      <point x="256" y="320"/>
      <point x="254" y="332" type="curve"/>
      <point x="254" y="340" type="line"/>
      <point x="253" y="370" type="line" smooth="yes"/>
      <point x="253" y="372"/>
      <point x="255" y="372"/>
      <point x="254" y="375" type="curve"/>
      <point x="254" y="381"/>
      <point x="251" y="387"/>
      <point x="251" y="394" type="curve" smooth="yes"/>
      <point x="251" y="408"/>
      <point x="255" y="423"/>
      <point x="252" y="438" type="curve"/>
      <point x="258" y="456"/>
      <point x="254" y="477"/>
      <point x="255" y="498" type="curve" smooth="yes"/>
      <point x="255" y="503"/>
      <point x="256" y="509"/>
      <point x="256" y="515" type="curve" smooth="yes"/>
      <point x="256" y="522"/>
      <point x="253" y="529"/>
      <point x="253" y="537" type="curve" smooth="yes"/>
      <point x="253" y="545"/>
      <point x="255" y="554"/>
      <point x="255" y="562" type="curve" smooth="yes"/>
      <point x="255" y="593"/>
      <point x="252" y="616"/>
      <point x="253" y="640" type="curve"/>
      <point x="273" y="647"/>
      <point x="296" y="642"/>
      <point x="318" y="643" type="curve" smooth="yes"/>
      <point x="365" y="643" type="line" smooth="yes"/>
      <point x="374" y="643"/>
      <point x="387" y="645"/>
      <point x="392" y="644" type="curve" smooth="yes"/>
      <point x="396" y="644"/>
      <point x="397" y="642"/>
      <point x="400" y="643" type="curve"/>
      <point x="411" y="644"/>
      <point x="418" y="648"/>
      <point x="425" y="655" type="curve"/>
      <point x="424" y="669"/>
      <point x="427" y="675"/>
      <point x="423" y="685" type="curve"/>
      <point x="408" y="691"/>
      <point x="388" y="689"/>
      <point x="373" y="688" type="curve" smooth="yes"/>
      <point x="371" y="688"/>
      <point x="371" y="690"/>
      <point x="370" y="690" type="curve" smooth="yes"/>
      <point x="366" y="690"/>
      <point x="360" y="685"/>
      <point x="356" y="687" type="curve"/>
      <point x="344" y="690"/>
      <point x="333" y="688"/>
      <point x="321" y="688" type="curve"/>
    </contour>
  </outline>
</glyph>
<glyph name="U" format="1">
  <advance width="616"/>
  <unicode hex="0055"/>
  <outline>
    <contour>
      <point x="65" y="236" type="line"/>
      <point x="68" y="226"/>
      <point x="65" y="217"/>
      <point x="65" y="209" type="curve" smooth="yes"/>
      <point x="66" y="195"/>
      <point x="73" y="183"/>
      <point x="71" y="168" type="curve"/>
      <point x="76" y="159"/>
      <point x="82" y="151"/>
      <point x="80" y="136" type="curve"/>
      <point x="84" y="132"/>
      <point x="85" y="124"/>
      <point x="90" y="119" type="curve"/>
      <point x="91" y="111"/>
      <point x="99" y="109"/>
      <point x="101" y="102" type="curve" smooth="yes"/>
      <point x="103" y="97"/>
      <point x="104" y="90"/>
      <point x="107" y="86" type="curve" smooth="yes"/>
      <point x="115" y="77"/>
      <point x="122" y="67"/>
      <point x="132" y="61" type="curve"/>
      <point x="136" y="56"/>
      <point x="141" y="53"/>
      <point x="147" y="50" type="curve"/>
      <point x="152" y="46"/>
      <point x="155" y="41"/>
      <point x="162" y="39" type="curve"/>
      <point x="163" y="31"/>
      <point x="168" y="28"/>
      <point x="172" y="23" type="curve"/>
      <point x="178" y="19"/>
      <point x="182" y="22"/>
      <point x="189" y="20" type="curve"/>
      <point x="194" y="14"/>
      <point x="201" y="10"/>
      <point x="208" y="7" type="curve"/>
      <point x="210" y="5"/>
      <point x="216" y="6"/>
      <point x="221" y="5" type="curve"/>
      <point x="223" y="3"/>
      <point x="225" y="0"/>
      <point x="230" y="1" type="curve" smooth="yes"/>
      <point x="244" y="5"/>
      <point x="258" y="0"/>
      <point x="271" y="-1" type="curve" smooth="yes"/>
      <point x="287" y="-2"/>
      <point x="302" y="3"/>
      <point x="315" y="-4" type="curve"/>
      <point x="327" y="1"/>
      <point x="336" y="-1"/>
      <point x="352" y="-1" type="curve"/>
      <point x="362" y="2"/>
      <point x="374" y="4"/>
      <point x="388" y="3" type="curve"/>
      <point x="394" y="6"/>
      <point x="397" y="12"/>
      <point x="404" y="14" type="curve" smooth="yes"/>
      <point x="412" y="15"/>
      <point x="413" y="23"/>
      <point x="424" y="21" type="curve"/>
      <point x="433" y="30"/>
      <point x="444" y="37"/>
      <point x="457" y="41" type="curve"/>
      <point x="470" y="54"/>
      <point x="480" y="70"/>
      <point x="495" y="81" type="curve"/>
      <point x="496" y="86"/>
      <point x="498" y="90"/>
      <point x="500" y="95" type="curve"/>
      <point x="506" y="103"/>
      <point x="515" y="109"/>
      <point x="520" y="119" type="curve"/>
      <point x="520" y="133"/>
      <point x="529" y="138"/>
      <point x="532" y="148" type="curve"/>
      <point x="533" y="161"/>
      <point x="537" y="172"/>
      <point x="541" y="182" type="curve"/>
      <point x="541" y="200"/>
      <point x="546" y="215"/>
      <point x="543" y="232" type="curve"/>
      <point x="548" y="261"/>
      <point x="545" y="284"/>
      <point x="541" y="314" type="curve" smooth="yes"/>
      <point x="539" y="325"/>
      <point x="544" y="334"/>
      <point x="544" y="344" type="curve" smooth="yes"/>
      <point x="544" y="349"/>
      <point x="543" y="355"/>
      <point x="543" y="360" type="curve" smooth="yes"/>
      <point x="543" y="365"/>
      <point x="544" y="371"/>
      <point x="544" y="375" type="curve" smooth="yes"/>
      <point x="544" y="383"/>
      <point x="541" y="391"/>
      <point x="541" y="399" type="curve" smooth="yes"/>
      <point x="541" y="409"/>
      <point x="545" y="419"/>
      <point x="545" y="429" type="curve"/>
      <point x="546" y="435"/>
      <point x="550" y="438"/>
      <point x="551" y="445" type="curve" smooth="yes"/>
      <point x="551" y="447"/>
      <point x="549" y="447"/>
      <point x="549" y="450" type="curve"/>
      <point x="547" y="455"/>
      <point x="549" y="462"/>
      <point x="548" y="468" type="curve" smooth="yes"/>
      <point x="546" y="487" type="line" smooth="yes"/>
      <point x="545" y="493"/>
      <point x="542" y="499"/>
      <point x="542" y="505" type="curve"/>
      <point x="539" y="525"/>
      <point x="541" y="537"/>
      <point x="548" y="550" type="curve"/>
      <point x="547" y="558"/>
      <point x="541" y="560"/>
      <point x="542" y="568" type="curve" smooth="yes"/>
      <point x="545" y="579"/>
      <point x="542" y="591"/>
      <point x="542" y="602" type="curve" smooth="yes"/>
      <point x="542" y="631"/>
      <point x="549" y="662"/>
      <point x="542" y="688" type="curve"/>
      <point x="534" y="693"/>
      <point x="516" y="698"/>
      <point x="504" y="694" type="curve" smooth="yes"/>
      <point x="497" y="691"/>
      <point x="496" y="683"/>
      <point x="493" y="677" type="curve"/>
      <point x="491" y="666"/>
      <point x="496" y="662"/>
      <point x="496" y="653" type="curve" smooth="yes"/>
      <point x="496" y="580"/>
      <point x="499" y="520"/>
      <point x="494" y="448" type="curve"/>
      <point x="499" y="428"/>
      <point x="497" y="403"/>
      <point x="492" y="385" type="curve"/>
      <point x="496" y="374"/>
      <point x="491" y="364"/>
      <point x="491" y="352" type="curve" smooth="yes"/>
      <point x="490" y="332"/>
      <point x="498" y="310"/>
      <point x="491" y="292" type="curve"/>
      <point x="494" y="271"/>
      <point x="487" y="243"/>
      <point x="492" y="221" type="curve"/>
      <point x="490" y="200"/>
      <point x="484" y="182"/>
      <point x="478" y="164" type="curve"/>
      <point x="474" y="157"/>
      <point x="471" y="148"/>
      <point x="465" y="142" type="curve"/>
      <point x="464" y="131"/>
      <point x="455" y="127"/>
      <point x="452" y="117" type="curve"/>
      <point x="446" y="114"/>
      <point x="443" y="107"/>
      <point x="437" y="103" type="curve" smooth="yes"/>
      <point x="427" y="95" type="line"/>
      <point x="423" y="92" type="line" smooth="yes"/>
      <point x="421" y="90"/>
      <point x="421" y="91"/>
      <point x="419" y="90" type="curve" smooth="yes"/>
      <point x="407" y="83"/>
      <point x="396" y="74"/>
      <point x="383" y="67" type="curve"/>
      <point x="373" y="64"/>
      <point x="366" y="60"/>
      <point x="358" y="55" type="curve"/>
      <point x="350" y="55"/>
      <point x="345" y="52"/>
      <point x="337" y="51" type="curve" smooth="yes"/>
      <point x="317" y="50"/>
      <point x="297" y="57"/>
      <point x="277" y="53" type="curve"/>
      <point x="266" y="56"/>
      <point x="255" y="62"/>
      <point x="241" y="57" type="curve"/>
      <point x="230" y="67"/>
      <point x="216" y="70"/>
      <point x="205" y="78" type="curve" smooth="yes"/>
      <point x="196" y="85"/>
      <point x="190" y="95"/>
      <point x="178" y="98" type="curve"/>
      <point x="169" y="113"/>
      <point x="154" y="123"/>
      <point x="143" y="135" type="curve"/>
      <point x="138" y="147"/>
      <point x="135" y="161"/>
      <point x="128" y="171" type="curve"/>
      <point x="130" y="185"/>
      <point x="123" y="190"/>
      <point x="120" y="199" type="curve"/>
      <point x="122" y="209"/>
      <point x="120" y="224"/>
      <point x="117" y="234" type="curve"/>
      <point x="120" y="247"/>
      <point x="116" y="258"/>
      <point x="116" y="269" type="curve" smooth="yes"/>
      <point x="114" y="290"/>
      <point x="116" y="312"/>
      <point x="120" y="330" type="curve"/>
      <point x="119" y="342"/>
      <point x="119" y="350"/>
      <point x="120" y="362" type="curve"/>
      <point x="119" y="368"/>
      <point x="116" y="373"/>
      <point x="116" y="381" type="curve" smooth="yes"/>
      <point x="118" y="404"/>
      <point x="115" y="428"/>
      <point x="121" y="448" type="curve"/>
      <point x="117" y="468"/>
      <point x="119" y="489"/>
      <point x="119" y="508" type="curve" smooth="yes"/>
      <point x="120" y="532"/>
      <point x="118" y="559"/>
      <point x="121" y="582" type="curve"/>
      <point x="116" y="593"/>
      <point x="118" y="604"/>
      <point x="116" y="615" type="curve"/>
      <point x="120" y="627"/>
      <point x="121" y="649"/>
      <point x="116" y="660" type="curve"/>
      <point x="119" y="668"/>
      <point x="118" y="683"/>
      <point x="114" y="690" type="curve"/>
      <point x="106" y="697"/>
      <point x="90" y="697"/>
      <point x="78" y="693" type="curve"/>
      <point x="73" y="688"/>
      <point x="73" y="680"/>
      <point x="69" y="675" type="curve"/>
      <point x="74" y="644"/>
      <point x="66" y="606"/>
      <point x="72" y="578" type="curve"/>
      <point x="68" y="561"/>
      <point x="71" y="544"/>
      <point x="70" y="526" type="curve" smooth="yes"/>
      <point x="69" y="471"/>
      <point x="68" y="416"/>
      <point x="68" y="368" type="curve" smooth="yes"/>
      <point x="68" y="363"/>
      <point x="67" y="359"/>
      <point x="67" y="354" type="curve" smooth="yes"/>
      <point x="66" y="342"/>
      <point x="68" y="330"/>
      <point x="68" y="318" type="curve" smooth="yes"/>
      <point x="68" y="305"/>
      <point x="67" y="292"/>
      <point x="67" y="280" type="curve" smooth="yes"/>
      <point x="67" y="272"/>
      <point x="69" y="264"/>
      <point x="68" y="256" type="curve" smooth="yes"/>
    </contour>
    <contour>
      <point x="305" y="0" type="move" name="bottom"/>
    </contour>
    <contour>
      <point x="355" y="10" type="move" name="ogonek"/>
    </contour>
    <contour>
      <point x="315" y="695" type="move" name="top"/>
    </contour>
    <contour>
      <point x="568" y="695" type="move" name="topright"/>
    </contour>
  </outline>
</glyph>
<glyph name="V" format="2">
  <advance width="546"/>
  <unicode hex="0056"/>
  <anchor x="261" y="0" name="bottom"/>
  <anchor x="261" y="695" name="top"/>
  <outline>
    <contour>
      <point x="484" y="551" type="line"/>
      <point x="485" y="555"/>
      <point x="484" y="560"/>
      <point x="485" y="564" type="curve" smooth="yes"/>
      <point x="487" y="568"/>
      <point x="489" y="570"/>
      <point x="491" y="573" type="curve"/>
      <point x="491" y="579"/>
      <point x="491" y="585"/>
      <point x="493" y="589" type="curve" smooth="yes"/>
      <point x="496" y="594"/>
      <point x="497" y="600"/>
      <point x="501" y="603" type="curve"/>
      <point x="501" y="618"/>
      <point x="506" y="629"/>
      <point x="510" y="639" type="curve"/>
      <point x="513" y="652"/>
      <point x="521" y="660"/>
      <point x="521" y="676" type="curve"/>
      <point x="520" y="682"/>
      <point x="518" y="686"/>
      <point x="515" y="690" type="curve"/>
      <point x="506" y="693"/>
      <point x="492" y="691"/>
      <point x="480" y="691" type="curve"/>
      <point x="469" y="684"/>
      <point x="463" y="672"/>
      <point x="465" y="652" type="curve"/>
      <point x="455" y="630"/>
      <point x="442" y="608"/>
      <point x="441" y="583" type="curve"/>
      <point x="433" y="565"/>
      <point x="422" y="549"/>
      <point x="422" y="522" type="curve"/>
      <point x="405" y="482" type="line"/>
      <point x="401" y="468"/>
      <point x="397" y="452"/>
      <point x="389" y="441" type="curve"/>
      <point x="391" y="428"/>
      <point x="385" y="422"/>
      <point x="381" y="414" type="curve"/>
      <point x="377" y="387"/>
      <point x="365" y="370"/>
      <point x="359" y="347" type="curve"/>
      <point x="350" y="338"/>
      <point x="351" y="325"/>
      <point x="348" y="314" type="curve" smooth="yes"/>
      <point x="345" y="302"/>
      <point x="338" y="290"/>
      <point x="338" y="277" type="curve"/>
      <point x="331" y="268"/>
      <point x="329" y="254"/>
      <point x="326" y="241" type="curve"/>
      <point x="322" y="237"/>
      <point x="320" y="231"/>
      <point x="316" y="227" type="curve"/>
      <point x="315" y="218"/>
      <point x="311" y="212"/>
      <point x="308" y="205" type="curve"/>
      <point x="308" y="195"/>
      <point x="303" y="190"/>
      <point x="300" y="183" type="curve"/>
      <point x="298" y="168"/>
      <point x="296" y="153"/>
      <point x="292" y="139" type="curve" smooth="yes"/>
      <point x="287" y="124"/>
      <point x="284" y="109"/>
      <point x="276" y="99" type="curve"/>
      <point x="269" y="101"/>
      <point x="270" y="111"/>
      <point x="267" y="117" type="curve" smooth="yes"/>
      <point x="265" y="124"/>
      <point x="265" y="130"/>
      <point x="262" y="137" type="curve"/>
      <point x="260" y="153"/>
      <point x="254" y="166"/>
      <point x="250" y="180" type="curve"/>
      <point x="249" y="196"/>
      <point x="239" y="205"/>
      <point x="239" y="222" type="curve"/>
      <point x="235" y="236"/>
      <point x="227" y="247"/>
      <point x="226" y="265" type="curve"/>
      <point x="215" y="279"/>
      <point x="212" y="302"/>
      <point x="204" y="320" type="curve" smooth="yes"/>
      <point x="197" y="339"/>
      <point x="194" y="362"/>
      <point x="185" y="378" type="curve" smooth="yes"/>
      <point x="180" y="387"/>
      <point x="178" y="395"/>
      <point x="174" y="405" type="curve" smooth="yes"/>
      <point x="171" y="411" type="line"/>
      <point x="171" y="417"/>
      <point x="170" y="421"/>
      <point x="168" y="425" type="curve"/>
      <point x="162" y="451" type="line"/>
      <point x="159" y="457" type="line" smooth="yes"/>
      <point x="154" y="471"/>
      <point x="150" y="481"/>
      <point x="145" y="492" type="curve"/>
      <point x="143" y="500"/>
      <point x="141" y="508"/>
      <point x="138" y="516" type="curve" smooth="yes"/>
      <point x="131" y="539" type="line" smooth="yes"/>
      <point x="127" y="549"/>
      <point x="124" y="561"/>
      <point x="121" y="569" type="curve" smooth="yes"/>
      <point x="118" y="576"/>
      <point x="115" y="579"/>
      <point x="113" y="585" type="curve" smooth="yes"/>
      <point x="111" y="595"/>
      <point x="107" y="603"/>
      <point x="104" y="612" type="curve" smooth="yes"/>
      <point x="100" y="621"/>
      <point x="98" y="631"/>
      <point x="93" y="639" type="curve"/>
      <point x="90" y="656"/>
      <point x="83" y="678"/>
      <point x="74" y="692" type="curve"/>
      <point x="55" y="701"/>
      <point x="23" y="699"/>
      <point x="25" y="672" type="curve" smooth="yes"/>
      <point x="27" y="656"/>
      <point x="39" y="650"/>
      <point x="41" y="634" type="curve"/>
      <point x="45" y="629"/>
      <point x="46" y="622"/>
      <point x="49" y="615" type="curve"/>
      <point x="50" y="607"/>
      <point x="56" y="603"/>
      <point x="55" y="593" type="curve"/>
      <point x="62" y="586"/>
      <point x="64" y="575"/>
      <point x="69" y="566" type="curve"/>
      <point x="70" y="555"/>
      <point x="74" y="546"/>
      <point x="75" y="535" type="curve"/>
      <point x="79" y="529"/>
      <point x="82" y="523"/>
      <point x="85" y="517" type="curve"/>
      <point x="82" y="506"/>
      <point x="91" y="505"/>
      <point x="93" y="498" type="curve"/>
      <point x="90" y="496"/>
      <point x="91" y="492"/>
      <point x="91" y="487" type="curve"/>
      <point x="97" y="483"/>
      <point x="97" y="475"/>
      <point x="102" y="470" type="curve"/>
      <point x="105" y="445"/>
      <point x="121" y="433"/>
      <point x="119" y="405" type="curve"/>
      <point x="125" y="403"/>
      <point x="124" y="393"/>
      <point x="129" y="390" type="curve"/>
      <point x="130" y="382"/>
      <point x="136" y="379"/>
      <point x="138" y="372" type="curve"/>
      <point x="139" y="360"/>
      <point x="145" y="352"/>
      <point x="147" y="341" type="curve"/>
      <point x="155" y="326"/>
      <point x="158" y="309"/>
      <point x="163" y="294" type="curve" smooth="yes"/>
      <point x="168" y="276"/>
      <point x="176" y="260"/>
      <point x="177" y="243" type="curve"/>
      <point x="181" y="238"/>
      <point x="185" y="232"/>
      <point x="187" y="225" type="curve"/>
      <point x="187" y="215"/>
      <point x="189" y="207"/>
      <point x="193" y="200" type="curve"/>
      <point x="192" y="189"/>
      <point x="200" y="186"/>
      <point x="198" y="173" type="curve"/>
      <point x="202" y="167"/>
      <point x="206" y="161"/>
      <point x="209" y="154" type="curve"/>
      <point x="210" y="141"/>
      <point x="216" y="134"/>
      <point x="215" y="121" type="curve"/>
      <point x="221" y="110"/>
      <point x="225" y="96"/>
      <point x="231" y="83" type="curve"/>
      <point x="233" y="76"/>
      <point x="237" y="72"/>
      <point x="237" y="63" type="curve"/>
      <point x="241" y="58"/>
      <point x="244" y="52"/>
      <point x="243" y="42" type="curve"/>
      <point x="248" y="33"/>
      <point x="254" y="25"/>
      <point x="254" y="11" type="curve"/>
      <point x="260" y="2"/>
      <point x="259" y="-13"/>
      <point x="270" y="-16" type="curve"/>
      <point x="289" y="-18"/>
      <point x="290" y="-2"/>
      <point x="298" y="6" type="curve"/>
      <point x="303" y="28"/>
      <point x="309" y="49"/>
      <point x="319" y="66" type="curve"/>
      <point x="320" y="76"/>
      <point x="324" y="83"/>
      <point x="324" y="94" type="curve"/>
      <point x="330" y="107"/>
      <point x="334" y="123"/>
      <point x="343" y="135" type="curve"/>
      <point x="345" y="153"/>
      <point x="351" y="167"/>
      <point x="357" y="180" type="curve"/>
      <point x="357" y="186"/>
      <point x="360" y="191"/>
      <point x="359" y="198" type="curve"/>
      <point x="368" y="214"/>
      <point x="370" y="237"/>
      <point x="381" y="251" type="curve"/>
      <point x="381" y="271"/>
      <point x="392" y="281"/>
      <point x="393" y="301" type="curve"/>
      <point x="408" y="326"/>
      <point x="408" y="367"/>
      <point x="426" y="388" type="curve"/>
      <point x="426" y="398"/>
      <point x="430" y="404"/>
      <point x="433" y="411" type="curve" smooth="yes"/>
      <point x="437" y="419"/>
      <point x="438" y="428"/>
      <point x="444" y="432" type="curve"/>
      <point x="443" y="446"/>
      <point x="451" y="453"/>
      <point x="450" y="466" type="curve"/>
      <point x="455" y="470"/>
      <point x="456" y="480"/>
      <point x="462" y="485" type="curve"/>
      <point x="460" y="493"/>
      <point x="465" y="500"/>
      <point x="468" y="507" type="curve" smooth="yes"/>
      <point x="471" y="515"/>
      <point x="472" y="523"/>
      <point x="474" y="531" type="curve"/>
    </contour>
  </outline>
</glyph>
<glyph name="X" format="2">
  <advance width="468"/>
  <unicode hex="0058"/>
  <anchor x="240" y="0" name="bottom"/>
  <anchor x="240" y="695" name="top"/>
  <outline>
    <contour>
      <point x="230" y="419" type="line"/>
      <point x="222" y="424"/>
      <point x="221" y="433"/>
      <point x="217" y="441" type="curve" smooth="yes"/>
      <point x="204" y="463" type="line" smooth="yes"/>
      <point x="196" y="478"/>
      <point x="188" y="493"/>
      <point x="179" y="508" type="curve"/>
      <point x="181" y="520"/>
      <point x="173" y="521"/>
      <point x="174" y="532" type="curve"/>
      <point x="168" y="539"/>
      <point x="165" y="548"/>
      <point x="160" y="556" type="curve" smooth="yes"/>
      <point x="156" y="564"/>
      <point x="148" y="571"/>
      <point x="146" y="581" type="curve"/>
      <point x="141" y="586"/>
      <point x="136" y="592"/>
      <point x="132" y="598" type="curve"/>
      <point x="129" y="605"/>
      <point x="127" y="611"/>
      <point x="122" y="616" type="curve"/>
      <point x="123" y="625"/>
      <point x="114" y="626"/>
      <point x="113" y="635" type="curve" smooth="yes"/>
      <point x="113" y="646" type="line"/>
      <point x="104" y="654"/>
      <point x="98" y="665"/>
      <point x="92" y="677" type="curve"/>
      <point x="82" y="687"/>
      <point x="63" y="687"/>
      <point x="45" y="685" type="curve"/>
      <point x="40" y="680"/>
      <point x="33" y="677"/>
      <point x="33" y="668" type="curve" smooth="yes"/>
      <point x="32" y="651"/>
      <point x="50" y="651"/>
      <point x="47" y="631" type="curve"/>
      <point x="51" y="628"/>
      <point x="55" y="626"/>
      <point x="58" y="622" type="curve"/>
      <point x="59" y="612"/>
      <point x="66" y="609"/>
      <point x="69" y="600" type="curve"/>
      <point x="74" y="593"/>
      <point x="76" y="584"/>
      <point x="80" y="576" type="curve"/>
      <point x="85" y="571"/>
      <point x="91" y="566"/>
      <point x="94" y="559" type="curve" smooth="yes"/>
      <point x="96" y="555"/>
      <point x="97" y="551"/>
      <point x="97" y="545" type="curve"/>
      <point x="102" y="539"/>
      <point x="105" y="532"/>
      <point x="110" y="526" type="curve"/>
      <point x="112" y="514"/>
      <point x="119" y="507"/>
      <point x="124" y="497" type="curve" smooth="yes"/>
      <point x="128" y="488"/>
      <point x="134" y="479"/>
      <point x="140" y="471" type="curve"/>
      <point x="142" y="461"/>
      <point x="148" y="454"/>
      <point x="152" y="447" type="curve"/>
      <point x="152" y="442"/>
      <point x="155" y="439"/>
      <point x="154" y="433" type="curve"/>
      <point x="159" y="425"/>
      <point x="167" y="420"/>
      <point x="167" y="408" type="curve"/>
      <point x="170" y="405"/>
      <point x="174" y="403"/>
      <point x="176" y="401" type="curve" smooth="yes"/>
      <point x="177" y="400"/>
      <point x="176" y="398"/>
      <point x="177" y="397" type="curve" smooth="yes"/>
      <point x="179" y="394"/>
      <point x="182" y="394"/>
      <point x="183" y="392" type="curve"/>
      <point x="185" y="390"/>
      <point x="185" y="386"/>
      <point x="187" y="384" type="curve"/>
      <point x="193" y="375"/>
      <point x="204" y="367"/>
      <point x="206" y="357" type="curve" smooth="yes"/>
      <point x="209" y="336"/>
      <point x="190" y="323"/>
      <point x="185" y="302" type="curve"/>
      <point x="178" y="294"/>
      <point x="166" y="291"/>
      <point x="161" y="280" type="curve" smooth="yes"/>
      <point x="159" y="275"/>
      <point x="162" y="273"/>
      <point x="161" y="266" type="curve"/>
      <point x="150" y="249"/>
      <point x="141" y="229"/>
      <point x="131" y="211" type="curve"/>
      <point x="128" y="208"/>
      <point x="131" y="200"/>
      <point x="128" y="196" type="curve"/>
      <point x="125" y="196"/>
      <point x="124" y="194"/>
      <point x="119" y="195" type="curve"/>
      <point x="120" y="174"/>
      <point x="100" y="174"/>
      <point x="95" y="160" type="curve" smooth="yes"/>
      <point x="94" y="155"/>
      <point x="98" y="155"/>
      <point x="97" y="149" type="curve"/>
      <point x="93" y="142"/>
      <point x="89" y="135"/>
      <point x="84" y="130" type="curve"/>
      <point x="81" y="118"/>
      <point x="74" y="111"/>
      <point x="71" y="100" type="curve" smooth="yes"/>
      <point x="68" y="89"/>
      <point x="61" y="82"/>
      <point x="57" y="72" type="curve"/>
      <point x="49" y="67"/>
      <point x="42" y="62"/>
      <point x="36" y="55" type="curve"/>
      <point x="35" y="47"/>
      <point x="36" y="46"/>
      <point x="36" y="37" type="curve"/>
      <point x="33" y="33"/>
      <point x="32" y="28"/>
      <point x="30" y="23" type="curve" smooth="yes"/>
      <point x="28" y="18"/>
      <point x="25" y="13"/>
      <point x="25" y="6" type="curve"/>
      <point x="33" y="-7"/>
      <point x="58" y="-9"/>
      <point x="74" y="-4" type="curve"/>
      <point x="81" y="4"/>
      <point x="87" y="14"/>
      <point x="93" y="23" type="curve"/>
      <point x="101" y="31"/>
      <point x="104" y="43"/>
      <point x="112" y="50" type="curve"/>
      <point x="112" y="55"/>
      <point x="116" y="57"/>
      <point x="115" y="62" type="curve"/>
      <point x="126" y="69"/>
      <point x="127" y="85"/>
      <point x="139" y="91" type="curve"/>
      <point x="137" y="103"/>
      <point x="143" y="108"/>
      <point x="145" y="116" type="curve"/>
      <point x="148" y="122"/>
      <point x="156" y="120"/>
      <point x="158" y="127" type="curve"/>
      <point x="159" y="143"/>
      <point x="167" y="150"/>
      <point x="169" y="165" type="curve"/>
      <point x="174" y="169"/>
      <point x="174" y="176"/>
      <point x="177" y="181" type="curve" smooth="yes"/>
      <point x="178" y="182"/>
      <point x="181" y="182"/>
      <point x="182" y="184" type="curve" smooth="yes"/>
      <point x="184" y="188"/>
      <point x="183" y="192"/>
      <point x="183" y="198" type="curve"/>
      <point x="189" y="201"/>
      <point x="192" y="206"/>
      <point x="196" y="211" type="curve"/>
      <point x="196" y="223"/>
      <point x="203" y="228"/>
      <point x="207" y="236" type="curve" smooth="yes"/>
      <point x="211" y="243"/>
      <point x="214" y="253"/>
      <point x="220" y="259" type="curve"/>
      <point x="221" y="272"/>
      <point x="225" y="282"/>
      <point x="237" y="285" type="curve"/>
      <point x="244" y="284"/>
      <point x="245" y="276"/>
      <point x="250" y="272" type="curve"/>
      <point x="251" y="265"/>
      <point x="256" y="261"/>
      <point x="258" y="255" type="curve" smooth="yes"/>
      <point x="260" y="250"/>
      <point x="261" y="243"/>
      <point x="262" y="237" type="curve"/>
      <point x="265" y="232"/>
      <point x="271" y="231"/>
      <point x="273" y="226" type="curve" smooth="yes"/>
      <point x="276" y="219"/>
      <point x="280" y="212"/>
      <point x="284" y="206" type="curve"/>
      <point x="287" y="197"/>
      <point x="291" y="189"/>
      <point x="295" y="182" type="curve" smooth="yes"/>
      <point x="297" y="178"/>
      <point x="297" y="177"/>
      <point x="295" y="173" type="curve"/>
      <point x="301" y="168"/>
      <point x="305" y="162"/>
      <point x="310" y="155" type="curve"/>
      <point x="310" y="145"/>
      <point x="318" y="144"/>
      <point x="321" y="136" type="curve"/>
      <point x="320" y="126"/>
      <point x="327" y="123"/>
      <point x="325" y="112" type="curve"/>
      <point x="330" y="106"/>
      <point x="334" y="98"/>
      <point x="339" y="92" type="curve"/>
      <point x="342" y="76"/>
      <point x="356" y="70"/>
      <point x="358" y="53" type="curve"/>
      <point x="366" y="46"/>
      <point x="372" y="39"/>
      <point x="377" y="30" type="curve"/>
      <point x="379" y="23"/>
      <point x="383" y="18"/>
      <point x="383" y="10" type="curve"/>
      <point x="388" y="6"/>
      <point x="392" y="2"/>
      <point x="396" y="-3" type="curve"/>
      <point x="408" y="-5"/>
      <point x="418" y="-9"/>
      <point x="434" y="-7" type="curve"/>
      <point x="436" y="-4"/>
      <point x="439" y="0"/>
      <point x="443" y="2" type="curve"/>
      <point x="444" y="14"/>
      <point x="440" y="21"/>
      <point x="442" y="34" type="curve"/>
      <point x="438" y="40"/>
      <point x="430" y="42"/>
      <point x="427" y="49" type="curve" smooth="yes"/>
      <point x="425" y="54"/>
      <point x="425" y="60"/>
      <point x="424" y="65" type="curve"/>
      <point x="418" y="72"/>
      <point x="414" y="83"/>
      <point x="407" y="89" type="curve"/>
      <point x="399" y="104"/>
      <point x="388" y="117"/>
      <point x="382" y="133" type="curve" smooth="yes"/>
      <point x="380" y="139"/>
      <point x="381" y="150"/>
      <point x="379" y="157" type="curve"/>
      <point x="374" y="166"/>
      <point x="365" y="172"/>
      <point x="358" y="180" type="curve"/>
      <point x="354" y="192"/>
      <point x="345" y="198"/>
      <point x="343" y="212" type="curve"/>
      <point x="335" y="220"/>
      <point x="332" y="233"/>
      <point x="324" y="240" type="curve"/>
      <point x="324" y="245"/>
      <point x="322" y="248"/>
      <point x="321" y="251" type="curve"/>
      <point x="309" y="264"/>
      <point x="301" y="282"/>
      <point x="291" y="297" type="curve"/>
      <point x="284" y="318"/>
      <point x="271" y="333"/>
      <point x="267" y="356" type="curve"/>
      <point x="272" y="368"/>
      <point x="279" y="377"/>
      <point x="286" y="387" type="curve" smooth="yes"/>
      <point x="293" y="397"/>
      <point x="299" y="411"/>
      <point x="308" y="419" type="curve"/>
      <point x="311" y="436"/>
      <point x="324" y="444"/>
      <point x="329" y="461" type="curve"/>
      <point x="335" y="465"/>
      <point x="339" y="473"/>
      <point x="345" y="478" type="curve"/>
      <point x="344" y="485"/>
      <point x="348" y="487"/>
      <point x="348" y="494" type="curve"/>
      <point x="353" y="498"/>
      <point x="356" y="504"/>
      <point x="359" y="510" type="curve" smooth="yes"/>
      <point x="362" y="516"/>
      <point x="365" y="527"/>
      <point x="368" y="530" type="curve"/>
      <point x="370" y="531"/>
      <point x="369" y="532"/>
      <point x="370" y="533" type="curve"/>
      <point x="374" y="540"/>
      <point x="381" y="544"/>
      <point x="386" y="551" type="curve"/>
      <point x="387" y="559"/>
      <point x="393" y="564"/>
      <point x="394" y="574" type="curve"/>
      <point x="396" y="579"/>
      <point x="399" y="584"/>
      <point x="403" y="588" type="curve"/>
      <point x="405" y="602"/>
      <point x="413" y="609"/>
      <point x="416" y="622" type="curve"/>
      <point x="421" y="628"/>
      <point x="427" y="634"/>
      <point x="428" y="644" type="curve"/>
      <point x="435" y="651"/>
      <point x="444" y="657"/>
      <point x="442" y="674" type="curve"/>
      <point x="440" y="675"/>
      <point x="439" y="677"/>
      <point x="439" y="680" type="curve"/>
      <point x="427" y="688"/>
      <point x="406" y="688"/>
      <point x="389" y="683" type="curve"/>
      <point x="383" y="674"/>
      <point x="379" y="664"/>
      <point x="371" y="658" type="curve"/>
      <point x="372" y="651"/>
      <point x="367" y="649"/>
      <point x="368" y="642" type="curve"/>
      <point x="352" y="617"/>
      <point x="341" y="588"/>
      <point x="321" y="566" type="curve"/>
      <point x="318" y="550"/>
      <point x="311" y="538"/>
      <point x="307" y="524" type="curve"/>
      <point x="303" y="519"/>
      <point x="299" y="514"/>
      <point x="294" y="510" type="curve"/>
      <point x="291" y="498"/>
      <point x="284" y="489"/>
      <point x="277" y="482" type="curve"/>
      <point x="273" y="470"/>
      <point x="266" y="461"/>
      <point x="264" y="447" type="curve"/>
      <point x="257" y="438"/>
      <point x="256" y="423"/>
      <point x="244" y="419" type="curve"/>
    </contour>
  </outline>
</glyph>
<glyph name="bracketleft" format="2">
  <advance width="223"/>
  <unicode hex="005B"/>
  <outline>
    <contour>
      <point x="105" y="174" type="line" smooth="yes"/>
      <point x="105" y="196"/>
      <point x="106" y="215"/>
      <point x="105" y="235" type="curve" smooth="yes"/>
      <point x="105" y="251"/>
      <point x="106" y="271"/>
      <point x="106" y="284" type="curve" smooth="yes"/>
      <point x="106" y="316"/>
      <point x="106" y="353"/>
      <point x="105" y="387" type="curve" smooth="yes"/>
      <point x="104" y="418" type="line" smooth="yes"/>
      <point x="102" y="449"/>
      <point x="102" y="513"/>
      <point x="103" y="574" type="curve" smooth="yes"/>
      <point x="103" y="599"/>
      <point x="101" y="623"/>
      <point x="101" y="647" type="curve" smooth="yes"/>
      <point x="102" y="715"/>
      <point x="101" y="692"/>
      <point x="101" y="726" type="curve" smooth="yes"/>
      <point x="101" y="735"/>
      <point x="100" y="743"/>
      <point x="105" y="751" type="curve"/>
      <point x="121" y="751"/>
      <point x="134" y="748"/>
      <point x="146" y="745" type="curve"/>
      <point x="161" y="746"/>
      <point x="175" y="747"/>
      <point x="180" y="758" type="curve"/>
      <point x="179" y="765"/>
      <point x="179" y="772"/>
      <point x="179" y="780" type="curve" smooth="yes"/>
      <point x="177" y="799" type="line"/>
      <point x="169" y="805"/>
      <point x="153" y="805"/>
      <point x="142" y="802" type="curve"/>
      <point x="121" y="803"/>
      <point x="99" y="803"/>
      <point x="80" y="802" type="curve" smooth="yes"/>
      <point x="69" y="802"/>
      <point x="57" y="803"/>
      <point x="50" y="796" type="curve"/>
      <point x="50" y="778"/>
      <point x="48" y="754"/>
      <point x="52" y="734" type="curve"/>
      <point x="50" y="717" type="line" smooth="yes"/>
      <point x="50" y="713"/>
      <point x="52" y="709"/>
      <point x="52" y="706" type="curve" smooth="yes"/>
      <point x="52" y="698"/>
      <point x="50" y="697"/>
      <point x="50" y="689" type="curve" smooth="yes"/>
      <point x="51" y="671"/>
      <point x="51" y="653"/>
      <point x="53" y="638" type="curve"/>
      <point x="51" y="631"/>
      <point x="52" y="621"/>
      <point x="50" y="614" type="curve"/>
      <point x="54" y="587"/>
      <point x="52" y="556"/>
      <point x="52" y="524" type="curve" smooth="yes"/>
      <point x="51" y="488"/>
      <point x="54" y="449"/>
      <point x="51" y="449" type="curve"/>
      <point x="55" y="418"/>
      <point x="53" y="269"/>
      <point x="54" y="419" type="curve" smooth="yes"/>
      <point x="54" y="347" type="line" smooth="yes"/>
      <point x="54" y="344"/>
      <point x="55" y="338"/>
      <point x="55" y="334" type="curve" smooth="yes"/>
      <point x="54" y="235"/>
      <point x="54" y="133"/>
      <point x="54" y="27" type="curve" smooth="yes"/>
      <point x="54" y="14"/>
      <point x="52" y="9"/>
      <point x="51" y="2" type="curve"/>
      <point x="54" y="-15"/>
      <point x="53" y="-30"/>
      <point x="52" y="-43" type="curve"/>
      <point x="54" y="-49"/>
      <point x="56" y="-53"/>
      <point x="55" y="-60" type="curve"/>
      <point x="58" y="-69"/>
      <point x="47" y="-69"/>
      <point x="51" y="-76" type="curve" smooth="yes"/>
      <point x="54" y="-83"/>
      <point x="61" y="-87"/>
      <point x="71" y="-87" type="curve" smooth="yes"/>
      <point x="78" y="-87"/>
      <point x="88" y="-89"/>
      <point x="98" y="-88" type="curve" smooth="yes"/>
      <point x="103" y="-87"/>
      <point x="111" y="-87"/>
      <point x="117" y="-87" type="curve"/>
      <point x="118" y="-90"/>
      <point x="119" y="-87"/>
      <point x="121" y="-87" type="curve" smooth="yes"/>
      <point x="129" y="-87"/>
      <point x="140" y="-87"/>
      <point x="148" y="-90" type="curve"/>
      <point x="158" y="-87"/>
      <point x="166" y="-88"/>
      <point x="176" y="-85" type="curve"/>
      <point x="185" y="-80"/>
      <point x="183" y="-69"/>
      <point x="182" y="-57" type="curve" smooth="yes"/>
      <point x="182" y="-49"/>
      <point x="184" y="-41"/>
      <point x="180" y="-36" type="curve" smooth="yes"/>
      <point x="174" y="-30"/>
      <point x="163" y="-30"/>
      <point x="152" y="-33" type="curve"/>
      <point x="143" y="-32"/>
      <point x="131" y="-34"/>
      <point x="123" y="-31" type="curve"/>
      <point x="118" y="-34"/>
      <point x="110" y="-36"/>
      <point x="106" y="-34" type="curve"/>
      <point x="102" y="-16"/>
      <point x="106" y="11"/>
      <point x="106" y="53" type="curve" smooth="yes"/>
      <point x="106" y="66"/>
      <point x="105" y="80"/>
      <point x="105" y="96" type="curve" smooth="yes"/>
      <point x="105" y="117"/>
      <point x="106" y="138"/>
      <point x="105" y="151" type="curve" smooth="yes"/>
    </contour>
  </outline>
</glyph>
<glyph name="a" format="2">
  <advance width="502"/>
  <unicode hex="0061"/>
  <anchor x="245" y="0" name="bottom"/>
  <anchor x="419" y="10" name="ogonek"/>
  <anchor x="245" y="436" name="top"/>
  <outline>
    <contour>
      <point x="410" y="2"/>
      <point x="421" y="2"/>
      <point x="430" y="0" type="curve"/>
      <point x="437" y="4"/>
      <point x="446" y="6"/>
      <point x="449" y="14" type="curve" smooth="yes"/>
      <point x="455" y="26"/>
      <point x="450" y="44"/>
      <point x="452" y="55" type="curve"/>
      <point x="448" y="62"/>
      <point x="448" y="74"/>
      <point x="446" y="83" type="curve"/>
      <point x="450" y="98"/>
      <point x="448" y="112"/>
      <point x="448" y="129" type="curve" smooth="yes"/>
      <point x="447" y="137"/>
      <point x="452" y="139"/>
      <point x="451" y="146" type="curve" smooth="yes"/>
      <point x="444" y="199"/>
      <point x="448" y="251"/>
      <point x="444" y="306" type="curve"/>
      <point x="449" y="321"/>
      <point x="449" y="344"/>
      <point x="446" y="359" type="curve"/>
      <point x="448" y="363"/>
      <point x="448" y="370"/>
      <point x="449" y="375" type="curve"/>
      <point x="446" y="391"/>
      <point x="449" y="414"/>
      <point x="443" y="427" type="curve"/>
      <point x="434" y="434"/>
      <point x="411" y="437"/>
      <point x="403" y="427" type="curve"/>
      <point x="401" y="420"/>
      <point x="404" y="410"/>
      <point x="403" y="400" type="curve" smooth="yes"/>
      <point x="403" y="389"/>
      <point x="403" y="374"/>
      <point x="397" y="369" type="curve"/>
      <point x="382" y="373"/>
      <point x="378" y="390"/>
      <point x="369" y="402" type="curve"/>
      <point x="358" y="405"/>
      <point x="350" y="411"/>
      <point x="342" y="416" type="curve" smooth="yes"/>
      <point x="334" y="422"/>
      <point x="323" y="425"/>
      <point x="315" y="432" type="curve"/>
      <point x="302" y="431"/>
      <point x="292" y="434"/>
      <point x="282" y="436" type="curve" smooth="yes"/>
      <point x="244" y="440"/>
      <point x="200" y="440"/>
      <point x="170" y="427" type="curve"/>
      <point x="161" y="426"/>
      <point x="153" y="423"/>
      <point x="145" y="421" type="curve"/>
      <point x="130" y="408"/>
      <point x="116" y="395"/>
      <point x="99" y="384" type="curve"/>
      <point x="91" y="375"/>
      <point x="82" y="366"/>
      <point x="76" y="354" type="curve"/>
      <point x="67" y="345"/>
      <point x="63" y="331"/>
      <point x="54" y="321" type="curve"/>
      <point x="49" y="294"/>
      <point x="38" y="271"/>
      <point x="39" y="238" type="curve"/>
      <point x="37" y="232"/>
      <point x="37" y="224"/>
      <point x="35" y="217" type="curve"/>
      <point x="38" y="207"/>
      <point x="36" y="195"/>
      <point x="36" y="183" type="curve" smooth="yes"/>
      <point x="37" y="169"/>
      <point x="39" y="156"/>
      <point x="36" y="143" type="curve"/>
      <point x="38" y="134"/>
      <point x="47" y="132"/>
      <point x="49" y="123" type="curve" smooth="yes"/>
      <point x="51" y="103"/>
      <point x="62" y="92"/>
      <point x="66" y="74" type="curve"/>
      <point x="72" y="66"/>
      <point x="79" y="59"/>
      <point x="85" y="52" type="curve"/>
      <point x="90" y="43"/>
      <point x="101" y="39"/>
      <point x="106" y="30" type="curve"/>
      <point x="109" y="27"/>
      <point x="117" y="28"/>
      <point x="118" y="23" type="curve"/>
      <point x="122" y="21"/>
      <point x="124" y="17"/>
      <point x="128" y="14" type="curve"/>
      <point x="136" y="14"/>
      <point x="139" y="9"/>
      <point x="145" y="8" type="curve"/>
      <point x="148" y="2"/>
      <point x="159" y="5"/>
      <point x="162" y="0" type="curve"/>
      <point x="175" y="1"/>
      <point x="183" y="-3"/>
      <point x="192" y="-5" type="curve"/>
      <point x="205" y="-4"/>
      <point x="215" y="-6"/>
      <point x="224" y="-10" type="curve"/>
      <point x="232" y="-5"/>
      <point x="239" y="-8"/>
      <point x="247" y="-10" type="curve"/>
      <point x="266" y="-4"/>
      <point x="292" y="-6"/>
      <point x="310" y="0" type="curve" smooth="yes"/>
      <point x="319" y="4"/>
      <point x="326" y="9"/>
      <point x="334" y="14" type="curve"/>
      <point x="339" y="16"/>
      <point x="345" y="15"/>
      <point x="350" y="17" type="curve"/>
      <point x="359" y="23"/>
      <point x="366" y="30"/>
      <point x="375" y="36" type="curve"/>
      <point x="384" y="46"/>
      <point x="388" y="62"/>
      <point x="405" y="64" type="curve"/>
      <point x="409" y="48"/>
      <point x="402" y="22"/>
      <point x="403" y="8" type="curve"/>
    </contour>
    <contour>
      <point x="140" y="80" type="line" smooth="yes"/>
      <point x="138" y="82"/>
      <point x="136" y="82"/>
      <point x="134" y="83" type="curve" smooth="yes"/>
      <point x="126" y="89"/>
      <point x="118" y="100"/>
      <point x="109" y="107" type="curve"/>
      <point x="105" y="117"/>
      <point x="101" y="126"/>
      <point x="95" y="134" type="curve"/>
      <point x="93" y="143"/>
      <point x="91" y="151"/>
      <point x="87" y="157" type="curve"/>
      <point x="86" y="172"/>
      <point x="84" y="183"/>
      <point x="82" y="197" type="curve" smooth="yes"/>
      <point x="77" y="223"/>
      <point x="90" y="250"/>
      <point x="93" y="277" type="curve"/>
      <point x="100" y="289"/>
      <point x="107" y="299"/>
      <point x="110" y="315" type="curve"/>
      <point x="116" y="321"/>
      <point x="124" y="326"/>
      <point x="126" y="336" type="curve"/>
      <point x="136" y="341"/>
      <point x="143" y="349"/>
      <point x="150" y="358" type="curve"/>
      <point x="164" y="363"/>
      <point x="174" y="372"/>
      <point x="186" y="380" type="curve"/>
      <point x="191" y="380"/>
      <point x="196" y="382"/>
      <point x="203" y="381" type="curve"/>
      <point x="212" y="383"/>
      <point x="216" y="390"/>
      <point x="225" y="392" type="curve"/>
      <point x="249" y="388"/>
      <point x="286" y="397"/>
      <point x="298" y="381" type="curve"/>
      <point x="307" y="382"/>
      <point x="312" y="380"/>
      <point x="318" y="378" type="curve" smooth="yes"/>
      <point x="325" y="377"/>
      <point x="325" y="371"/>
      <point x="331" y="370" type="curve"/>
      <point x="334" y="367"/>
      <point x="340" y="366"/>
      <point x="345" y="364" type="curve"/>
      <point x="370" y="340" type="line"/>
      <point x="371" y="334"/>
      <point x="378" y="333"/>
      <point x="378" y="326" type="curve"/>
      <point x="381" y="321"/>
      <point x="385" y="318"/>
      <point x="388" y="313" type="curve"/>
      <point x="390" y="303"/>
      <point x="394" y="293"/>
      <point x="400" y="287" type="curve"/>
      <point x="401" y="273"/>
      <point x="405" y="264"/>
      <point x="408" y="254" type="curve"/>
      <point x="409" y="219"/>
      <point x="408" y="193"/>
      <point x="405" y="162" type="curve" smooth="yes"/>
      <point x="403" y="149"/>
      <point x="395" y="141"/>
      <point x="394" y="127" type="curve"/>
      <point x="388" y="122"/>
      <point x="384" y="114"/>
      <point x="381" y="105" type="curve"/>
      <point x="368" y="91"/>
      <point x="352" y="80"/>
      <point x="339" y="66" type="curve"/>
      <point x="329" y="64"/>
      <point x="322" y="59"/>
      <point x="315" y="53" type="curve"/>
      <point x="307" y="53"/>
      <point x="302" y="51"/>
      <point x="298" y="47" type="curve"/>
      <point x="289" y="48"/>
      <point x="283" y="46"/>
      <point x="276" y="44" type="curve"/>
      <point x="250" y="44"/>
      <point x="228" y="41"/>
      <point x="205" y="45" type="curve"/>
      <point x="184" y="51"/>
      <point x="166" y="59"/>
      <point x="151" y="71" type="curve" smooth="yes"/>
    </contour>
  </outline>
</glyph>
<glyph name="b" format="2">
  <advance width="495"/>
  <unicode hex="0062"/>
  <anchor x="244" y="0" name="bottom"/>
  <anchor x="244" y="218" name="center"/>
  <anchor x="244" y="436" name="top"/>
  <outline>
    <contour>
      <point x="320" y="438" type="line"/>
      <point x="306" y="438"/>
      <point x="292" y="444"/>
      <point x="277" y="444" type="curve"/>
      <point x="270" y="445"/>
      <point x="263" y="443"/>
      <point x="255" y="443" type="curve" smooth="yes"/>
      <point x="248" y="443"/>
      <point x="241" y="445"/>
      <point x="235" y="444" type="curve"/>
      <point x="219" y="444"/>
      <point x="204" y="438"/>
      <point x="189" y="436" type="curve"/>
      <point x="181" y="432"/>
      <point x="175" y="425"/>
      <point x="162" y="425" type="curve"/>
      <point x="158" y="420"/>
      <point x="156" y="413"/>
      <point x="148" y="411" type="curve"/>
      <point x="132" y="397" type="line"/>
      <point x="126" y="394"/>
      <point x="124" y="386"/>
      <point x="116" y="384" type="curve"/>
      <point x="111" y="380"/>
      <point x="109" y="371"/>
      <point x="99" y="372" type="curve"/>
      <point x="86" y="396"/>
      <point x="98" y="435"/>
      <point x="93" y="468" type="curve"/>
      <point x="95" y="476"/>
      <point x="97" y="485"/>
      <point x="98" y="495" type="curve"/>
      <point x="92" y="513"/>
      <point x="100" y="533"/>
      <point x="93" y="553" type="curve"/>
      <point x="98" y="567"/>
      <point x="96" y="585"/>
      <point x="96" y="597" type="curve" smooth="yes"/>
      <point x="96" y="602"/>
      <point x="98" y="606"/>
      <point x="98" y="610" type="curve" smooth="yes"/>
      <point x="96" y="661"/>
      <point x="96" y="713"/>
      <point x="96" y="760" type="curve" smooth="yes"/>
      <point x="96" y="769"/>
      <point x="101" y="780"/>
      <point x="93" y="788" type="curve"/>
      <point x="77" y="793"/>
      <point x="60" y="786"/>
      <point x="50" y="780" type="curve"/>
      <point x="44" y="767"/>
      <point x="43" y="737"/>
      <point x="49" y="722" type="curve"/>
      <point x="44" y="708"/>
      <point x="50" y="693"/>
      <point x="50" y="678" type="curve" smooth="yes"/>
      <point x="50" y="672"/>
      <point x="49" y="666"/>
      <point x="49" y="660" type="curve" smooth="yes"/>
      <point x="47" y="637"/>
      <point x="53" y="612"/>
      <point x="47" y="596" type="curve"/>
      <point x="53" y="568"/>
      <point x="46" y="533"/>
      <point x="50" y="503" type="curve"/>
      <point x="52" y="495"/>
      <point x="46" y="495"/>
      <point x="47" y="487" type="curve"/>
      <point x="56" y="472"/>
      <point x="49" y="451"/>
      <point x="50" y="430" type="curve" smooth="yes"/>
      <point x="51" y="419"/>
      <point x="54" y="408"/>
      <point x="53" y="399" type="curve" smooth="yes"/>
      <point x="53" y="391"/>
      <point x="49" y="384"/>
      <point x="49" y="378" type="curve"/>
      <point x="51" y="372"/>
      <point x="52" y="364"/>
      <point x="53" y="358" type="curve"/>
      <point x="49" y="326"/>
      <point x="53" y="295"/>
      <point x="50" y="266" type="curve"/>
      <point x="51" y="259"/>
      <point x="55" y="254"/>
      <point x="55" y="246" type="curve"/>
      <point x="48" y="218"/>
      <point x="57" y="188"/>
      <point x="50" y="162" type="curve"/>
      <point x="56" y="139"/>
      <point x="52" y="108"/>
      <point x="55" y="85" type="curve"/>
      <point x="51" y="77"/>
      <point x="50" y="67"/>
      <point x="49" y="57" type="curve" smooth="yes"/>
      <point x="49" y="48"/>
      <point x="56" y="46"/>
      <point x="57" y="38" type="curve"/>
      <point x="55" y="29"/>
      <point x="51" y="17"/>
      <point x="55" y="8" type="curve"/>
      <point x="61" y="0"/>
      <point x="80" y="0"/>
      <point x="90" y="4" type="curve"/>
      <point x="92" y="7"/>
      <point x="100" y="5"/>
      <point x="99" y="11" type="curve"/>
      <point x="105" y="15"/>
      <point x="100" y="29"/>
      <point x="99" y="36" type="curve"/>
      <point x="104" y="44"/>
      <point x="95" y="57"/>
      <point x="101" y="64" type="curve"/>
      <point x="112" y="62"/>
      <point x="116" y="52"/>
      <point x="121" y="44" type="curve"/>
      <point x="133" y="38"/>
      <point x="141" y="28"/>
      <point x="150" y="19" type="curve"/>
      <point x="159" y="17"/>
      <point x="165" y="11"/>
      <point x="173" y="8" type="curve"/>
      <point x="175" y="3"/>
      <point x="180" y="11"/>
      <point x="183" y="6" type="curve"/>
      <point x="186" y="5"/>
      <point x="186" y="0"/>
      <point x="192" y="1" type="curve" smooth="yes"/>
      <point x="227" y="3"/>
      <point x="263" y="-2"/>
      <point x="299" y="3" type="curve"/>
      <point x="307" y="7"/>
      <point x="316" y="9"/>
      <point x="328" y="8" type="curve"/>
      <point x="338" y="16"/>
      <point x="351" y="15"/>
      <point x="362" y="20" type="curve" smooth="yes"/>
      <point x="374" y="26"/>
      <point x="381" y="38"/>
      <point x="392" y="44" type="curve"/>
      <point x="396" y="49"/>
      <point x="401" y="53"/>
      <point x="406" y="57" type="curve" smooth="yes"/>
      <point x="412" y="61"/>
      <point x="414" y="67"/>
      <point x="422" y="69" type="curve"/>
      <point x="424" y="75"/>
      <point x="427" y="79"/>
      <point x="432" y="82" type="curve"/>
      <point x="434" y="89"/>
      <point x="437" y="97"/>
      <point x="443" y="101" type="curve"/>
      <point x="441" y="114"/>
      <point x="448" y="118"/>
      <point x="451" y="127" type="curve"/>
      <point x="450" y="139"/>
      <point x="455" y="143"/>
      <point x="452" y="153" type="curve"/>
      <point x="459" y="166"/>
      <point x="461" y="185"/>
      <point x="460" y="206" type="curve"/>
      <point x="454" y="219"/>
      <point x="457" y="232"/>
      <point x="457" y="250" type="curve"/>
      <point x="453" y="265"/>
      <point x="452" y="274"/>
      <point x="452" y="291" type="curve"/>
      <point x="447" y="307"/>
      <point x="444" y="323"/>
      <point x="438" y="337" type="curve"/>
      <point x="432" y="341"/>
      <point x="431" y="350"/>
      <point x="427" y="356" type="curve"/>
      <point x="422" y="361"/>
      <point x="418" y="367"/>
      <point x="414" y="373" type="curve"/>
      <point x="407" y="379"/>
      <point x="400" y="386"/>
      <point x="394" y="394" type="curve"/>
      <point x="384" y="401"/>
      <point x="372" y="406"/>
      <point x="365" y="416" type="curve"/>
    </contour>
    <contour>
      <point x="93" y="200" type="line"/>
      <point x="92" y="225"/>
      <point x="94" y="248"/>
      <point x="99" y="268" type="curve"/>
      <point x="99" y="283"/>
      <point x="106" y="292"/>
      <point x="107" y="306" type="curve"/>
      <point x="115" y="317"/>
      <point x="125" y="326"/>
      <point x="131" y="340" type="curve"/>
      <point x="170" y="367" type="line"/>
      <point x="181" y="377"/>
      <point x="199" y="381"/>
      <point x="214" y="388" type="curve"/>
      <point x="246" y="388" type="line"/>
      <point x="254" y="386"/>
      <point x="254" y="393"/>
      <point x="261" y="392" type="curve" smooth="yes"/>
      <point x="275" y="391"/>
      <point x="290" y="390"/>
      <point x="302" y="388" type="curve"/>
      <point x="319" y="379"/>
      <point x="338" y="371"/>
      <point x="353" y="361" type="curve"/>
      <point x="356" y="355"/>
      <point x="362" y="351"/>
      <point x="364" y="343" type="curve"/>
      <point x="369" y="339"/>
      <point x="376" y="337"/>
      <point x="381" y="332" type="curve"/>
      <point x="389" y="317"/>
      <point x="396" y="301"/>
      <point x="405" y="287" type="curve"/>
      <point x="402" y="263"/>
      <point x="414" y="253"/>
      <point x="414" y="233" type="curve"/>
      <point x="416" y="233"/>
      <point x="416" y="232"/>
      <point x="416" y="231" type="curve" smooth="yes"/>
      <point x="414" y="200"/>
      <point x="408" y="173"/>
      <point x="403" y="145" type="curve"/>
      <point x="397" y="135"/>
      <point x="390" y="126"/>
      <point x="388" y="113" type="curve"/>
      <point x="377" y="105"/>
      <point x="369" y="95"/>
      <point x="358" y="88" type="curve" smooth="yes"/>
      <point x="353" y="84"/>
      <point x="351" y="76"/>
      <point x="347" y="72" type="curve"/>
      <point x="338" y="68"/>
      <point x="328" y="66"/>
      <point x="321" y="60" type="curve"/>
      <point x="307" y="60"/>
      <point x="292" y="51"/>
      <point x="276" y="50" type="curve" smooth="yes"/>
      <point x="268" y="50"/>
      <point x="260" y="52"/>
      <point x="252" y="52" type="curve" smooth="yes"/>
      <point x="243" y="52"/>
      <point x="235" y="50"/>
      <point x="227" y="50" type="curve" smooth="yes"/>
      <point x="206" y="52"/>
      <point x="189" y="62"/>
      <point x="173" y="68" type="curve"/>
      <point x="167" y="69"/>
      <point x="164" y="74"/>
      <point x="161" y="77" type="curve"/>
      <point x="151" y="80"/>
      <point x="148" y="91"/>
      <point x="140" y="96" type="curve" smooth="yes"/>
      <point x="136" y="99"/>
      <point x="129" y="99"/>
      <point x="124" y="104" type="curve"/>
      <point x="122" y="113"/>
      <point x="118" y="120"/>
      <point x="112" y="126" type="curve"/>
      <point x="111" y="140"/>
      <point x="104" y="150"/>
      <point x="99" y="161" type="curve"/>
    </contour>
  </outline>
</glyph>
<glyph name="c" format="2">
  <advance width="429"/>
  <unicode hex="0063"/>
  <anchor x="251" y="0" name="bottom"/>
  <anchor x="253" y="436" name="top"/>
  <outline>
    <contour>
      <point x="389" y="400" type="line" smooth="yes"/>
      <point x="386" y="406"/>
      <point x="384" y="412"/>
      <point x="381" y="414" type="curve" smooth="yes"/>
      <point x="369" y="425"/>
      <point x="351" y="431"/>
      <point x="335" y="438" type="curve" smooth="yes"/>
      <point x="318" y="444"/>
      <point x="297" y="446"/>
      <point x="279" y="451" type="curve"/>
      <point x="244" y="449"/>
      <point x="209" y="447"/>
      <point x="179" y="441" type="curve"/>
      <point x="171" y="438"/>
      <point x="164" y="434"/>
      <point x="157" y="430" type="curve"/>
      <point x="131" y="428"/>
      <point x="125" y="407"/>
      <point x="108" y="395" type="curve" smooth="yes"/>
      <point x="98" y="387"/>
      <point x="91" y="375"/>
      <point x="80" y="367" type="curve"/>
      <point x="78" y="359"/>
      <point x="72" y="354"/>
      <point x="69" y="347" type="curve"/>
      <point x="67" y="338"/>
      <point x="59" y="335"/>
      <point x="56" y="328" type="curve"/>
      <point x="50" y="301"/>
      <point x="41" y="276"/>
      <point x="41" y="243" type="curve"/>
      <point x="28" y="217"/>
      <point x="40" y="189"/>
      <point x="41" y="159" type="curve"/>
      <point x="44" y="151"/>
      <point x="52" y="147"/>
      <point x="50" y="134" type="curve"/>
      <point x="56" y="131"/>
      <point x="58" y="124"/>
      <point x="61" y="118" type="curve"/>
      <point x="67" y="114"/>
      <point x="72" y="110"/>
      <point x="74" y="102" type="curve"/>
      <point x="84" y="93"/>
      <point x="89" y="80"/>
      <point x="96" y="68" type="curve"/>
      <point x="100" y="63"/>
      <point x="106" y="60"/>
      <point x="112" y="57" type="curve"/>
      <point x="114" y="49"/>
      <point x="120" y="44"/>
      <point x="124" y="38" type="curve"/>
      <point x="133" y="35"/>
      <point x="140" y="30"/>
      <point x="149" y="28" type="curve"/>
      <point x="154" y="21"/>
      <point x="167" y="21"/>
      <point x="173" y="16" type="curve"/>
      <point x="183" y="15"/>
      <point x="190" y="13"/>
      <point x="198" y="11" type="curve"/>
      <point x="240" y="7"/>
      <point x="283" y="8"/>
      <point x="324" y="12" type="curve"/>
      <point x="329" y="16"/>
      <point x="336" y="17"/>
      <point x="343" y="19" type="curve"/>
      <point x="358" y="31"/>
      <point x="379" y="38"/>
      <point x="392" y="52" type="curve"/>
      <point x="391" y="57"/>
      <point x="397" y="62"/>
      <point x="398" y="69" type="curve" smooth="yes"/>
      <point x="401" y="85"/>
      <point x="398" y="106"/>
      <point x="386" y="110" type="curve"/>
      <point x="372" y="108"/>
      <point x="369" y="94"/>
      <point x="357" y="90" type="curve" smooth="yes"/>
      <point x="352" y="88"/>
      <point x="348" y="85"/>
      <point x="340" y="85" type="curve"/>
      <point x="334" y="79"/>
      <point x="327" y="73"/>
      <point x="320" y="69" type="curve"/>
      <point x="311" y="66"/>
      <point x="302" y="64"/>
      <point x="294" y="60" type="curve"/>
      <point x="282" y="60"/>
      <point x="271" y="59"/>
      <point x="261" y="57" type="curve"/>
      <point x="253" y="59"/>
      <point x="242" y="61"/>
      <point x="233" y="58" type="curve"/>
      <point x="225" y="62"/>
      <point x="213" y="61"/>
      <point x="203" y="63" type="curve"/>
      <point x="197" y="67"/>
      <point x="189" y="68"/>
      <point x="182" y="72" type="curve"/>
      <point x="178" y="77"/>
      <point x="170" y="78"/>
      <point x="165" y="80" type="curve"/>
      <point x="164" y="83" type="line"/>
      <point x="160" y="85"/>
      <point x="154" y="88"/>
      <point x="153" y="90" type="curve"/>
      <point x="150" y="92"/>
      <point x="146" y="91"/>
      <point x="145" y="94" type="curve"/>
      <point x="139" y="99"/>
      <point x="134" y="103"/>
      <point x="127" y="107" type="curve"/>
      <point x="120" y="119"/>
      <point x="109" y="128"/>
      <point x="102" y="142" type="curve" smooth="yes"/>
      <point x="93" y="156"/>
      <point x="84" y="175"/>
      <point x="82" y="195" type="curve"/>
      <point x="81" y="198"/>
      <point x="80" y="199"/>
      <point x="80" y="202" type="curve"/>
      <point x="80" y="202"/>
      <point x="82" y="205"/>
      <point x="82" y="208" type="curve"/>
      <point x="78" y="220" type="line"/>
      <point x="76" y="238"/>
      <point x="79" y="251"/>
      <point x="83" y="265" type="curve" smooth="yes"/>
      <point x="86" y="274"/>
      <point x="90" y="282"/>
      <point x="91" y="291" type="curve"/>
      <point x="101" y="306"/>
      <point x="109" y="323"/>
      <point x="119" y="337" type="curve"/>
      <point x="133" y="346"/>
      <point x="143" y="359"/>
      <point x="156" y="369" type="curve"/>
      <point x="168" y="372"/>
      <point x="176" y="379"/>
      <point x="186" y="384" type="curve"/>
      <point x="199" y="384"/>
      <point x="205" y="391"/>
      <point x="219" y="391" type="curve"/>
      <point x="225" y="396"/>
      <point x="233" y="400"/>
      <point x="242" y="402" type="curve"/>
      <point x="257" y="400"/>
      <point x="266" y="392"/>
      <point x="282" y="395" type="curve"/>
      <point x="296" y="388"/>
      <point x="314" y="385"/>
      <point x="334" y="383" type="curve"/>
      <point x="351" y="374"/>
      <point x="359" y="355"/>
      <point x="386" y="356" type="curve"/>
      <point x="396" y="362"/>
      <point x="400" y="373"/>
      <point x="397" y="388" type="curve" smooth="yes"/>
      <point x="397" y="389"/>
      <point x="393" y="390"/>
      <point x="392" y="392" type="curve" smooth="yes"/>
    </contour>
  </outline>
</glyph>
<glyph name="d" format="1">
  <advance width="492"/>
  <unicode hex="0064"/>
  <outline>
    <contour>
      <point x="444" y="671" type="line" smooth="yes"/>
      <point x="444" y="688"/>
      <point x="441" y="704"/>
      <point x="441" y="720" type="curve" smooth="yes"/>
      <point x="441" y="731"/>
      <point x="444" y="741"/>
      <point x="441" y="752" type="curve"/>
      <point x="445" y="766"/>
      <point x="446" y="790"/>
      <point x="436" y="799" type="curve" smooth="yes"/>
      <point x="431" y="803"/>
      <point x="425" y="803"/>
      <point x="417" y="802" type="curve" smooth="yes"/>
      <point x="410" y="802"/>
      <point x="401" y="801"/>
      <point x="397" y="796" type="curve"/>
      <point x="397" y="792"/>
      <point x="394" y="790"/>
      <point x="392" y="788" type="curve"/>
      <point x="392" y="775"/>
      <point x="398" y="763"/>
      <point x="399" y="750" type="curve" smooth="yes"/>
      <point x="400" y="736"/>
      <point x="397" y="722"/>
      <point x="397" y="708" type="curve" smooth="yes"/>
      <point x="397" y="700"/>
      <point x="398" y="693"/>
      <point x="399" y="685" type="curve"/>
      <point x="399" y="656"/>
      <point x="399" y="631"/>
      <point x="397" y="604" type="curve" smooth="yes"/>
      <point x="397" y="595"/>
      <point x="401" y="590"/>
      <point x="400" y="581" type="curve" smooth="yes"/>
      <point x="400" y="574"/>
      <point x="396" y="569"/>
      <point x="397" y="559" type="curve" smooth="yes"/>
      <point x="400" y="543"/>
      <point x="399" y="526"/>
      <point x="399" y="511" type="curve" smooth="yes"/>
      <point x="399" y="502"/>
      <point x="400" y="494"/>
      <point x="400" y="485" type="curve" smooth="yes"/>
      <point x="400" y="476"/>
      <point x="399" y="467"/>
      <point x="399" y="458" type="curve" smooth="yes"/>
      <point x="399" y="431"/>
      <point x="406" y="398"/>
      <point x="395" y="378" type="curve"/>
      <point x="392" y="375"/>
      <point x="388" y="382"/>
      <point x="386" y="384" type="curve"/>
      <point x="382" y="386"/>
      <point x="380" y="391"/>
      <point x="376" y="394" type="curve"/>
      <point x="371" y="402"/>
      <point x="363" y="407"/>
      <point x="358" y="414" type="curve"/>
      <point x="352" y="419"/>
      <point x="344" y="421"/>
      <point x="340" y="427" type="curve"/>
      <point x="337" y="434"/>
      <point x="327" y="434"/>
      <point x="324" y="441" type="curve"/>
      <point x="308" y="441"/>
      <point x="299" y="449"/>
      <point x="287" y="454" type="curve"/>
      <point x="255" y="455"/>
      <point x="218" y="453"/>
      <point x="183" y="454" type="curve"/>
      <point x="172" y="448"/>
      <point x="159" y="445"/>
      <point x="146" y="441" type="curve"/>
      <point x="130" y="430"/>
      <point x="116" y="416"/>
      <point x="99" y="405" type="curve"/>
      <point x="89" y="390"/>
      <point x="80" y="375"/>
      <point x="66" y="364" type="curve"/>
      <point x="63" y="354"/>
      <point x="56" y="349"/>
      <point x="53" y="339" type="curve" smooth="yes"/>
      <point x="51" y="329"/>
      <point x="44" y="322"/>
      <point x="42" y="312" type="curve"/>
      <point x="33" y="295"/>
      <point x="28" y="110"/>
      <point x="53" y="99" type="curve"/>
      <point x="67" y="90"/>
      <point x="75" y="75"/>
      <point x="86" y="64" type="curve" smooth="yes"/>
      <point x="92" y="59"/>
      <point x="95" y="51"/>
      <point x="104" y="49" type="curve"/>
      <point x="105" y="44"/>
      <point x="110" y="43"/>
      <point x="112" y="39" type="curve"/>
      <point x="116" y="38"/>
      <point x="116" y="31"/>
      <point x="120" y="30" type="curve" smooth="yes"/>
      <point x="130" y="26"/>
      <point x="139" y="21"/>
      <point x="148" y="16" type="curve"/>
      <point x="159" y="14"/>
      <point x="168" y="10"/>
      <point x="178" y="8" type="curve" smooth="yes"/>
      <point x="189" y="5"/>
      <point x="204" y="7"/>
      <point x="213" y="1" type="curve"/>
      <point x="218" y="2"/>
      <point x="221" y="6"/>
      <point x="228" y="4" type="curve"/>
      <point x="245" y="2"/>
      <point x="265" y="4"/>
      <point x="279" y="9" type="curve"/>
      <point x="292" y="8"/>
      <point x="300" y="12"/>
      <point x="313" y="11" type="curve"/>
      <point x="323" y="17"/>
      <point x="335" y="19"/>
      <point x="348" y="22" type="curve"/>
      <point x="353" y="25"/>
      <point x="356" y="31"/>
      <point x="361" y="34" type="curve" smooth="yes"/>
      <point x="373" y="39"/>
      <point x="374" y="54"/>
      <point x="388" y="58" type="curve"/>
      <point x="392" y="62"/>
      <point x="391" y="72"/>
      <point x="399" y="72" type="curve"/>
      <point x="401" y="65"/>
      <point x="402" y="56"/>
      <point x="402" y="47" type="curve" smooth="yes"/>
      <point x="401" y="38"/>
      <point x="396" y="31"/>
      <point x="399" y="25" type="curve" smooth="yes"/>
      <point x="405" y="13"/>
      <point x="430" y="14"/>
      <point x="441" y="22" type="curve"/>
      <point x="447" y="25"/>
      <point x="444" y="37"/>
      <point x="447" y="44" type="curve"/>
      <point x="441" y="83"/>
      <point x="445" y="135"/>
      <point x="443" y="175" type="curve" smooth="yes"/>
      <point x="442" y="194"/>
      <point x="442" y="212"/>
      <point x="443" y="231" type="curve" smooth="yes"/>
      <point x="443" y="244"/>
      <point x="441" y="257"/>
      <point x="441" y="269" type="curve" smooth="yes"/>
      <point x="441" y="276"/>
      <point x="443" y="281"/>
      <point x="443" y="288" type="curve" smooth="yes"/>
      <point x="443" y="307"/>
      <point x="441" y="327"/>
      <point x="440" y="347" type="curve"/>
      <point x="448" y="368"/>
      <point x="442" y="393"/>
      <point x="443" y="419" type="curve" smooth="yes"/>
      <point x="443" y="435"/>
      <point x="446" y="451"/>
      <point x="446" y="466" type="curve" smooth="yes"/>
      <point x="446" y="481"/>
      <point x="444" y="497"/>
      <point x="444" y="512" type="curve" smooth="yes"/>
      <point x="444" y="519"/>
      <point x="446" y="525"/>
      <point x="446" y="531" type="curve" smooth="yes"/>
      <point x="445" y="547"/>
      <point x="441" y="561"/>
      <point x="441" y="577" type="curve" smooth="yes"/>
      <point x="441" y="592"/>
      <point x="444" y="607"/>
      <point x="444" y="622" type="curve" smooth="yes"/>
      <point x="445" y="635"/>
      <point x="445" y="649"/>
      <point x="444" y="660" type="curve" smooth="yes"/>
    </contour>
    <contour>
      <point x="398" y="275"/>
      <point x="404" y="261"/>
      <point x="403" y="241" type="curve"/>
      <point x="407" y="233"/>
      <point x="404" y="218"/>
      <point x="405" y="208" type="curve"/>
      <point x="401" y="195"/>
      <point x="399" y="179"/>
      <point x="397" y="164" type="curve"/>
      <point x="393" y="150"/>
      <point x="384" y="141"/>
      <point x="381" y="126" type="curve"/>
      <point x="377" y="121"/>
      <point x="372" y="116"/>
      <point x="365" y="113" type="curve"/>
      <point x="363" y="107"/>
      <point x="359" y="102"/>
      <point x="356" y="96" type="curve"/>
      <point x="338" y="84"/>
      <point x="323" y="70"/>
      <point x="296" y="68" type="curve"/>
      <point x="290" y="64"/>
      <point x="284" y="61"/>
      <point x="277" y="58" type="curve"/>
      <point x="247" y="56"/>
      <point x="230" y="58"/>
      <point x="202" y="60" type="curve"/>
      <point x="191" y="62"/>
      <point x="182" y="68"/>
      <point x="170" y="69" type="curve"/>
      <point x="161" y="76"/>
      <point x="154" y="84"/>
      <point x="142" y="86" type="curve"/>
      <point x="128" y="102"/>
      <point x="113" y="116"/>
      <point x="99" y="132" type="curve"/>
      <point x="96" y="142"/>
      <point x="92" y="152"/>
      <point x="86" y="159" type="curve"/>
      <point x="88" y="170"/>
      <point x="83" y="176"/>
      <point x="82" y="184" type="curve" smooth="yes"/>
      <point x="82" y="200"/>
      <point x="80" y="214"/>
      <point x="79" y="228" type="curve"/>
      <point x="81" y="237"/>
      <point x="83" y="246"/>
      <point x="82" y="258" type="curve"/>
      <point x="86" y="282"/>
      <point x="94" y="303"/>
      <point x="104" y="321" type="curve"/>
      <point x="104" y="325"/>
      <point x="107" y="327"/>
      <point x="109" y="329" type="curve" smooth="yes"/>
      <point x="112" y="333"/>
      <point x="115" y="337"/>
      <point x="120" y="342" type="curve" smooth="yes"/>
      <point x="122" y="344"/>
      <point x="122" y="346"/>
      <point x="124" y="348" type="curve" smooth="yes"/>
      <point x="131" y="354"/>
      <point x="142" y="357"/>
      <point x="145" y="367" type="curve"/>
      <point x="154" y="368"/>
      <point x="158" y="374"/>
      <point x="162" y="380" type="curve"/>
      <point x="170" y="382"/>
      <point x="179" y="385"/>
      <point x="186" y="389" type="curve"/>
      <point x="194" y="391"/>
      <point x="201" y="395"/>
      <point x="209" y="397" type="curve"/>
      <point x="222" y="397"/>
      <point x="231" y="394"/>
      <point x="241" y="399" type="curve"/>
      <point x="256" y="390"/>
      <point x="275" y="395"/>
      <point x="295" y="391" type="curve"/>
      <point x="309" y="383"/>
      <point x="321" y="372"/>
      <point x="337" y="365" type="curve"/>
      <point x="340" y="362"/>
      <point x="343" y="358"/>
      <point x="345" y="353" type="curve"/>
      <point x="354" y="352"/>
      <point x="358" y="346"/>
      <point x="365" y="343" type="curve"/>
      <point x="369" y="338"/>
      <point x="373" y="333"/>
      <point x="378" y="329" type="curve"/>
      <point x="379" y="321"/>
      <point x="384" y="316"/>
      <point x="388" y="310" type="curve"/>
      <point x="388" y="302"/>
      <point x="392" y="297"/>
      <point x="395" y="291" type="curve"/>
    </contour>
    <contour>
      <point x="257" y="0" type="move" name="bottom"/>
    </contour>
    <contour>
      <point x="257" y="218" type="move" name="center"/>
    </contour>
    <contour>
      <point x="257" y="750" type="move" name="top"/>
    </contour>
    <contour>
      <point x="492" y="750" type="move" name="topright"/>
    </contour>
  </outline>
</glyph>
<glyph name="f" format="2">
  <advance width="224"/>
  <unicode hex="0066"/>
  <anchor x="112" y="0" name="bottom"/>
  <anchor x="112" y="750" name="top"/>
  <outline>
    <contour>
      <point x="80" y="304" type="line" smooth="yes"/>
      <point x="83" y="254"/>
      <point x="79" y="199"/>
      <point x="79" y="148" type="curve" smooth="yes"/>
      <point x="79" y="128"/>
      <point x="82" y="108"/>
      <point x="82" y="90" type="curve" smooth="yes"/>
      <point x="82" y="81"/>
      <point x="80" y="73"/>
      <point x="82" y="64" type="curve"/>
      <point x="77" y="49"/>
      <point x="71" y="27"/>
      <point x="80" y="14" type="curve"/>
      <point x="93" y="9"/>
      <point x="118" y="11"/>
      <point x="125" y="20" type="curve"/>
      <point x="129" y="35"/>
      <point x="120" y="46"/>
      <point x="118" y="60" type="curve"/>
      <point x="119" y="152"/>
      <point x="120" y="226"/>
      <point x="118" y="309" type="curve"/>
      <point x="125" y="333"/>
      <point x="116" y="360"/>
      <point x="121" y="388" type="curve"/>
      <point x="134" y="399"/>
      <point x="155" y="394"/>
      <point x="177" y="394" type="curve"/>
      <point x="186" y="392"/>
      <point x="187" y="397"/>
      <point x="192" y="399" type="curve"/>
      <point x="197" y="407"/>
      <point x="197" y="425"/>
      <point x="192" y="433" type="curve"/>
      <point x="189" y="435"/>
      <point x="185" y="437"/>
      <point x="183" y="440" type="curve"/>
      <point x="178" y="440"/>
      <point x="171" y="441"/>
      <point x="164" y="440" type="curve" smooth="yes"/>
      <point x="157" y="439"/>
      <point x="152" y="436"/>
      <point x="147" y="435" type="curve"/>
      <point x="142" y="439"/>
      <point x="130" y="436"/>
      <point x="125" y="440" type="curve"/>
      <point x="116" y="455"/>
      <point x="121" y="473"/>
      <point x="121" y="490" type="curve" smooth="yes"/>
      <point x="122" y="498"/>
      <point x="120" y="506"/>
      <point x="120" y="514" type="curve" smooth="yes"/>
      <point x="120" y="544" type="line"/>
      <point x="121" y="551"/>
      <point x="124" y="557"/>
      <point x="125" y="564" type="curve"/>
      <point x="124" y="575"/>
      <point x="119" y="580"/>
      <point x="125" y="589" type="curve"/>
      <point x="117" y="607"/>
      <point x="126" y="640"/>
      <point x="118" y="657" type="curve"/>
      <point x="124" y="669"/>
      <point x="120" y="686"/>
      <point x="120" y="701" type="curve"/>
      <point x="122" y="713"/>
      <point x="128" y="720"/>
      <point x="131" y="731" type="curve"/>
      <point x="140" y="738"/>
      <point x="148" y="746"/>
      <point x="159" y="750" type="curve"/>
      <point x="173" y="751"/>
      <point x="190" y="748"/>
      <point x="202" y="752" type="curve"/>
      <point x="214" y="761"/>
      <point x="210" y="797"/>
      <point x="199" y="805" type="curve"/>
      <point x="181" y="806"/>
      <point x="163" y="805"/>
      <point x="147" y="804" type="curve"/>
      <point x="130" y="794"/>
      <point x="110" y="787"/>
      <point x="98" y="772" type="curve"/>
      <point x="93" y="760"/>
      <point x="86" y="750"/>
      <point x="80" y="739" type="curve"/>
      <point x="80" y="724"/>
      <point x="77" y="712"/>
      <point x="74" y="700" type="curve"/>
      <point x="80" y="684"/>
      <point x="76" y="658"/>
      <point x="77" y="638" type="curve"/>
      <point x="72" y="624"/>
      <point x="75" y="606"/>
      <point x="79" y="592" type="curve"/>
      <point x="74" y="546"/>
      <point x="79" y="507"/>
      <point x="77" y="460" type="curve"/>
      <point x="78" y="448"/>
      <point x="78" y="435"/>
      <point x="68" y="433" type="curve"/>
      <point x="60" y="426"/>
      <point x="51" y="440"/>
      <point x="40" y="433" type="curve" smooth="yes"/>
      <point x="30" y="426"/>
      <point x="25" y="400"/>
      <point x="38" y="392" type="curve"/>
      <point x="49" y="388"/>
      <point x="58" y="393"/>
      <point x="71" y="392" type="curve"/>
      <point x="82" y="382"/>
      <point x="81" y="366"/>
      <point x="80" y="351" type="curve" smooth="yes"/>
    </contour>
  </outline>
</glyph>
